<svg width="280" height="276" viewBox="0 0 280 276" fill="none" xmlns="http://www.w3.org/2000/svg">
<ellipse cx="129.387" cy="130.551" rx="129.387" ry="130.551" fill="#23205B"/>
<path fill-rule="evenodd" clip-rule="evenodd" d="M116.713 34.3291C115.6 34.4582 114.474 35.0521 113.551 35.6472C110.646 35.3885 107.819 35.4359 104.98 35.4835C103.973 35.5004 102.964 35.5173 101.949 35.5205C98.4551 35.5318 96.1972 36.6245 93.7353 37.816C92.4248 38.4502 91.0566 39.1124 89.4132 39.6544C88.3259 40.013 87.112 40.2342 85.8705 40.4604C83.4261 40.9058 80.8745 41.3707 78.9706 42.9425C76.3513 45.1046 75.9354 48.0575 75.8993 51.2635C75.852 51.6478 75.6215 52.4773 75.2427 52.6708C73.7894 53.4212 72.081 53.9503 70.3489 54.4866C67.7969 55.277 65.1934 56.0832 63.2792 57.6367C60.1493 60.1767 60.0687 65.4354 59.9978 70.0627C59.9738 71.6311 59.9509 73.1271 59.8107 74.42C59.2227 75.3648 58.2834 75.9256 57.3543 76.4803C57.2239 76.5581 57.0938 76.6358 56.9649 76.7144C53.6518 78.7342 50.5613 80.8569 49.5436 84.8538C48.7542 87.9544 49.8494 91.3811 52.404 93.3267C52.8592 93.6734 53.3249 93.9682 53.7815 94.2573C54.8866 94.9571 55.9389 95.6233 56.6609 96.9093C58.9022 100.901 56.5334 102.491 53.9477 104.226C52.1767 105.415 50.3039 106.671 49.7409 108.815C49.3936 110.138 49.5365 111.524 49.9241 112.819C51.1013 116.754 53.7128 117.598 55.87 118.295C57.1325 118.703 58.2395 119.06 58.8121 119.958C59.3581 120.814 59.4371 121.936 59.5237 123.166C59.6237 124.586 59.7339 126.15 60.5866 127.611C62.82 131.436 66.0795 130.346 69.2948 129.272C71.253 128.617 73.1948 127.968 74.8786 128.438C76.4624 128.88 76.9248 130.387 77.3797 131.87C77.6066 132.609 77.8317 133.343 78.1932 133.935C78.7134 134.787 79.4933 135.417 80.4691 135.639C83.387 136.304 86.1826 134.528 88.484 132.982C90.9729 134.631 92.2295 135.451 95.1791 135.863C95.0266 136.931 94.9027 137.732 94.6559 138.778C91.9687 141.454 87.6972 142.493 84.1216 143.363C84.0212 143.387 83.9213 143.412 83.8221 143.436C80.7199 144.207 77.5989 144.862 74.4801 145.517C69.3265 146.599 64.179 147.68 59.1326 149.28C51.4095 151.728 49.2298 153.523 45.6246 160.568C38.7743 173.953 35.0303 188.322 31.2608 202.79C31.1516 203.209 31.0424 203.628 30.933 204.047C30.3433 206.308 33.8012 206.118 35.6603 206.016C35.9743 205.999 36.2427 205.984 36.4382 205.984C36.3905 209.065 36.2908 212.124 36.1913 215.174C35.9128 223.716 35.6367 232.182 36.5143 240.84C37.329 248.877 38.4258 255.915 42.276 263.166C45.4358 269.117 47.1451 268.947 52.8509 268.379C53.1546 268.349 53.4695 268.318 53.7966 268.286C53.8242 268.573 53.827 268.847 53.8088 269.132C54.6955 270.34 63.4566 271.706 68.217 272.448C69.3961 272.631 70.3297 272.777 70.8374 272.872C72.6303 272.987 74.6772 273.245 76.6322 273.491C77.4004 273.587 78.1544 273.682 78.8732 273.766C82.5101 274.187 86.1542 274.542 89.8035 274.834C102.177 275.772 114.587 276.141 126.994 275.94C135.015 275.782 143.03 275.377 151.027 274.726C153.5 274.525 155.969 274.278 158.435 273.984C158.584 273.967 158.807 273.94 159.08 273.907C160.545 273.728 163.447 273.375 164.017 273.456C164.532 273.581 164.633 273.603 165.019 273.326C165.309 272.231 165.014 265.766 164.802 261.115C164.711 259.136 164.636 257.485 164.627 256.717C164.799 256.75 164.973 256.779 165.145 256.806C182.734 259.618 206.246 258.355 221.009 247.342C239.721 233.383 248.474 206.459 251.787 184.227C253.898 183.542 256.258 183.127 258.66 182.704C264.547 181.669 270.682 180.59 273.993 175.392C275.512 173.009 276.742 168.873 276.125 166.05C276.426 165.704 276.718 165.351 277.002 164.99C279.163 162.186 280.562 158.413 279.696 154.714C279.713 154.489 279.409 154.208 279.112 153.933C278.791 153.638 278.48 153.35 278.587 153.148C280.684 149.212 281.112 145.202 275.144 146.416C275.393 144.455 275.575 142.086 275.747 139.837C275.828 138.777 275.908 137.745 275.991 136.793C276.673 129.48 277.222 122.155 277.636 114.822C277.646 114.643 277.657 114.464 277.668 114.285C278.026 108.293 278.413 101.804 271.316 99.8484C267.636 98.8343 264.548 98.3643 260.73 98.1888C254.673 97.9362 248.608 98.0854 242.571 98.6357C242.33 98.6572 242.081 98.6781 241.824 98.6995C238.068 99.0137 232.807 99.4537 232.332 103.923C231.378 112.905 231.379 122.124 231.379 131.281C231.38 136.391 231.38 141.481 231.215 146.501L231.197 146.455C230.924 145.725 230.647 144.984 230.225 144.3C229.801 143.315 227.304 141.194 226.247 142.475C225.356 143.55 225.058 145.864 224.796 147.888C224.67 148.866 224.553 149.777 224.381 150.448C224.178 151.243 223.961 152.032 223.746 152.816C223.24 154.657 222.742 156.471 222.442 158.267C222.184 159.835 222.065 161.423 222.088 163.014C222.102 164.628 222.209 166.241 222.406 167.843C222.472 168.338 222.604 169.023 222.749 169.769C223.056 171.354 223.417 173.217 223.302 174.132C222.888 177.434 199.422 194.197 195.814 196.712C194.485 197.638 193.123 198.527 191.76 199.416C189.722 200.745 187.683 202.076 185.754 203.531C184.244 201.221 181.106 195.744 180.026 193.319C180.111 193.279 180.211 193.235 180.32 193.186C181.449 192.681 183.66 191.692 182.945 190.223C179.817 183.813 176.388 177.487 172.52 171.493C170.031 167.586 167.346 163.81 164.473 160.182L164.458 160.162C162.873 158.174 160.374 155.04 158.242 153.723C152.625 150.253 146.166 148.908 139.703 147.563C133.711 146.316 127.716 145.067 122.389 142.125L123.056 136.601C124.214 136.48 125.183 136.179 126.083 135.9C128.093 135.275 129.763 134.757 132.439 136.583C135.225 138.483 138.274 138.248 140.452 135.591C142.344 133.283 144.473 134.614 146.468 135.86L146.535 135.902C151.456 138.684 154.044 135.272 156.154 131.46C160.6 131.786 165.447 131.408 167.046 126.555C167.95 123.809 166.921 121.791 165.907 119.803C165.279 118.572 164.658 117.353 164.505 115.979C164.462 115.598 165.415 114.649 166.539 113.53C168.176 111.901 170.174 109.912 169.985 108.791C170.283 106.397 168.92 104.453 167.585 102.548C167.144 101.919 166.706 101.294 166.332 100.659C163.438 95.7527 164.538 94.4368 166.143 92.5173C167.007 91.484 168.017 90.2757 168.63 88.2381C169.564 85.1258 166.723 80.2203 164.444 78.2365C164.271 78.0674 163.868 77.744 163.387 77.3576C162.261 76.4539 160.704 75.205 160.659 74.7749C160.391 72.2801 161.208 70.3175 162.003 68.4083C163.09 65.7985 164.135 63.2886 162.309 59.6558C160.406 55.8655 157.422 54.4642 154.305 52.9997C152.419 52.114 150.484 51.2051 148.709 49.7304C147.212 48.487 146.047 46.1756 144.966 44.0288C144.402 42.9096 143.86 41.8353 143.306 40.9803C141.19 37.4227 137.343 36.2193 133.323 35.3613C128.454 34.3222 121.687 33.7519 116.713 34.3291ZM246.374 185.457L246.511 185.638C246.477 185.923 246.435 186.208 246.388 186.492C243.246 205.716 233.491 230.849 217.457 242.645C202.967 253.305 181.339 253.78 164.287 250.928C164.169 245.161 163.808 238.859 163.433 233.091C163.408 232.743 163.384 232.391 163.359 232.038C163.03 227.332 162.677 222.275 162.497 217.635C165.248 222.571 169.491 229.028 173.137 233.317C174.411 234.814 176.578 236.477 178.587 236.417C181.877 236.319 187.062 234.084 189.954 232.566C204.52 224.917 217.219 211.431 227.961 199.109C230.079 196.666 232.173 194.201 234.243 191.717C234.49 191.424 234.749 191.108 235.019 190.781C235.987 189.606 237.073 188.287 238.071 187.367C241.175 186.784 243.321 186.345 246.374 185.457Z" fill="#0B0F3E"/>
<path d="M70.8354 272.588C71.8523 272.466 74.0808 271.103 75.1366 270.597C80.6156 267.97 85.9027 264.93 91.1998 261.95C95.3938 259.59 99.6234 256.926 104.056 255.042C106.385 254.038 108.837 253.352 111.346 253.005C116.974 252.258 120.594 252.5 123.942 247.143C129.183 252.44 148.76 256.77 156.521 258.322C157.594 258.537 163.062 259.507 163.513 259.909C163.593 263.713 163.705 269.422 164.015 273.172C163.338 273.076 159.38 273.591 158.433 273.7C155.967 273.994 153.498 274.241 151.025 274.441C143.028 275.093 135.013 275.497 126.992 275.655C114.585 275.856 102.175 275.487 89.8015 274.549C86.1522 274.258 82.5082 273.902 78.8712 273.482C76.3229 273.185 73.3328 272.747 70.8354 272.588Z" fill="#72C3E0"/>
<path d="M122.262 239.599C123.358 240.898 125.076 243.008 126.447 243.939C135.329 249.967 152.795 254.666 163.372 256.26C163.397 257.462 163.464 258.701 163.514 259.905C163.063 259.503 157.595 258.534 156.521 258.318C148.76 256.766 129.184 252.436 123.943 247.14C120.595 252.497 116.975 252.254 111.347 253.002C108.838 253.349 106.386 254.035 104.057 255.039C99.6242 256.922 95.3947 259.587 91.2007 261.946C85.9035 264.926 80.6164 267.966 75.1375 270.593C74.0816 271.099 71.8532 272.462 70.8363 272.584C68.2784 272.104 54.914 270.351 53.8076 268.844C53.8258 268.559 53.823 268.285 53.7954 267.998C55.8564 267.83 58.559 267.171 60.6017 266.725C70.7454 264.504 80.7524 259.994 89.8715 254.966L97.1613 250.907C100.517 249.033 102.135 247.775 106.073 247.749C108.328 247.735 112.214 247.105 114.204 246.019C117.511 244.216 118.629 241.357 122.262 239.599Z" fill="#449BBA"/>
<path d="M88.3678 143.142C89.2982 143.914 90.2352 144.766 91.1455 145.57C98.2874 151.518 106.455 155.323 115.891 154.537C120.761 154.131 123.807 152.32 126.18 148.062C126.611 147.036 126.824 146.5 127.088 145.414C131.26 146.646 136.055 147.592 140.335 148.628C146.298 150.072 153.644 151.194 158.591 155.124C160.702 156.803 163.82 160.822 165.458 163.016C169.853 168.907 173.823 175.107 177.339 181.571C178.94 184.52 180.5 187.611 182.047 190.598C181.238 191.109 180.582 191.407 179.719 191.815C175.594 193.947 169.817 196.579 165.529 198.469C163.984 199.279 162.289 200.008 160.693 200.731C158.901 189.373 156.808 180.803 154.28 169.733C154.098 169.03 153.843 167.343 152.855 167.561C152.426 168.453 153.991 173.747 154.334 175.154C155.171 178.688 155.973 182.229 156.742 185.778C160.054 200.869 161.352 216.46 162.172 231.87C162.484 237.717 163.021 244.711 163.103 250.494C153.975 249.054 144.706 246.626 136.079 243.311C132.398 241.896 130.124 240.287 127.624 237.278C128.237 235.461 128.326 233.557 128.011 231.662C129.234 229.084 129.398 227.115 128.624 224.351C129.681 222.537 130.124 221.408 129.545 219.215C129.265 218.178 128.792 217.203 128.152 216.344C130.225 215.404 131.558 213.575 130.576 211.225C129.795 209.359 128.191 208.697 126.456 207.979C126.195 207.554 125.828 206.851 125.375 206.627C124.666 206.277 124.017 206.332 123.938 205.385C123.755 203.203 123.719 200.939 123.7 198.747C128.811 196.816 128.21 193.881 129.349 189.172C130.594 188.065 130.903 187.878 131.048 186.134C131.34 182.63 129.154 182.657 126.424 182.335C126.249 181.328 125.942 168.93 121.679 174.347C121.059 175.134 122.128 180.368 122.208 182.022C120.709 182.048 119.21 182.092 117.711 182.155C117.469 179.982 117.356 169.588 113.138 173.522C112.13 174.461 113.447 181.094 113.695 182.738C112.656 183.028 110.252 183.477 109.797 184.494C109.242 185.733 109.253 188.33 110.507 189.191C110.714 189.33 111.538 189.383 111.824 189.409C112.32 193.843 112.84 197.912 117.778 199.149C117.9 202.342 117.84 205.731 117.833 208.939C114.334 210.356 108.846 212.013 106.695 215.153C104.066 218.992 101.261 225.892 96.5652 227.432C95.1104 227.698 91.6902 228.942 89.822 229.365C83.013 230.867 76.0875 231.771 69.1236 232.063C69.2782 229.774 69.253 227.237 69.3278 224.9L69.8321 205.759C71.3118 205.762 79.7472 205.944 80.4416 205.409C81.7909 202.365 81.4639 174.948 81.3325 170.515C81.1323 169.899 81.3143 170.113 80.8424 169.79C80.4039 169.822 80.5878 169.736 80.2806 170.073C80.1029 170.79 80.291 175.585 80.3115 176.699C80.3431 179.047 80.3536 181.394 80.3429 183.741C80.3419 190.686 80.0982 197.628 79.6125 204.556C76.5266 204.691 73.2229 204.682 70.1215 204.639C58.6067 204.478 47.0097 204.722 35.5052 204.505L31.9419 204.5C33.1699 199.377 34.5187 194.285 35.9869 189.227C38.8871 179.168 42.1693 169.082 47.1073 159.827C48.1405 157.891 49.2447 155.689 50.9362 154.26C57.7565 148.492 78.9733 145.983 88.3678 143.142Z" fill="#72C3E0"/>
<path d="M81.3349 170.518C85.1111 175.664 84.824 194.409 84.9944 201.306C85.0316 202.816 85.2217 207.955 83.6852 208.702C81.115 209.953 77.6153 210.497 74.781 211.203C78.3561 217.879 84.0597 222.276 90.8752 225.279C92.8861 226.164 94.5892 226.665 96.5676 227.435C95.1127 227.701 91.6925 228.945 89.8244 229.368C83.0153 230.87 76.0898 231.774 69.126 232.066C69.2805 229.777 69.2554 227.24 69.3302 224.903L69.8345 205.762C71.3142 205.765 79.7495 205.947 80.4439 205.412C81.7933 202.368 81.4662 174.951 81.3349 170.518Z" fill="#449BBA"/>
<path d="M88.3678 143.142C89.2982 143.914 90.2352 144.766 91.1455 145.57C81.4264 148.17 62.1084 150.98 54.5423 156.432C52.9197 157.602 51.8736 158.962 50.8775 160.693C44.8715 171.132 40.4054 185.993 37.2638 197.744C36.7341 199.727 35.7415 202.556 35.5052 204.506L31.9419 204.5C33.1699 199.377 34.5187 194.285 35.9869 189.227C38.8871 179.168 42.1693 169.082 47.1073 159.827C48.1405 157.891 49.2447 155.689 50.9362 154.26C57.7565 148.492 78.9733 145.983 88.3678 143.142Z" fill="#A6E0F4"/>
<path d="M127.086 145.418C131.258 146.649 136.053 147.596 140.333 148.632C146.296 150.076 153.642 151.198 158.589 155.128C160.7 156.806 163.818 160.826 165.456 163.02C169.851 168.91 173.821 175.111 177.337 181.575C178.938 184.523 180.498 187.615 182.045 190.602C181.236 191.113 180.58 191.411 179.717 191.818C179.417 190.93 177.367 187.014 176.879 186.109C172.393 177.776 167.603 169.487 161.617 162.144C159.592 159.66 157.424 157.483 154.575 155.964C148.578 152.766 141.202 151.772 134.64 150.044C132.549 149.494 128.037 148.248 126.178 148.066C126.609 147.039 126.822 146.504 127.086 145.418Z" fill="#A6E0F4"/>
<path d="M154.281 169.732C155.821 171.096 163.803 194.453 165.531 198.467C163.985 199.278 162.29 200.007 160.695 200.73C158.902 189.372 156.809 180.801 154.281 169.732Z" fill="#449BBA"/>
<path d="M113.829 36.6491C114.437 36.2514 115.844 35.2756 116.545 35.1836C121.824 34.491 128.425 35.2671 133.586 36.331C137.116 37.0588 140.414 38.1748 142.283 41.2141C144.109 44.1152 145.36 48.0081 147.973 50.3243C152.278 54.1246 158.451 54.185 161.307 59.8406C163.838 64.8505 160.052 67.9849 159.372 72.8197C158.952 75.8028 161.453 76.7714 163.508 78.6446C165.678 80.6227 168.119 84.4456 167.506 87.6393C165.216 93.9691 160.606 92.8333 165.575 101.262C166.65 103.289 169.436 105.978 168.854 108.468C168.226 111.164 164.363 112.774 163.531 115.357C163.077 116.763 164.006 118.394 164.731 119.677C166.077 122.053 167.043 124.314 165.499 126.951C163.163 130.944 159.272 129.867 155.593 130.345C153.996 130.652 154.023 136.817 148.051 135.042L147.88 134.99C146.533 134.411 145.377 133.454 143.925 133.067C140.234 132.083 139.534 136.451 136.238 136.435C133.59 136.397 132.008 134.088 129.361 133.906C127.039 133.746 125.301 134.965 123.09 135.127C123.368 132.835 123.55 130.397 123.748 128.094C129.32 128.659 132.779 127.812 137.873 125.479C147.93 120.873 151.375 108.438 151.047 98.151C150.908 93.8183 149.948 89.3481 150.576 84.9355C150.751 83.7049 150.688 82.729 151.12 81.4654C151.507 81.1641 151.647 81.2623 152.246 81.2194C154.31 80.7847 155.954 79.8255 155.48 77.2677C155.394 76.8001 155.176 76.5099 154.856 76.1717L154.543 76.064C153.393 76.7686 155.024 78.6568 153.919 79.3361C150.637 81.3551 147.155 78.7885 146.232 75.5026C145.564 73.3942 146.068 71.8151 143.235 71.8151C140.912 71.8151 138.885 69.8235 139.239 67.4546C139.683 64.495 140.482 63.593 137.592 61.8518C134.691 62.6145 131.824 63.4985 128.893 62.0868C125.869 60.6302 125.915 54.2648 124.207 53.9822C123.983 54.1271 123.616 54.3364 123.648 54.628C124.357 60.9801 125.917 69.866 116.753 69.8889C115.229 69.8928 113.029 70.0621 113.176 72.0176C113.665 78.4855 114.584 82.7342 106.074 82.5544C105.094 85.1445 104.847 87.194 101.999 88.5728C100.13 89.4777 96.9854 89.5381 95.6953 87.4659C95.2189 86.7012 95.7939 85.705 94.698 85.1837L94.4479 85.2277C93.9551 86.0674 94.3994 87.4921 94.7246 88.3331C93.9313 88.7375 93.7227 88.8342 92.8613 89.0877C91.5691 87.8482 90.1384 86.2817 88.47 85.6722C81.6431 83.1781 79.2445 90.2049 80.5847 95.5043C82.3181 100.52 85.5409 104.454 91.3436 103.596C92.6653 106.534 94.0788 109.569 95.6882 112.351C95.9095 112.734 96.6822 114.156 96.9064 114.454C96.3544 121.301 96.2545 127.52 95.3274 134.443C92.2321 133.993 91.1204 133.112 88.519 131.345C86.3332 132.775 83.5536 134.875 80.7911 134.229C77.5447 133.47 78.9958 127.693 75.1174 126.981C73.7624 126.733 73.1702 126.904 71.8947 127.05C69.2497 127.803 65.6069 129.762 63.0173 128.316C58.9988 126.073 62.1088 120.089 58.5963 117.883C54.3346 116.42 49.9563 115.044 50.8278 109.073C51.9924 103.727 60.0313 104.879 58.3312 98.0054C56.7812 91.7385 50.7931 93.8521 50.4803 86.74C50.1626 79.5179 58.2577 78.4436 60.6741 74.7924C62.4927 72.0445 59.6954 60.9351 63.8804 58.2878C67.2954 55.2861 74.7604 55.3353 76.9771 52.051L77.0642 51.9237C77.1065 48.871 76.8447 46.2384 79.3202 43.9271C82.237 41.2039 86.4452 41.507 90.059 40.3744C92.4725 39.6179 94.4671 38.1405 96.7612 37.3254C97.4717 37.065 98.2034 36.8679 98.9478 36.7362C102.387 36.145 110.227 36.1276 113.829 36.6491Z" fill="white"/>
<path d="M76.3266 84.6082C76.4645 83.1487 76.4497 81.3966 77.7696 80.4306C78.8864 79.613 80.2409 79.9475 80.9332 81.1407C82.0168 83.0473 80.0496 85.3199 79.0875 86.8627C77.4504 89.4881 77.0597 92.1034 78.8833 94.745C79.4265 95.5318 79.4181 95.5818 80.4062 95.8345L80.5864 95.5044C82.3198 100.521 85.5426 104.454 91.3453 103.596C92.667 106.534 94.0805 109.569 95.6899 112.351C95.9112 112.734 96.6839 114.156 96.9081 114.454C96.3561 121.301 96.2562 127.52 95.3291 134.443C92.2338 133.993 91.1221 133.112 88.5207 131.345C86.3349 132.775 83.5553 134.875 80.7928 134.229C77.5464 133.47 78.9975 127.693 75.1191 126.981C73.7641 126.733 73.1719 126.904 71.8964 127.05C71.3918 126.748 71.0164 126.48 70.5566 126.094C69.0075 124.795 68.2197 122.112 69.6665 120.453C70.229 119.808 71.2085 119.53 71.8856 120.212C72.3102 120.639 72.4558 120.999 72.4404 121.612C72.4327 121.955 72.4833 122.311 72.559 122.65C73.0841 123.082 73.3363 122.818 73.8005 122.37C74.7264 121.49 74.3514 120.009 74.0607 118.942C72.9035 114.692 71.7633 112.21 75.2805 108.8C79.2521 104.95 68.7008 105.095 68.2547 100.321C67.6473 93.8217 74.9697 96.193 73.2543 89.8075C72.4742 86.8782 75.0701 86.4196 76.3266 84.6082Z" fill="#D9E1F7"/>
<path d="M152.248 81.2211C152.286 82.4371 152.265 83.0036 152.142 84.2146C153.768 86.8377 156.526 87.0447 155.954 91.1404C155.602 93.6705 151.918 94.9109 153.162 97.326C155.034 99.698 157.591 99.5674 157.056 103.28C156.768 105.289 152.209 108.044 153.301 109.248C155.895 112.109 156.735 113.782 155.967 117.803C155.354 121.012 153.25 123.757 149.974 124.634C148.141 125.139 143.389 125.693 145.111 128.681C145.853 129.968 148.995 129.913 150.321 130.017C152.168 131.682 152.115 132.786 150.065 134.018C149.486 134.365 148.18 134.671 147.882 134.992C146.535 134.413 145.378 133.455 143.926 133.068C140.236 132.085 139.536 136.453 136.239 136.436C133.592 136.399 132.009 134.09 129.363 133.908C127.041 133.748 125.303 134.967 123.092 135.129C123.37 132.837 123.552 130.398 123.75 128.095C129.322 128.661 132.781 127.814 137.875 125.481C147.931 120.875 151.377 108.439 151.049 98.1527C150.91 93.82 149.95 89.3498 150.578 84.9372C150.753 83.7066 150.69 82.7307 151.122 81.4671C151.509 81.1658 151.649 81.264 152.248 81.2211Z" fill="#D9E1F7"/>
<path d="M74.9008 73.6494C74.8114 73.4494 74.725 73.248 74.6415 73.0453C73.7759 70.9299 73.9836 68.5166 74.8725 66.4426C76.7616 62.0357 87.9384 49.9147 92.3463 48.3406C94.4981 47.5721 97.1396 47.9246 99.1551 48.9246C102.465 50.5672 105.947 53.7873 107.161 57.3573C107.786 60.6173 107.687 61.1302 105.987 64.1494C103.936 67.7941 101.207 70.9593 98.2475 73.8775C95.3285 76.7041 92.6245 78.8245 88.8168 80.2257C84.6224 81.7691 74.4831 79.2543 74.9008 73.6494Z" fill="#0B0F3E"/>
<path d="M107.159 57.3608C107.785 60.6209 107.685 61.1338 105.986 64.153C103.934 67.7976 101.205 70.9629 98.246 73.8811C95.3269 76.7077 92.6229 78.8281 88.8152 80.2293C84.6208 81.7727 74.4815 79.2579 74.8992 73.6529C75.1538 74.0383 75.4279 74.4101 75.7204 74.7671C81.0876 81.3114 88.3411 80.3294 94.0586 74.9151C98.0881 71.099 106.698 63.19 107.159 57.3608Z" fill="#D9E1F7"/>
<path d="M75.573 72.1115C75.0952 70.6601 75.1959 69.0852 75.6867 67.6448C77.1749 63.2776 88.0537 51.6183 92.1428 49.7277C94.0307 48.8549 96.2159 48.9965 98.1125 49.7605C101.083 50.9573 104.549 54.2686 105.815 57.2444C105.828 57.6354 105.85 58.3811 105.744 58.7261C104.424 62.1945 101.279 66.2204 98.7193 68.9285C95.4053 72.4355 90.1498 77.9109 85.1507 78.2156C81.6311 78.4301 76.8019 75.4944 75.573 72.1115Z" fill="#B3C2EA"/>
<path d="M91.1298 54.041C93.6707 53.6244 95.3247 54.5301 97.4046 55.9055C100.83 58.1706 101.176 61.5919 98.597 64.795C96.8706 66.9395 94.1813 69.0085 91.2237 68.1782C89.7891 67.3791 88.5167 66.3671 87.1978 65.4151C84.1219 63.1951 83.6243 62.3804 85.5752 59.0453C87.1025 56.7935 88.5601 54.9989 91.1298 54.041Z" fill="#0B0F3E"/>
<path d="M91.8675 55.1821C94.1514 55.0856 97.8921 57.0168 98.8376 59.1855C100.294 62.5258 95.9433 66.5506 92.8865 67.3404C91.1483 67.3335 88.9597 65.048 87.4973 64.1037C85.7776 62.9932 84.9337 61.8574 86.3486 59.9762C87.8084 58.0351 89.335 55.719 91.8675 55.1821Z" fill="#FEFFFF"/>
<path d="M94.1464 60.4785C96.6557 60.3669 96.4107 62.3164 94.4695 63.3473C92.1035 63.7233 92.1475 61.6454 94.1464 60.4785Z" fill="#0B0F3E"/>
<path d="M91.1284 58.3269C91.6197 58.5098 91.5953 58.4798 91.9559 58.8888C92.3653 60.3938 90.8276 61.1774 89.7485 61.4831C89.3646 61.2783 89.301 61.1957 88.9644 60.8938C88.5476 59.4529 90.1162 58.6931 91.1284 58.3269Z" fill="#0B0F3E"/>
<path d="M75.573 72.1115C75.0952 70.6601 75.1959 69.0852 75.6867 67.6448C77.1749 63.2776 88.0537 51.6183 92.1428 49.7277C94.0307 48.8549 96.2159 48.9965 98.1125 49.7605C101.083 50.9573 104.549 54.2686 105.815 57.2444C105.646 57.4254 105.48 57.609 105.317 57.7951C104.557 56.5981 103.804 55.2037 102.714 54.3039C98.7409 51.0219 94.9239 49.6278 91.1317 54.0382C88.562 54.9961 87.1045 56.7907 85.5771 59.0425C83.7114 59.9691 78.6727 65.7499 78.1473 67.838C77.3825 68.7906 76.9729 69.4319 76.9593 70.6963C76.4393 71.274 76.1725 70.9224 75.573 72.1115Z" fill="#D9E1F7"/>
<path d="M64.7812 113.699C68.5179 113.564 70.0368 118.826 66.5762 120.475C62.8487 120.273 60.6813 115.038 64.7812 113.699Z" fill="#D9E1F7"/>
<path d="M63.9797 94.1582C66.2446 94.2913 66.7943 96.4817 64.8711 97.7852C62.5664 97.8321 62.3285 95.6146 63.9797 94.1582Z" fill="#D9E1F7"/>
<path d="M125.408 59.5079C127.441 63.6629 130.239 64.5606 134.598 63.7225C135.537 63.5418 136.541 63.1605 137.501 63.2169C138.009 63.2467 138.353 63.8945 138.629 64.2865C137.761 69.4621 137.903 72.384 143.944 73.2065C144.141 73.2333 144.339 73.2583 144.537 73.2814C144.679 74.0984 144.828 74.9143 144.983 75.7289C143.233 75.275 139.736 74.8416 138.774 76.8845L138.792 77.1321C140.122 77.7785 141.704 75.982 144.284 76.9222C146.176 77.4611 146.254 78.6585 147.825 79.8473C148.507 80.363 149.085 80.6316 149.858 80.9673C149.832 81.298 149.741 82.749 149.67 82.9743C149.4 85.4291 149.131 87.8958 149.257 90.3974C149.417 93.5463 149.998 96.5847 149.972 99.7752C149.907 107.638 147.441 116.935 141.259 122.137C138.749 124.248 133.826 126.195 130.853 126.753C122.865 128.25 115.4 124.732 108.601 120.985C108.254 120.794 108.002 120.799 107.648 120.975C107.565 121.418 107.653 121.545 107.969 121.906C113.685 125.036 116.069 126.396 122.557 127.997C122.46 129.42 122.315 132.693 122.069 134.024L121.397 141.046C121.281 142.212 120.647 146.082 121.405 146.712C122.281 146.343 122.235 144.127 122.321 143.216C123.527 143.912 124.742 144.477 125.994 145.078C124.5 150.837 120.589 153.28 114.855 153.469C105.089 153.791 96.8344 149.443 89.8393 142.873C90.5803 142.56 94.3557 140.315 94.6138 140.311L94.7581 140.847C95.6841 139.721 96.1468 137.448 96.2694 136.011C96.8354 129.385 98.1452 121.552 97.7811 114.912C98.2847 113.963 97.5612 113.349 96.9844 112.406C95.0372 109.221 93.7084 105.789 92.1231 102.434C89.5779 102.841 88.3971 102.811 86.0292 101.457C82.2108 99.2739 79.7961 92.1022 82.3779 88.2823C83.0624 87.2714 84.1216 86.5813 85.3164 86.3681C88.4668 85.7858 90.0093 88.2511 92.0343 89.9461C92.6094 90.4274 93.3971 89.9576 94.3362 89.7623C96.3612 88.855 97.5435 90.4526 99.7607 90.3042C102.121 90.1462 103.447 89.341 105.043 87.733C105.962 86.2743 106.358 85.2365 106.921 83.6142C109.038 83.8508 110.431 83.5224 112.306 82.5965C112.869 82.1771 113.14 83.0472 113.609 82.8256C114.909 82.0842 115.639 81.0452 117.026 80.3817C118.189 79.8255 121.436 80.5761 122.005 79.6427C120.994 77.5456 116.721 79.1691 115.197 79.9504C115.014 80.1036 114.01 80.7121 113.75 80.8766C114.351 79.4195 114.788 78.2241 114.702 76.6148C114.538 74.952 114.307 73.1322 114.333 71.4732C118.123 70.2588 119.172 71.9717 123.318 68.6411C125.382 65.4475 125.456 63.2839 125.408 59.5079Z" fill="#CC9983"/>
<path d="M107.969 121.902C113.684 125.032 116.069 126.392 122.556 127.993C122.46 129.415 122.315 132.689 122.069 134.02C117.845 132.977 109.499 126.083 107.969 121.902Z" fill="#B8796E"/>
<path d="M125.409 59.5079C127.442 63.6629 130.24 64.5606 134.599 63.7225C135.538 63.5418 136.542 63.1605 137.502 63.2169C138.01 63.2467 138.354 63.8945 138.63 64.2865C133.298 64.9796 131.358 65.52 126.374 63.4774C126.099 64.6327 125.017 67.8324 124.08 68.5618C120.887 72.7532 115.716 70.8038 115.099 74.2218C114.979 75.0215 114.847 75.8191 114.703 76.6148C114.539 74.952 114.308 73.1322 114.334 71.4732C118.124 70.2588 119.173 71.9717 123.319 68.6411C125.383 65.4475 125.457 63.2839 125.409 59.5079Z" fill="#B8796E"/>
<path d="M106.921 83.6115C109.037 83.848 110.43 83.5197 112.306 82.5938C111.599 84.742 109.78 84.6494 107.865 84.8803C106.845 86.547 106.286 87.3016 105.004 88.7632L105.042 87.7303C105.961 86.2716 106.357 85.2338 106.921 83.6115Z" fill="#B8796E"/>
<path d="M94.3354 89.758C96.3604 88.8508 97.5427 90.4484 99.7599 90.2999C102.121 90.142 103.446 89.3367 105.042 87.7288L105.004 88.7617C101.445 92.0007 98.3693 91.2644 94.3354 89.758Z" fill="#B8796E"/>
<path d="M144.281 76.9192C146.173 77.458 146.251 78.6555 147.822 79.8443C148.504 80.36 149.083 80.6286 149.855 80.9643C149.829 81.295 149.738 82.7459 149.667 82.9713C149.545 82.2143 147.654 81.4548 146.997 80.7508C145.911 79.5879 145.144 78.2442 144.281 76.9192Z" fill="#B8796E"/>
<path d="M114.701 76.6096C114.845 75.814 114.977 75.0163 115.097 74.2167C115.137 74.9242 115.15 79.8176 115.196 79.9453C115.013 80.0985 114.008 80.7069 113.749 80.8715C114.35 79.4143 114.786 78.219 114.701 76.6096Z" fill="#CC9983"/>
<path d="M117.318 87.0191C119.097 86.9166 120.208 88.122 120.633 89.7639C121.232 92.0784 121.253 95.2278 118.504 95.9427C116.208 95.2531 115.929 93.1334 115.467 91.079C115.157 90.8122 115.459 89.9786 115.326 89.5932C116.009 88.302 116.1 87.7946 117.318 87.0191Z" fill="#0B0F3E"/>
<path d="M142.209 84.5812C146.115 84.4967 146.928 91.6168 143.64 93.3246C140.245 92.8706 138.842 86.6554 142.209 84.5812Z" fill="#0B0F3E"/>
<path d="M131.17 85.2141L131.676 85.2703C132.015 85.5624 132.039 85.6125 132.134 86.163C132.862 90.3832 133.498 94.5514 135.213 98.5207C135.926 99.1234 137.626 99.7571 137.918 100.213C139.108 102.07 134.028 104.713 133.081 105.126C132.53 104.998 132.474 104.86 132.334 104.369C132.627 103.798 133.827 103.476 134.601 102.991C135.84 102.214 136.121 101.951 137.11 100.897C134.935 100.003 134.099 99.5619 133.38 97.1221C132.803 95.1651 130.48 86.6505 131.17 85.2141Z" fill="#0B0F3E"/>
<path d="M85.1659 90.1573L85.2927 90.1602C87.3299 90.2146 88.4836 91.235 89.8074 92.638C86.9926 96.5676 90.4099 95.8762 90.7413 98.2079C90.225 99.0086 88.8778 97.9266 88.419 97.4951C87.368 95.8513 87.6379 94.5952 88.2808 92.8652C87.7968 92.4862 85.8314 90.8128 85.1245 91.7874C84.6122 92.4935 84.3315 92.8382 84.4065 93.6863C84.2422 93.0641 84.0452 93.0333 83.7838 92.378C83.7146 91.1023 84.1237 90.8213 85.1659 90.1573Z" fill="#0B0F3E"/>
<path d="M123.399 108.159C124.848 108.552 125.375 111.772 127.556 112.703C129.52 113.542 132.541 111.948 133.574 112.39C133.865 112.898 133.786 112.625 133.77 113.251C131.901 113.919 129.171 114.593 127.23 113.802C125.729 113.191 123.687 110.791 123.229 109.229C123.055 108.638 123.146 108.67 123.399 108.159Z" fill="#0B0F3E"/>
<path d="M37.6002 205.7L68.5554 205.78L67.9817 232.18C65.6063 232.225 61.8222 232.361 59.5424 232.79C58.5057 233.123 55.6581 234.131 54.9261 234.846L54.8029 235.179C55.548 236.222 58.493 234.101 60.0477 234.018C61.4462 233.352 68.8894 233.272 70.8595 233.154C76.8295 232.799 94.8259 230.774 99.4953 227.165C102.257 225.03 104.285 221.388 106.07 218.416C106.896 217.042 107.682 215.503 108.887 214.42C111.51 212.061 121.242 208.842 124.847 208.987C126.734 209.276 130.391 210.474 129.594 213.061C128.669 216.21 126.379 214.629 124.004 214.704C123.053 214.732 122.151 214.902 121.224 215.111C119.984 215.493 118.729 215.914 117.515 216.373C116.423 216.788 114.797 216.801 114.047 217.709L113.956 218.071C114.508 218.864 116.762 217.93 117.81 217.82C120.5 217.537 125.359 215.815 127.579 217.755C127.644 217.837 127.964 218.389 128.026 218.504C128.742 220.623 128.735 221.528 127.779 223.511C126.014 223.544 124.567 223.634 122.812 223.732C121.657 223.884 116.644 224.472 116.078 225.089C116.184 225.559 116.072 225.364 116.433 225.689C117.884 225.894 126.942 224.027 127.513 224.958C127.529 224.986 127.529 225.019 127.537 225.049C128.122 227.239 127.958 229.198 126.97 231.252C125.885 231.434 124.902 231.595 123.799 231.649C122.66 231.829 117.567 232.413 117.028 232.978L117.009 233.275C117.487 233.701 118.078 233.74 118.712 233.659C121.23 233.335 123.782 232.888 126.299 232.546L126.766 232.603C127.176 233.189 127.222 236.457 126.263 237.029C124.688 237.969 121.554 238.313 120.179 239.371C116.57 242.223 115.814 244.63 111.119 245.875C108.307 246.621 103.049 246.367 100.911 247.551C86.4784 255.54 72.0176 264.104 55.4441 266.571C50.9892 267.234 46.9007 268.525 44.2803 263.878C37.2874 253.264 37.2362 236.742 37.1289 224.41C37.0826 219.095 37.2083 213.21 37.5429 207.901C37.5602 207.186 37.5654 206.409 37.6002 205.7Z" fill="#CC9983"/>
<path d="M126.303 232.544L126.77 232.601C127.18 233.187 127.226 236.455 126.267 237.027C124.692 237.967 121.558 238.311 120.183 239.369C116.574 242.221 115.817 244.628 111.123 245.873C108.311 246.619 103.053 246.365 100.915 247.549C86.4823 255.538 72.0215 264.102 55.448 266.569C50.9931 267.232 46.9046 268.523 44.2842 263.876C46.2037 264.797 47.1476 264.582 49.2862 264.48C51.023 264.407 54.1449 263.769 55.899 263.367C66.3984 260.963 76.6463 256.669 86.3597 252.039C90.434 250.098 94.7164 247.684 98.8524 245.984C102.632 244.431 106.651 245.52 110.897 243.815C114.737 242.271 115.976 240.133 119.423 238.228C121.109 237.296 123.707 237.07 125.293 235.951C126.213 235.303 126.158 233.695 126.303 232.544Z" fill="#B8796E"/>
<path d="M37.6032 205.7L68.5584 205.78L67.9847 232.18C65.6093 232.225 61.8252 232.361 59.5454 232.79C60.2282 231.955 61.8132 231.337 62.6855 230.386C64.0069 229.107 64.3842 226.945 64.5928 225.166C65.1439 220.469 65.2238 215.626 65.2667 210.898C62.8802 210.476 60.2165 210.22 57.7914 209.938C54.1109 209.499 50.4276 209.084 46.7418 208.694C45.5265 208.569 40.5548 208.206 39.665 207.981L37.5459 207.901C37.5632 207.186 37.5684 206.409 37.6032 205.7Z" fill="#B8796E"/>
<path d="M37.5429 207.902L39.662 207.982C39.7429 210.88 39.3884 213.976 39.4332 216.796C39.6282 229.077 37.6433 253.534 47.1953 262.617C47.8741 263.258 48.57 263.881 49.2823 264.484C47.1437 264.585 46.1998 264.801 44.2803 263.88C37.2874 253.265 37.2362 236.744 37.1289 224.411C37.0826 219.096 37.2083 213.211 37.5429 207.902Z" fill="#E2BAA4"/>
<path d="M60.0473 234.017C61.4459 233.352 68.889 233.271 70.8591 233.154C76.8291 232.798 94.8255 230.774 99.4949 227.164C102.257 225.029 104.285 221.387 106.069 218.416C106.895 217.041 107.682 215.502 108.887 214.419C111.51 212.06 121.242 208.841 124.846 208.986L125.047 209.29C124.526 209.726 121.517 210.258 120.543 210.584C118.132 211.392 113.313 213.024 111.449 214.607C108.013 217.526 106.824 223.993 103.316 227.343C102.365 228.251 101.872 228.877 100.65 229.504C98.2074 230.758 95.3737 231.223 92.7447 231.818C84.0603 233.782 75.3092 234.426 66.4301 234.59C64.1206 234.631 61.8599 234.534 59.5714 234.552L59.4038 234.432C59.5774 234.323 59.8995 234.136 60.0473 234.017Z" fill="#E2BAA4"/>
<path d="M127.629 213.595C127.888 213.447 128.15 213.281 128.405 213.124L128.666 213.196L128.85 213.667L129.017 213.721L129.597 213.064C128.672 216.213 126.381 214.632 124.007 214.707C123.055 214.735 122.153 214.905 121.227 215.114C122.526 213.231 125.639 213.395 127.629 213.595Z" fill="#B8796E"/>
<path d="M128.024 218.504C128.741 220.623 128.734 221.528 127.777 223.511C126.012 223.544 124.565 223.634 122.811 223.732C123.775 222.822 126.007 222.842 127.047 221.911C128.001 221.059 127.947 219.695 128.024 218.504Z" fill="#B8796E"/>
<path d="M127.538 225.051C128.123 227.241 127.959 229.2 126.971 231.254C125.886 231.436 124.903 231.597 123.8 231.652C123.964 231.441 126.091 229.867 126.48 229.553C127.321 228.874 127.399 226.186 127.538 225.051Z" fill="#B8796E"/>
<path d="M248.718 98.9989L248.84 98.988C253.881 98.5762 266.986 98.4878 271.189 101.41C273.388 102.939 272.261 117.545 272.097 120.705C271.612 129.852 270.917 138.986 270.016 148.101C269.679 151.795 269.312 155.487 268.918 159.175C268.69 161.227 268.268 166.698 266.909 168.13C264.804 170.348 259.093 170.078 256.178 170.087C251.722 170.081 237.736 170.17 234.326 167.383C233.301 166.543 232.707 165.269 232.577 163.96C232.32 161.336 232.537 158.545 232.542 155.906C232.505 151.206 232.49 146.507 232.499 141.808C232.52 134.185 232.591 126.561 232.714 118.939C232.785 114.1 232.917 108.766 233.389 103.964C233.887 98.9063 244.788 99.2579 248.718 98.9989Z" fill="#D9E1F7"/>
<path d="M245.608 105.445C251.986 105.354 258.573 105.503 264.953 105.687C266.282 105.78 267.845 105.891 268.766 106.986C270.194 108.68 269.692 111.634 269.59 113.771L269.273 120.74C268.919 128.493 268.447 136.241 267.856 143.979C267.475 149.108 266.979 154.491 266.718 159.607C264.278 159.664 261.835 159.69 259.394 159.681L245.029 159.657C242.693 159.652 237.328 159.889 235.434 159.129C234.608 158.269 234.911 152.024 234.932 150.53L235.042 139.841C235.121 133.318 235.242 126.795 235.402 120.274C235.481 116.851 235.544 113.438 235.709 110.012C235.915 105.698 238.577 105.479 242.222 105.469C243.308 105.466 244.507 105.45 245.608 105.445Z" fill="#6881BA"/>
<path d="M247.42 117.78C247.435 116.604 247.447 112.27 248.106 111.534C249.774 110.806 255.101 111.141 257.073 111.31C257.24 113.117 257.09 115.874 257.035 117.775C259.476 118.206 260.951 118.244 262.697 120.092C263.054 120.684 263.564 121.438 263.614 122.112C263.837 125.13 263.629 128.51 263.533 131.539C263.419 135.245 263.254 138.95 263.041 142.653C262.944 144.469 262.963 150.204 261.436 151.475C260.462 152.286 257.378 152.288 255.993 152.273C251.67 152.229 247.159 152.216 242.852 151.77C242.195 151.702 241.248 150.896 240.962 150.304C239.849 147.584 240.927 142.775 240.709 139.864C240.566 136.941 241.24 132.647 241.301 129.632C241.339 127.668 241.267 120.808 242.046 119.455C243.186 118.565 245.888 118.13 247.42 117.78Z" fill="#FEFFFF"/>
<path d="M262.697 120.095C263.054 120.687 263.564 121.442 263.614 122.115C263.837 125.134 263.629 128.514 263.533 131.542C263.419 135.249 263.254 138.954 263.041 142.656C262.944 144.472 262.963 150.207 261.436 151.478C260.462 152.29 257.378 152.292 255.993 152.277C251.67 152.232 247.159 152.219 242.852 151.773C242.195 151.706 241.248 150.899 240.962 150.308C239.849 147.587 240.927 142.779 240.709 139.867C241.214 139.699 241.258 139.65 241.696 139.374C244.137 141.268 246.347 139.878 248.818 138.827C252.189 137.394 254.269 138.326 257.336 139.789C259.183 140.67 260.338 140.493 262.145 139.746C262.671 134.441 262.577 128.097 262.566 122.709C262.563 121.839 262.183 121.146 261.666 120.464L262.697 120.095Z" fill="#0B0F3E"/>
<path d="M249.983 139.437C251.821 138.227 256.496 140.645 258.077 141.097L258.788 141.24C259.499 141.397 259.641 141.384 260.298 141.397C261.067 141.334 261.528 141.098 262.242 140.814C262.06 142.613 261.96 149.565 260.88 150.485C260.346 150.94 259.566 151.124 258.89 151.219C255.979 151.628 246.26 151.236 243.128 150.863C242.421 150.509 241.8 150.064 241.7 149.232C241.382 146.566 241.605 143.396 241.658 140.717C242.527 141.192 242.683 141.27 243.651 141.535C245.741 141.41 248.035 140.279 249.983 139.437Z" fill="#F87977"/>
<path d="M247.423 117.78C247.437 116.604 247.45 112.27 248.108 111.534C249.776 110.806 255.104 111.141 257.076 111.31C257.242 113.117 257.093 115.874 257.037 117.775C259.479 118.206 260.953 118.244 262.699 120.092L261.668 120.461C259.554 118.827 258.282 119.374 255.953 118.77C255.884 116.535 256.191 114.439 256.162 112.306C254.03 112.095 250.885 112.105 248.728 112.46C248.62 113.699 248.509 117.862 248.083 118.604C246.583 119.64 242.872 118.909 242.602 121.123C242.364 123.072 242.287 125.142 242.193 127.113L241.699 139.371C241.261 139.647 241.217 139.695 240.712 139.864C240.568 136.941 241.242 132.647 241.303 129.632C241.342 127.668 241.269 120.808 242.048 119.455C243.189 118.565 245.89 118.13 247.423 117.78Z" fill="#0B0F3E"/>
<path d="M244.991 126.955C245.337 127.136 247.165 128.811 247.608 129.196C248.304 128.525 249.44 127.219 250.413 127.259L250.505 127.495C250.221 128.674 249.324 129.37 248.465 130.224C248.978 130.767 250.147 131.828 250.369 132.506C250.49 132.875 250.183 133.098 249.927 133.41C249.189 132.872 248.25 131.855 247.579 131.173L246.555 132.138L246.368 132.318C245.934 132.728 245.256 133.235 244.639 133.213L244.548 133.043C244.828 131.896 245.826 131.062 246.654 130.212C245.921 129.481 245.036 128.749 244.582 127.859C244.585 127.312 244.581 127.488 244.991 126.955Z" fill="#0B0F3E"/>
<path d="M259.657 127.107C260.125 127.311 260.222 127.418 260.284 127.878C259.892 128.745 258.78 129.689 258.072 130.376C258.768 131.077 259.977 132.163 259.99 133.172L259.781 133.295C258.626 133.027 257.988 132.123 257.169 131.244L255.038 133.335C254.602 133.367 254.385 133.231 254.211 132.878C254.301 132.154 255.723 130.912 256.309 130.329C255.662 129.67 254.361 128.562 254.452 127.59L254.693 127.463C255.828 127.702 256.398 128.519 257.223 129.375C258.045 128.631 258.855 127.874 259.657 127.107Z" fill="#0B0F3E"/>
<path d="M249.458 161.871C250.877 161.484 252.338 162.325 252.732 163.754C253.128 165.181 252.306 166.663 250.892 167.072C249.465 167.484 247.978 166.644 247.58 165.201C247.181 163.758 248.025 162.263 249.458 161.871Z" fill="#343A7B"/>
<path d="M249.851 162.461C252.074 162.454 252.954 165.189 250.551 166.389C247.938 166.242 247.63 163.916 249.851 162.461Z" fill="#6E68B0"/>
<path d="M248.005 101.94C249.332 101.933 256.895 101.707 257.541 102.084C257.814 102.604 257.731 102.432 257.628 103.139C256.204 103.094 248.528 103.298 247.95 102.886C247.793 102.414 247.862 102.514 248.005 101.94Z" fill="#0B0F3E"/>
<path d="M224.47 174.634C224.622 171.852 223.573 168.171 223.368 165.218C222.977 159.602 224.173 155.512 225.578 150.153C226.131 148.047 226.176 145.449 226.848 143.285C227.291 142.922 227.095 143.023 227.773 143.018C230.841 145.045 230.702 151.519 229.539 154.938C229.495 154.992 229.45 155.047 229.405 155.101C229.05 156.299 229.413 156.278 230.496 156.9L230.985 156.998C231.242 157.394 231.262 158.415 231.268 158.867C231.336 164.439 230.763 168.57 237.534 169.956C239.655 170.39 242.779 170.745 245.014 170.836C244.882 173.079 244.719 175.374 244.706 177.615C244.68 179.278 244.07 181.431 245.676 182.242C246.142 182.332 246.531 182.335 246.836 182.671C246.813 183.79 245.84 184.105 244.902 184.42C242.427 185.249 239.819 185.562 237.287 186.104C235.871 187.903 234.288 189.603 232.784 191.36C219.62 206.741 205.668 223.386 187.191 232.328C184.022 233.861 178.307 236.518 175.401 233.597C170.031 228.403 166.08 221.205 162.389 214.725C161.872 213.817 161.076 203.989 160.836 202.091C166.505 199.186 173.014 196.217 178.816 193.6C179.273 194.382 179.753 195.172 180.154 195.981C181.673 198.538 183.204 201.381 184.764 203.862C184.232 204.306 180.581 207.146 181.272 208.333C181.373 208.508 181.764 208.592 181.977 208.652C182.695 207.544 183.745 206.19 184.814 205.425C190.995 201.004 197.425 196.822 203.576 192.347C208.438 188.847 213.154 185.144 217.711 181.249C219.623 179.629 223.242 176.685 224.47 174.634Z" fill="#CC9983"/>
<path d="M180.154 195.981C176.927 197.543 171.237 201.067 169.455 204.207C167.922 206.907 168.332 210.128 169.1 212.999C170.342 217.648 173.459 226.009 177.788 228.401C179.825 229.526 182.227 229.359 184.39 228.737C196.871 225.143 216.288 205.424 225.229 195.607C227.196 193.448 231.133 189.398 232.457 186.888C233.069 185.729 232.551 184.694 232.221 183.53C232.07 182.999 232.007 182.701 232.28 182.207C233.082 182.295 234.726 183.646 235.505 183.904C237.54 184.513 240.554 184.517 242.513 183.684C243.702 183.177 244.379 182.697 245.676 182.242C246.142 182.332 246.531 182.335 246.836 182.671C246.813 183.79 245.84 184.105 244.902 184.419C242.427 185.249 239.819 185.561 237.287 186.104C235.871 187.903 234.288 189.603 232.784 191.36C219.62 206.741 205.668 223.386 187.191 232.328C184.022 233.861 178.307 236.518 175.401 233.597C170.031 228.402 166.08 221.205 162.389 214.725C161.872 213.817 161.076 203.989 160.836 202.091C166.505 199.186 173.014 196.216 178.816 193.6C179.273 194.382 179.753 195.172 180.154 195.981Z" fill="#B8796E"/>
<path d="M224.475 174.634C224.627 171.852 223.578 168.171 223.373 165.218C222.982 159.602 224.178 155.512 225.583 150.153C226.136 148.047 226.181 145.449 226.852 143.285C227.296 142.922 227.1 143.023 227.778 143.018C227.29 144.396 227.594 146.922 227.282 148.527C226.811 150.941 226.131 153.216 225.492 155.586C224.55 159.431 224.569 162.309 224.84 166.194C225.093 169.821 226.438 173.178 226.539 176.605C226.557 177.196 223.532 179.291 222.757 179.962C215.04 186.757 206.921 193.072 198.444 198.872C196.378 200.297 183.886 208.705 181.982 208.652C182.7 207.544 183.749 206.19 184.818 205.425C190.999 201.004 197.43 196.822 203.581 192.347C208.442 188.847 213.159 185.144 217.716 181.249C219.628 179.629 223.246 176.685 224.475 174.634Z" fill="#E2BAA4"/>
<path d="M230.499 156.9L230.988 156.998C231.245 157.394 231.265 158.415 231.271 158.867C231.339 164.439 230.766 168.569 237.537 169.955C239.658 170.39 242.782 170.744 245.017 170.836C244.885 173.078 244.721 175.374 244.709 177.615C244.509 177.59 236.334 174.903 235.643 174.563C232.4 172.968 230.787 168.529 230.513 165.073C230.366 163.214 230.339 160.711 229.791 158.896L229.729 158.699C230.239 157.963 230.456 157.824 230.499 156.9Z" fill="#B8796E"/>
<path d="M229.728 158.699C229.427 157.767 228.588 156.296 228.786 155.38C229.094 155.047 228.905 155.157 229.407 155.101C229.052 156.299 229.414 156.278 230.498 156.9C230.455 157.824 230.237 157.963 229.728 158.699Z" fill="#B8796E"/>
<path d="M248.156 182.544L250.57 182.561C250.295 187.419 248.728 194.973 247.425 199.698C243.155 215.197 236.366 231.655 224.401 242.714C211.427 254.704 192.653 257.347 175.678 256.341C170.623 256.028 165.591 255.426 160.605 254.536C151.864 252.955 134.99 248.395 127.855 243.439C128.224 243.217 129.177 243.141 129.65 243.077C129.945 242.635 130.205 242.137 130.463 241.669C136.241 245.144 141.518 246.729 148.023 248.442C165.186 252.964 183.679 255.222 201.135 251.158C228.703 244.738 240.763 216.312 246.612 191.186C247.289 188.276 247.565 185.413 248.156 182.544Z" fill="white"/>
<path d="M272.159 168.477C272.482 167.695 272.992 166.173 273.417 165.583C277.242 164.144 273.849 173.023 273.066 174.313C269.921 179.49 263.578 180.465 258.16 181.315C256.887 181.541 255.614 181.777 254.345 182.024C254.71 179.709 254.811 174.21 254.945 171.619C258.081 171.67 261.234 171.973 264.373 172.016C268.119 172.068 270.04 171.805 272.159 168.477Z" fill="#CC9983"/>
<path d="M272.159 168.476C272.172 169.71 271.7 169.895 271.323 170.848C269.739 174.846 265.357 175.726 261.616 176.527C258.721 177.149 256.19 177.657 258.16 181.315C256.887 181.54 255.614 181.777 254.345 182.024C254.71 179.708 254.811 174.209 254.945 171.618C258.081 171.67 261.234 171.973 264.373 172.016C268.119 172.067 270.04 171.805 272.159 168.476Z" fill="#B8796E"/>
<path d="M265.229 172.375C265.728 172.299 266.094 172.217 266.501 172.527L266.429 172.8C265.5 173.686 263.693 174.14 262.438 174.758L262.258 174.848C261.65 175.108 261.934 175.112 261.377 174.936C261.081 174.527 261.135 174.748 261.202 174.253C261.859 173.31 264.102 172.745 265.229 172.375Z" fill="#0B0F3E"/>
<path d="M121.465 188.078C123.787 188.074 125.886 188.142 128.195 188.457C127.819 190.865 127.493 195.422 125.271 196.851C124.561 197.307 123.469 197.178 122.886 197.796C122.153 198.574 122.766 206.362 122.854 207.857C121.579 207.98 120.852 208.19 119.62 208.533C119.272 208.639 119.448 208.635 119.092 208.541C118.721 207.52 119.211 200.506 118.934 198.941C118.703 197.634 116.871 197.951 115.476 196.856C113.583 195.371 113.254 191.276 112.877 188.94C116.11 188.358 118.218 188.165 121.465 188.078Z" fill="white"/>
<path d="M273.046 124.229C274.266 124.607 274.551 124.715 275.787 124.747C275.399 132.814 274.374 141.924 273.589 150.019C273.262 153.451 272.908 156.88 272.527 160.307C272.09 164.234 272.292 170.15 267.196 170.624C266.107 170.777 264.879 170.876 263.774 170.989C266.181 170.197 268.349 169.47 268.924 166.678C269.842 162.222 270.243 157.449 270.688 152.926C271.608 143.372 272.395 133.805 273.046 124.229Z" fill="#6E68B0"/>
<path d="M246.267 170.928C248.586 171.135 251.348 171.23 253.687 171.254C253.638 172.385 253.566 175.904 253.406 176.888C253.5 178.031 253.286 180.188 253.179 181.383C250.735 181.434 248.291 181.338 245.858 181.096C245.902 178.683 246.034 176.145 246.138 173.725C246.162 172.783 246.172 171.867 246.267 170.928Z" fill="#FEFFFF"/>
<path d="M246.265 170.928C248.584 171.135 251.345 171.23 253.684 171.254C253.636 172.385 253.563 175.904 253.404 176.888C253.32 176.298 253.337 175.354 253.329 174.732C251.135 173.818 248.486 173.142 246.136 173.725C246.16 172.783 246.17 171.867 246.265 170.928Z" fill="#D9E1F7"/>
<path d="M119.048 183.333C121.379 183.233 127.314 183.112 129.505 184.228C130.003 184.482 129.821 186.661 129.799 187.409C126.74 186.97 124.163 186.842 121.093 186.854C117.451 186.823 114.33 187.607 110.809 188.194C110.752 187.093 110.764 186.069 110.773 184.968C113.294 183.763 116.295 183.534 119.048 183.333Z" fill="#DAE3E7"/>
<path d="M272.823 101.358C277.184 103.698 276.698 108.886 276.484 113.068C276.308 116.543 276.048 120.02 275.806 123.491C275.026 123.816 273.335 123.789 273.268 122.547C272.997 117.457 274.81 105.814 272.823 101.358Z" fill="#6E68B0"/>
<path d="M274.155 156.959C274.911 155.315 277.494 152.261 278.72 155.275C278.729 157.336 278.643 158.613 277.951 160.571C277.44 162.256 276.889 163.155 275.767 164.455C274.671 164.284 274.248 164.231 273.148 164.244C273.468 162.475 273.694 160.148 273.92 158.323L274.155 156.959Z" fill="#CC9983"/>
<path d="M273.148 164.244C273.468 162.476 273.694 160.149 273.92 158.324C274.49 159.758 275.112 161.681 277.116 160.991C277.416 160.887 277.678 160.677 277.951 160.572C277.44 162.256 276.889 163.156 275.767 164.455C274.671 164.285 274.248 164.232 273.148 164.244Z" fill="#B8796E"/>
<path d="M274.157 156.959C274.914 155.315 277.497 152.261 278.723 155.275C278.653 155.388 278.583 155.501 278.514 155.615C277.133 156.217 275.932 157.072 274.678 157.903C274.355 157.679 274.254 157.379 274.157 156.959Z" fill="#E2BAA4"/>
<path d="M274.807 149.58C274.935 148.596 274.922 147.775 275.859 147.286C277.651 146.351 279.064 147.394 278.66 149.384C278.432 150.684 277.977 151.669 277.199 152.727C275.669 153.33 275.363 153.539 274.2 154.711C274.509 152.881 274.549 151.237 274.807 149.58Z" fill="#CC9983"/>
<path d="M274.807 149.58C274.823 149.972 274.797 150.087 274.944 150.451C276.06 151.508 277.658 150.08 278.66 149.383C278.432 150.684 277.977 151.669 277.199 152.727C275.669 153.33 275.363 153.539 274.2 154.711C274.509 152.881 274.549 151.237 274.807 149.58Z" fill="#B8796E"/>
<path d="M126.81 238.144C127.879 239.573 129.023 240.628 130.465 241.666C130.207 242.134 129.948 242.632 129.653 243.074C129.18 243.138 128.227 243.214 127.858 243.437C126.253 242.544 124.661 240.658 123.597 239.196C124.939 238.956 125.597 238.721 126.81 238.144Z" fill="#DAE3E7"/>
<path d="M114.443 173.74C114.867 173.867 115.24 173.98 115.428 174.416C115.856 175.405 116.53 181.625 116.338 182.275L116.043 182.365C115.705 182.408 115.372 182.431 115.032 182.457C114.436 181.583 114.199 176.829 113.983 175.535C113.846 174.712 113.961 174.352 114.443 173.74Z" fill="#FEFFFF"/>
<path d="M123.05 174.163C123.347 174.229 123.498 174.285 123.787 174.382C124.636 175.216 125.258 181.565 124.842 182.131C124.078 182.105 123.383 182.301 123.367 181.287C123.342 179.748 122.237 175.346 123.05 174.163Z" fill="white"/>
<path d="M231.154 153.552C231.248 154.286 231.366 155.256 231.081 155.936C230.568 155.011 230.849 154.505 231.154 153.552Z" fill="#FEFFFF"/>
</svg>
