<svg width="212" height="400" viewBox="0 0 212 400" fill="none" xmlns="http://www.w3.org/2000/svg">
<path d="M204.435 252.087C208.535 262.387 207.435 272.587 200.435 280.387C193.635 288.087 183.135 290.387 171.935 287.786C169.035 293.387 171.135 298.687 173.335 303.887C179.235 318.087 176.135 347.286 174.735 364.487C173.935 374.687 167.035 379.987 161.535 384.587C153.735 391.087 143.535 383.786 137.535 385.987C118.435 393.187 102.835 392.087 84.5351 393.587C73.7351 394.487 64.4351 403.687 51.6351 397.087C43.9351 393.087 35.1351 385.687 32.6351 373.887C27.9351 352.087 29.5351 328.787 39.1351 307.187C17.8351 301.987 2.93513 284.487 0.435127 262.187C-1.96487 239.587 5.53508 205.287 23.6351 189.087C27.9351 165.187 27.8351 141.087 30.6351 116.887C33.1351 95.1865 53.2351 89.3865 71.6351 93.2865C69.9351 84.9865 73.6351 78.1865 76.0351 72.1865C68.2351 69.4865 65.6351 61.2865 60.5351 56.4865C52.6351 48.9865 46.5351 41.3865 47.6351 30.2865C48.6351 19.6865 55.9351 12.1865 66.6351 7.78652C99.6351 -5.91348 135.635 -1.01347 165.635 18.3865C173.735 23.5865 178.235 31.2865 179.135 39.7865C180.235 50.2865 173.735 56.0865 167.735 63.5865C161.735 70.9865 156.835 79.2865 144.335 77.5865C140.435 85.5865 162.035 74.8865 175.335 87.9865C189.235 101.787 188.135 122.087 178.735 138.087C181.035 146.787 185.535 156.986 183.235 167.286C197.035 166.186 206.835 172.687 210.335 183.687C213.935 195.187 208.935 206.887 197.935 213.887C212.035 227.787 201.035 243.087 204.635 252.286L204.435 252.087Z" fill="#F5F4F5"/>
<path d="M75.0354 118.986C77.7354 141.586 67.6354 192.286 37.2354 181.786L54.0354 108.386C55.7354 104.086 64.3354 105.486 67.2354 107.286C70.8354 109.386 74.3354 113.686 74.9354 119.086L75.0354 118.986ZM66.7354 121.286L64.5354 116.486C58.3354 102.886 49.7354 169.086 47.4354 173.686C61.0354 178.586 70.0354 128.586 66.7354 121.386V121.286Z" fill="#312D6F"/>
<path d="M156.436 175.486C151.236 184.686 138.936 188.486 131.436 181.086C124.536 174.286 127.136 160.086 135.436 156.386C145.836 151.686 129.736 170.486 139.836 176.086C142.736 177.686 147.736 176.186 149.736 171.986C153.536 163.786 149.736 155.286 144.336 148.486C134.736 136.486 133.536 119.086 145.436 109.086C150.636 104.686 158.036 104.286 162.436 106.986C171.036 112.186 167.436 127.286 163.636 129.986C153.236 137.286 162.836 116.086 156.136 114.086C153.436 113.286 149.536 114.086 147.636 117.386C135.236 138.986 170.836 150.186 156.436 175.586V175.486Z" fill="#312D6F"/>
<path d="M95.7355 160.886C101.935 163.786 114.936 158.986 114.936 165.486C114.936 171.986 102.336 169.386 95.9355 170.786C93.0355 171.486 94.7355 172.886 95.9355 173.186L108.835 175.286C114.435 176.486 111.236 183.186 108.036 183.286C99.9355 183.486 92.7354 183.786 83.8354 181.586C87.2354 156.086 93.3355 131.886 101.235 107.386C105.035 105.286 130.735 102.786 126.735 110.286C123.835 115.686 115.936 112.486 107.536 113.986C102.036 128.986 99.0355 144.186 95.5355 160.886H95.7355Z" fill="#312D6F"/>
<path d="M42.9352 269.286C75.1352 274.286 116.035 254.887 180.635 270.487C182.935 271.087 182.035 274.287 181.135 275.187C180.235 276.087 178.535 277.587 176.135 277.087C108.735 261.987 86.9351 283.687 39.1351 278.487C26.9351 277.187 17.6352 265.487 16.9352 252.787C15.1352 221.187 38.5352 184.687 48.4352 196.887C52.4352 201.887 51.5351 210.087 47.1351 214.987C45.6351 216.587 42.8351 216.087 42.1351 214.087C41.2351 211.387 43.2352 207.587 41.9352 203.287C31.7352 214.587 26.1352 230.687 24.9352 246.787C24.0352 258.387 32.1352 267.587 43.0352 269.286H42.9352Z" fill="#312D6F"/>
<path d="M135.735 247.787C134.235 252.587 132.935 255.887 130.035 257.087C126.835 258.287 121.535 258.387 120.735 254.087C118.735 243.787 120.735 233.887 118.035 223.187C111.635 230.887 110.835 256.787 104.535 257.287C102.635 257.387 99.9351 255.887 100.635 253.087C105.435 235.087 109.835 217.987 115.535 200.687C116.435 198.087 118.735 196.987 120.435 196.687C129.335 195.087 124.935 232.287 129.435 239.787L142.735 200.087C143.435 198.087 145.535 196.887 146.935 196.887C149.035 196.887 150.635 199.387 149.635 202.487L135.635 247.787H135.735Z" fill="#312D6F"/>
<path d="M90.2353 201.986C95.5353 222.486 88.6353 257.986 65.1353 258.986C41.6353 259.986 62.7354 213.486 70.4354 202.186C73.0354 198.386 77.0353 196.586 80.3353 196.186C83.8353 195.786 89.1353 197.286 90.3353 201.986H90.2353ZM80.2353 204.286C71.8353 205.686 62.0353 241.286 62.6353 250.486C82.8353 254.286 90.3353 202.586 80.2353 204.286Z" fill="#312D6F"/>
<path d="M184.435 240.087C185.535 248.187 166.535 243.887 162.535 246.987C162.835 251.887 184.535 246.587 181.735 254.087C179.635 259.787 163.235 257.887 155.735 256.987C152.835 255.387 154.735 248.587 155.735 245.187L170.535 197.487C177.235 197.187 184.935 195.487 191.235 197.287C195.335 198.387 195.035 204.387 190.835 205.087C185.835 205.987 178.135 204.287 175.235 206.487C170.035 215.587 168.935 226.287 166.135 236.587C173.335 238.587 183.535 234.487 184.335 240.287L184.435 240.087Z" fill="#312D6F"/>
<path d="M143.535 356.387C136.335 355.687 129.935 355.787 122.735 356.087C118.135 366.487 121.235 359.887 116.835 369.587C116.235 370.787 110.835 369.987 111.435 367.487C115.235 349.287 121.235 332.387 128.735 315.787C131.435 309.687 135.835 305.187 141.635 305.187C147.435 305.187 156.135 307.187 156.835 314.787C157.835 325.787 154.135 370.387 145.335 370.287C140.235 370.287 143.935 362.187 143.635 356.387H143.535ZM146.435 346.187C147.835 336.887 151.735 313.587 143.235 313.687C134.735 313.787 127.435 338.587 125.935 346.587C133.335 348.787 139.435 348.887 146.435 346.187Z" fill="#312D6F"/>
<path d="M68.9353 312.287C59.1353 309.587 50.0352 360.087 58.8352 362.387C62.6352 363.387 63.7353 357.787 66.6353 351.687C67.2353 350.487 71.3352 349.287 72.2352 351.287C75.1352 357.987 69.2353 367.087 62.6353 369.987C41.0353 379.587 44.8352 335.687 56.8352 311.787C60.0352 305.387 69.6353 300.487 75.4353 305.487C80.3353 309.687 78.6353 322.687 72.1353 323.987C65.1353 325.387 72.0353 313.087 68.9353 312.287Z" fill="#312D6F"/>
<path d="M157.835 293.787C136.435 296.187 131.235 299.287 108.735 300.687C103.535 321.887 99.6351 342.387 98.2351 363.987C98.0351 367.087 95.4351 368.587 93.8351 368.387C84.0351 367.787 99.6351 311.787 99.8351 301.687C90.6351 300.887 70.6351 299.487 70.1351 292.787C70.0351 291.287 71.9351 288.087 74.2351 288.987C117.135 305.387 156.035 276.287 157.835 293.787Z" fill="#312D6F"/>
<path d="M160.535 40.8865C156.135 49.0865 122.535 10.5865 73.2354 33.9865C69.3354 35.8865 66.1354 34.8865 64.1354 31.0865C62.2354 27.5865 64.3354 24.6865 69.0354 22.6865C99.4354 9.4865 134.135 14.7865 160.635 34.6865C162.535 36.0865 161.235 39.5865 160.635 40.7865L160.535 40.8865Z" fill="#312D6F"/>
<path d="M117.335 75.5864C116.735 79.5864 124.435 83.5864 122.635 89.1864C122.135 90.6864 120.535 92.2864 118.335 92.5864C114.035 92.9864 112.036 85.0864 108.936 83.6864C104.436 81.5864 96.8355 94.1864 91.6355 91.7864C82.9355 87.6864 98.8355 80.5864 101.135 76.6864C103.835 71.9864 94.0354 68.7864 94.8354 63.2864C95.1354 61.0864 96.8355 59.2864 99.0355 59.0864C104.036 58.3864 106.235 66.1864 109.835 67.4864C115.235 69.3864 122.436 54.2864 127.436 59.6864C132.536 65.2864 118.035 70.5864 117.335 75.5864Z" fill="#312D6F"/>
<path d="M144.935 56.3866C106.635 30.7866 82.3353 57.0866 78.3353 48.4866C73.9353 39.1866 115.935 26.1866 148.435 50.4866C149.635 51.3866 148.835 53.2866 149.335 53.5866C150.135 54.0866 146.835 57.5866 144.835 56.2866L144.935 56.3866Z" fill="#312D6F"/>
</svg>
