<svg width="315" height="248" viewBox="0 0 315 248" fill="none" xmlns="http://www.w3.org/2000/svg">
<circle cx="157.5" cy="120" r="120" fill="#23205B"/>
<circle cx="157.947" cy="120.447" r="100" fill="#6881BA"/>
<circle cx="157.503" cy="120.003" r="80" fill="#23205B"/>
<circle cx="157.94" cy="120.441" r="60" fill="#6881BA"/>
<circle cx="157.497" cy="119.997" r="40" fill="#23205B"/>
<circle cx="157.944" cy="120.444" r="20" fill="#6881BA"/>
<path d="M2.3954 135.228C-3.51719 142.422 5.72915 151.686 11.9861 155.785L12.3239 127.887C10.9981 128.523 6.95374 129.681 2.3954 135.228Z" fill="#CC9983"/>
<path d="M11.9873 155.786C5.73034 151.687 -3.51757 142.422 2.3954 135.228C7.25705 129.312 11.5341 128.388 12.5518 127.766M11.9861 155.786L12.3253 127.766" stroke="#091547"/>
<path fill-rule="evenodd" clip-rule="evenodd" d="M200.538 33.1951C198.661 33.1717 196.488 33.1445 194.999 33.2697L189.926 33.2978C187.648 33.1424 185.058 33.1445 182.764 33.1972C179.543 33.2714 176.308 33.2368 173.071 33.2022C167.363 33.1412 161.649 33.0801 155.992 33.6151C152.499 33.9455 150.562 36.9535 150.404 40.24C150.229 43.564 150.131 46.8913 150.109 50.2199C150.104 50.6181 150.101 51.0712 150.098 51.556C150.083 53.5635 150.064 56.1264 149.913 57.7043C150.244 58.4764 150.203 62.3959 150.173 65.3147C150.171 65.5363 150.169 65.7522 150.167 65.9606C150.157 66.9338 150.153 67.7414 150.17 68.1981C150.164 69.6907 150.166 71.1804 150.169 72.6619C150.172 74.6112 150.175 76.5582 150.158 78.5133C150.151 79.2999 150.141 80.0882 150.127 80.879L150.105 80.8056C149.897 80.1047 149.707 79.4629 149.507 78.8785C148.804 76.8232 147.974 75.4481 145.776 74.4689C145.453 74.3252 145.101 74.19 144.716 74.0625C142.759 73.8717 140.398 73.9239 138.472 74.4237C130.701 76.4403 122.986 79.6286 115.627 82.8336C115.055 83.0828 112.43 84.2411 112.113 84.4661C110.383 82.0153 108.678 81.3384 106.179 80.3463C105.891 80.2317 105.591 80.1129 105.28 79.9867C105.523 77.6912 105.567 75.4541 104.035 73.5329C101.737 70.6534 98.8078 70.6577 95.5708 70.6624L95.5586 70.6624C95.4321 70.6626 95.3024 70.6628 95.1752 70.6628C94.6724 70.1456 94.2761 69.5965 93.8809 69.0492C93.6036 68.665 93.3268 68.2816 93.0141 67.9105C89.392 63.6113 84.3385 64.5263 79.4609 65.4093C77.7521 65.7187 76.0649 66.0242 74.4684 66.1002C73.22 66.1596 71.9277 65.838 70.6229 65.5133C68.8834 65.0805 67.1217 64.6421 65.412 65.0934C62.6734 65.6551 60.5436 67.3273 58.414 68.9992C57.1311 70.0064 55.8484 71.0135 54.4327 71.7777C53.6101 72.2217 51.7849 72.6166 50.8729 72.7378C45.2976 73.4789 39.8222 76.2238 39.6977 82.5919C39.6834 83.3205 39.6888 84.0957 39.7021 84.8492C38.8348 85.9896 37.7422 86.7135 36.6307 87.4498C35.1186 88.4516 33.5716 89.4765 32.5096 91.6044C31.9066 92.7945 31.6618 94.1342 31.8052 95.4607C31.9261 96.6045 32.2995 97.589 32.6947 98.6313C32.755 98.7902 32.8158 98.9505 32.8763 99.113C32.9472 99.3034 33.0233 99.4863 33.0972 99.6639C33.4678 100.555 33.7837 101.314 33.1182 102.238C32.5706 102.926 31.8697 103.529 31.1582 104.142C30.5037 104.705 29.8401 105.276 29.2782 105.928C26.3631 109.311 26.5435 113.327 30.5285 115.822C30.7151 115.972 30.8925 116.107 31.0576 116.232C32.0966 117.02 32.649 117.439 31.9938 119.04C31.3724 119.367 30.7168 119.625 30.0798 119.875C29.443 120.125 28.825 120.368 28.2787 120.665C26.5233 121.343 24.7794 122.049 23.0473 122.784L22.5111 123.011C18.862 124.559 14.2155 126.529 10.8047 128.399V155.698C18.4661 162.55 27.0615 168.324 35.6935 173.859C35.9076 173.996 36.1274 174.135 36.3485 174.275C36.9976 174.685 37.6642 175.106 38.2693 175.538C38.3767 175.814 38.4876 176.1 38.6021 176.396C40.2898 180.759 42.7641 187.155 46.3428 189.841C47.2837 190.546 49.7301 191.607 51.6469 192.439C52.3466 192.742 52.9832 193.018 53.4416 193.232C60.0746 196.32 66.2209 198.248 73.3368 199.812C74.6393 202.071 75.9324 204.53 77.246 207.028C79.4665 211.251 81.7455 215.584 84.2273 219.253C86.5832 222.736 92.1866 240.332 92.6976 244.442L93.7241 244.687C94.4851 244.725 94.7543 244.769 95.5001 244.936C97.4364 245.612 109.552 246.812 111.634 246.784C111.751 246.791 111.87 246.797 111.99 246.803C112.121 246.81 112.254 246.817 112.389 246.824L113.047 246.86C118.055 247.128 124.764 247.487 129.323 247.152C131.009 247.026 132.757 246.972 134.52 246.917C136.279 246.863 138.054 246.808 139.797 246.68C148.358 246.116 156.857 244.844 165.207 242.877C167.74 242.295 173.256 240.858 175.617 239.763C175.748 239.716 175.878 239.67 176.007 239.625C176.755 239.362 177.469 239.111 178.158 238.692L179.011 238.374C178.388 237.272 177.41 234.725 176.587 232.581C176.177 231.515 175.805 230.548 175.535 229.908C172.84 223.53 170.482 217.076 168.133 210.581L167.744 209.507L167.663 209.283L167.388 208.522L262.656 208.374L292.502 208.365L293.163 208.365L293.759 208.365L294.46 208.364C297.1 208.361 299.737 208.359 302.415 208.423C302.541 208.427 302.668 208.431 302.796 208.436C305.458 208.53 308.271 208.63 309.864 206.035C311.024 204.144 310.931 201.547 310.848 199.209C310.831 198.74 310.814 198.28 310.809 197.84C310.788 195.595 310.783 193.35 310.797 191.106L310.76 66.1065L310.785 50.2441C310.792 49.4479 310.802 48.6477 310.812 47.8505L310.812 47.8305C310.841 45.4127 310.871 42.9885 310.849 40.58C310.83 38.2118 310.42 36.0708 308.346 34.6404C307.279 33.9048 306.501 33.5895 305.261 33.3346C303.827 33.1434 301.849 33.1519 300.181 33.1591C299.85 33.1605 299.532 33.1619 299.232 33.1617L289.274 33.2022L202.319 33.2117C201.786 33.2108 201.179 33.2032 200.538 33.1951ZM149.981 110.961H149.5L147 121.961L144.5 130.961L143.5 132.961L144 133.961L145 136.461L145.5 137.461V138.961L144 144.961L142 153.461L150 161.461V160.862C150.086 160.948 150.172 161.034 150.258 161.12L150.135 116.855C150.198 115.434 150.182 113.749 150.168 112.165C150.162 111.505 150.156 110.861 150.156 110.262C150.083 110.516 150.027 110.743 149.981 110.961ZM79.3278 151.936C75.7026 154.053 72.6466 153.702 69.3374 151.132C67.4619 152.607 66.956 152.777 64.6615 153.269C64.6348 153.276 64.6077 153.282 64.5805 153.288L64.5016 153.305L64.3885 153.329C64.0517 153.399 63.7025 153.473 63.4158 153.616C65.2008 154.28 67.0059 154.889 68.8186 155.5C70.5813 156.094 72.3511 156.69 74.1166 157.343C75.9879 156.148 77.832 154.911 79.6474 153.632L79.3278 151.936ZM57.1898 149.284C57.3567 149.447 57.5204 149.61 57.6825 149.77C58.6632 150.743 59.5836 151.656 60.7908 152.387L60.5066 152.844C59.9769 152.646 58.6216 152.336 57.6367 152.111C57.3202 152.038 57.0417 151.975 56.8415 151.926C56.9646 151.304 57.0459 150.57 57.1217 149.885C57.1445 149.679 57.1669 149.477 57.1898 149.284ZM119.542 109.989L119.5 109.961L119 108.461L121 102.461V101.961L123.5 101.461L126.5 99.9609L132 90.9609L132.5 90.4609L132.001 91.4141L127.057 100.851L127.029 100.906L127.008 100.944L127 100.961L126.943 101.103L126.89 101.236L125 105.961L124.5 107.461L123.5 109.961L123 111.961H122.5L119.542 109.989Z" fill="white"/>
<path fill-rule="evenodd" clip-rule="evenodd" d="M10.8047 155.698V128.399C14.2155 126.529 18.862 124.559 22.5111 123.011L23.0473 122.784C24.7794 122.049 26.5233 121.343 28.2787 120.665C28.825 120.368 29.443 120.125 30.0798 119.875C30.7168 119.625 31.3724 119.367 31.9938 119.04C32.649 117.439 32.0966 117.02 31.0576 116.232C30.8925 116.107 30.7151 115.972 30.5285 115.822C26.5435 113.327 26.3631 109.311 29.2782 105.928C29.8401 105.276 30.5037 104.705 31.1582 104.142C31.8697 103.529 32.5706 102.926 33.1182 102.238C33.7837 101.314 33.4678 100.555 33.0972 99.6639C33.0233 99.4863 32.9472 99.3034 32.8763 99.113C32.8158 98.9505 32.755 98.7902 32.6947 98.6313C32.2995 97.589 31.9261 96.6045 31.8052 95.4607C31.6618 94.1342 31.9066 92.7945 32.5096 91.6044C33.5716 89.4765 35.1186 88.4516 36.6307 87.4498C37.7422 86.7135 38.8348 85.9896 39.7021 84.8492C39.6888 84.0957 39.6834 83.3205 39.6977 82.5919C39.8222 76.2238 45.2976 73.4789 50.8729 72.7378C51.7849 72.6166 53.6101 72.2217 54.4327 71.7777C55.8484 71.0135 57.1311 70.0064 58.414 68.9992C60.5436 67.3273 62.6734 65.6551 65.412 65.0934C67.1217 64.6421 68.8834 65.0805 70.6229 65.5133C71.9277 65.838 73.22 66.1596 74.4684 66.1002C76.0649 66.0242 77.7521 65.7187 79.4609 65.4093C84.3385 64.5263 89.392 63.6113 93.0141 67.9105C93.3268 68.2816 93.6036 68.665 93.8809 69.0492C94.2761 69.5965 94.6724 70.1456 95.1752 70.6628C95.3024 70.6628 95.4321 70.6626 95.5586 70.6624L95.5708 70.6624C98.8078 70.6577 101.737 70.6534 104.035 73.5329C105.567 75.4541 105.523 77.6912 105.28 79.9867C105.591 80.1129 105.891 80.2317 106.179 80.3463C108.678 81.3384 110.383 82.0153 112.113 84.4661C111.642 84.695 111.567 84.7311 111.522 84.7088C111.518 84.7068 111.514 84.7042 111.51 84.7013C111.506 84.6984 111.502 84.695 111.498 84.6914C111.461 84.661 111.4 84.6105 111.146 84.6028C112.97 87.401 112.55 89.3278 111.992 91.8909C111.866 92.4706 111.733 93.0829 111.616 93.7451C111.848 95.4861 113.541 96.4449 115.322 97.4535C117.368 98.6123 119.531 99.8368 119.726 102.388C119.879 104.375 119.484 105.301 118.979 106.488C118.742 107.045 118.48 107.66 118.239 108.469C118.282 108.545 118.321 108.616 118.359 108.682C118.719 109.325 118.858 109.571 119.52 110.08L119.542 109.989L122.5 111.961H123L123.5 109.961L124.5 107.461L125 105.961L126.89 101.236C126.909 101.193 126.926 101.148 126.943 101.103C126.96 101.059 126.981 101.004 127 100.961C127.003 100.955 127.005 100.949 127.008 100.944C127.015 100.931 127.022 100.919 127.029 100.906C127.039 100.888 127.049 100.87 127.057 100.851L132.001 91.4141C132.113 91.2995 132.218 91.2104 132.315 91.1496C128.603 97.639 125.549 104.484 123.201 111.582C124.006 112.333 124.537 112.866 125.1 113.854C126.029 116.072 126.052 117.434 125.009 119.652C125.213 119.734 125.415 119.816 125.614 119.896L125.633 119.903C130.204 121.747 133.674 123.146 137.591 126.667C139.713 128.5 141.648 130.54 143.367 132.755C144.449 129.54 145.257 126.193 146.06 122.866C146.404 121.439 146.748 120.014 147.112 118.605C147.497 117.116 147.799 115.622 148.1 114.129C148.356 112.859 148.612 111.59 148.919 110.327L149.124 110.535C148.744 113.086 144.639 131.084 143.557 132.767L143.326 132.896C142.737 132.633 141.913 131.606 141.359 130.916C141.251 130.783 141.154 130.662 141.071 130.561C139.787 129.013 138.829 127.92 137.099 126.87C137.076 127.118 137.359 127.394 137.659 127.689C137.96 127.983 138.278 128.295 138.329 128.613C138.607 128.936 138.983 129.344 139.416 129.815C141.764 132.37 145.806 136.767 145.262 139.267C144.644 141.109 144.17 143.116 143.681 145.184C143.141 147.465 142.584 149.821 141.797 152.113L141.772 152.013C141.748 151.923 141.722 151.821 141.693 151.711L141.667 151.611C141.471 150.864 141.193 149.806 141.134 149.312C141.01 148.925 140.92 148.529 140.865 148.128C140.756 147.321 140.738 147.318 140.139 147.23C140.101 147.225 140.06 147.219 140.017 147.212L139.95 147.202C139.879 149.132 140.267 151.26 140.768 153.122C141.65 154.405 142.923 155.557 144.166 156.68C144.776 157.231 145.378 157.776 145.922 158.326C146.475 158.883 147.022 159.43 147.56 159.967C153.712 166.117 158.778 171.18 160.34 180.382C160.69 182.621 160.87 184.759 161.052 186.912C161.272 189.52 161.494 192.151 162.021 195.013C160.558 195.377 160.373 195.622 160.094 195.992C159.911 196.234 159.688 196.529 159.037 196.947L158.805 197.241C161.322 205.491 164.633 213.371 167.956 221.28C168.98 223.718 170.009 226.168 171.013 228.623C171.403 229.578 171.943 230.771 172.521 232.048L172.526 232.059C173.743 234.749 175.126 237.805 175.617 239.763C173.256 240.858 167.74 242.295 165.207 242.877C156.857 244.844 148.358 246.116 139.797 246.68C138.054 246.808 136.279 246.863 134.52 246.917C132.757 246.972 131.009 247.026 129.323 247.152C124.764 247.487 118.055 247.128 113.047 246.86L112.389 246.824C112.132 246.811 111.879 246.797 111.634 246.784C109.552 246.812 97.4364 245.612 95.5001 244.936C94.7543 244.769 94.4851 244.725 93.7241 244.687L92.6976 244.442C92.1866 240.332 86.5832 222.736 84.2273 219.253C81.7455 215.584 79.4665 211.251 77.246 207.028C75.9324 204.53 74.6393 202.071 73.3368 199.812C66.2209 198.248 60.0746 196.32 53.4416 193.232C52.9832 193.018 52.3466 192.742 51.6469 192.439C49.7301 191.607 47.2837 190.546 46.3428 189.841C42.7641 187.155 40.2898 180.759 38.6021 176.396C38.4876 176.1 38.3767 175.814 38.2693 175.538C37.6642 175.106 36.9976 174.685 36.3485 174.275C36.1274 174.135 35.9076 173.996 35.6935 173.859C27.0615 168.324 18.4661 162.55 10.8047 155.698ZM79.3278 151.936C75.7026 154.053 72.6466 153.702 69.3374 151.132C67.4619 152.607 66.956 152.777 64.6615 153.269C64.6348 153.276 64.6077 153.282 64.5805 153.288L64.5016 153.305L64.3885 153.329C64.0517 153.399 63.7025 153.473 63.4158 153.616C65.2008 154.28 67.0059 154.889 68.8186 155.5C70.5813 156.094 72.3511 156.69 74.1166 157.343C75.9879 156.148 77.832 154.911 79.6474 153.632L79.3278 151.936ZM57.1898 149.284C57.3567 149.447 57.5204 149.61 57.6825 149.77C58.6632 150.743 59.5836 151.656 60.7908 152.387L60.5066 152.844C59.9769 152.646 58.6216 152.336 57.6367 152.111C57.3202 152.038 57.0417 151.975 56.8415 151.926C56.9646 151.304 57.0459 150.57 57.1217 149.885C57.1445 149.679 57.1669 149.477 57.1898 149.284Z" fill="#070A20"/>
<path fill-rule="evenodd" clip-rule="evenodd" d="M31.9938 119.04C32.1339 119.125 32.2364 119.18 32.3148 119.222C32.5634 119.356 32.5694 119.359 32.7672 119.757C32.752 119.797 32.7367 119.837 32.7211 119.878C32.1873 121.274 31.4683 123.154 32.1003 124.584C32.5051 125.479 33.2994 126.015 34.0962 126.553C34.6407 126.921 35.1864 127.29 35.6098 127.774C36.4201 128.702 36.8924 129.719 36.4177 130.95C36.0783 131.83 35.5375 132.622 34.9969 133.413C34.262 134.488 33.5276 135.563 33.3005 136.86C33.1292 137.838 33.1327 138.865 33.5664 139.76C34.0738 140.807 35.1714 141.855 36.3089 142.19C37.7585 142.617 38.9079 142.257 40.2488 141.837C40.3398 141.809 40.4318 141.78 40.5248 141.751C40.5474 141.78 40.57 141.81 40.5927 141.839L40.6126 141.864C40.7915 142.229 40.8964 142.643 41.0024 143.062C41.0885 143.402 41.1753 143.745 41.3029 144.067C42.2667 146.499 44.3314 147.458 46.524 148.476C46.6018 148.512 46.6798 148.548 46.758 148.585C49.0538 149.867 52.9206 151.4 55.475 151.244C56.1381 150.874 56.0953 150.141 56.0516 149.394C56.0203 148.858 55.9886 148.315 56.2165 147.893C57.0067 147.596 57.8173 148.389 58.8197 149.37C60.91 151.415 63.8339 154.275 69.1446 149.761C72.4814 152.197 75.3949 153.55 79.0481 150.587C77.8324 144.663 75.9524 137.49 73.1316 132.136C73.1051 132.085 72.2522 131.304 71.2209 130.36C69.8331 129.09 68.1222 127.524 67.6667 127.042C66.5581 127.405 65.5468 127.621 64.3716 127.512C59.3748 127.05 55.2542 122.752 53.7166 118.169C52.6017 114.845 53.3373 110.635 57.29 109.834C57.9801 109.694 58.6876 109.708 59.3889 109.722C59.4788 109.724 59.5687 109.726 59.6585 109.727C61.5727 110.039 62.3485 110.434 64.0095 111.278C64.0915 111.32 64.1757 111.363 64.2622 111.407C65.3315 109.892 65.4399 109.034 65.5455 108.198C65.6065 107.715 65.6666 107.239 65.9103 106.649C66.1155 106.556 66.166 106.513 66.2198 106.508C66.2731 106.504 66.3296 106.536 66.5426 106.592C66.6008 106.715 66.6585 106.84 66.7164 106.964C66.9113 107.385 67.1082 107.81 67.3323 108.21C68.6325 110.534 71.4272 111.161 73.6332 109.662C74.7203 108.921 75.4443 107.755 75.6271 106.452C75.8866 104.673 75.1259 103.62 74.1834 102.315C74.1202 102.228 74.0562 102.139 73.9916 102.049C74.2962 101.937 74.5873 101.833 74.8654 101.733C77.8151 100.677 79.3011 100.145 79.7558 96.1734C79.6865 95.4596 79.6389 95.0759 79.4202 94.3929C79.3839 94.2375 79.1655 93.8731 78.8984 93.4275C78.2421 92.3327 77.2919 90.7474 78.0266 90.5663C83.577 89.1977 86.5723 84.8054 84.3096 79.1854C84.2173 78.9561 84.0812 78.717 83.941 78.4708C83.6455 77.9516 83.3318 77.4006 83.3723 76.842C83.5307 76.6405 83.5605 76.5709 83.6132 76.538C83.6663 76.5048 83.7426 76.5089 83.9971 76.4529C84.3965 76.7096 84.8124 77.1304 85.236 77.5592C85.7023 78.0311 86.1781 78.5126 86.6517 78.7952C90.0967 80.8505 92.8303 81.0374 96.5769 80.3949C96.845 80.8618 96.9645 80.9125 97.245 81.0316C97.394 81.0949 97.5885 81.1774 97.8749 81.352C100.172 83.3059 101.635 84.6008 103.644 86.9321C103.675 86.9156 103.706 86.8992 103.737 86.883C104.737 86.3551 105.491 85.9572 106.742 86.2623C107.962 86.5595 108.876 87.9405 109.454 89.0323C109.829 89.7424 110.049 90.5878 110.265 91.4195C110.433 92.0649 110.598 92.7019 110.833 93.2609C110.877 93.3682 111.467 93.6698 111.616 93.7451C111.733 93.0829 111.866 92.4706 111.992 91.8909C112.55 89.3278 112.97 87.401 111.146 84.6028C111.462 84.6124 111.479 84.6874 111.522 84.7088C111.567 84.7311 111.642 84.695 112.113 84.4661C110.383 82.0153 108.678 81.3384 106.179 80.3463C105.891 80.2317 105.591 80.1129 105.28 79.9867C105.523 77.6912 105.567 75.4541 104.035 73.5329C101.737 70.6534 98.8078 70.6577 95.5708 70.6624C95.4405 70.6626 95.3065 70.6628 95.1752 70.6628C94.6724 70.1456 94.2761 69.5965 93.8809 69.0492C93.6036 68.665 93.3268 68.2816 93.0141 67.9105C89.392 63.6113 84.3385 64.5263 79.4609 65.4093C77.7521 65.7187 76.0649 66.0242 74.4684 66.1002C73.22 66.1596 71.9277 65.838 70.6229 65.5133C68.8834 65.0805 67.1217 64.6421 65.412 65.0934C62.6734 65.6551 60.5436 67.3273 58.414 68.9992C57.1311 70.0064 55.8484 71.0135 54.4327 71.7777C53.6101 72.2217 51.7849 72.6166 50.8729 72.7378C45.2976 73.4789 39.8222 76.2238 39.6977 82.5919C39.6834 83.3205 39.6888 84.0957 39.7021 84.8492C38.8348 85.9896 37.7422 86.7135 36.6307 87.4498C35.1186 88.4516 33.5716 89.4765 32.5096 91.6044C31.9066 92.7945 31.6618 94.1342 31.8052 95.4607C31.9261 96.6045 32.2995 97.589 32.6947 98.6313C32.755 98.7902 32.8158 98.9505 32.8763 99.113C32.9472 99.3034 33.0233 99.4863 33.0972 99.6639C33.4678 100.555 33.7837 101.314 33.1182 102.238C32.5706 102.926 31.8697 103.529 31.1582 104.142C30.5037 104.705 29.8401 105.276 29.2782 105.928C26.3631 109.311 26.5435 113.327 30.5285 115.822C30.7151 115.972 30.8925 116.107 31.0576 116.232C32.0966 117.02 32.649 117.439 31.9938 119.04Z" fill="white"/>
<path fill-rule="evenodd" clip-rule="evenodd" d="M190.954 237.82C190.966 237.832 190.981 237.847 190.994 237.86C190.98 237.847 190.967 237.833 190.954 237.82Z" fill="white"/>
<path fill-rule="evenodd" clip-rule="evenodd" d="M190.954 237.82C190.94 237.806 190.927 237.793 190.914 237.779C190.92 237.785 190.925 237.791 190.931 237.797L190.954 237.82ZM167.663 209.283C167.82 209.715 167.976 210.148 168.133 210.581C168.003 210.223 167.874 209.865 167.744 209.507L167.663 209.283Z" fill="#C1D6FC"/>
<path fill-rule="evenodd" clip-rule="evenodd" d="M149.417 62.0275L149.483 61.3778L150.184 64.1814C150.181 64.5569 150.177 64.9254 150.173 65.2796L150.173 65.3147C150.171 65.5363 150.169 65.7522 150.167 65.9606L149.5 61.9609L149.417 62.0275ZM145.192 73.7788C145.079 73.7284 144.97 73.6761 144.87 73.6252L144.716 74.0625C145.101 74.19 145.453 74.3252 145.776 74.4689L145.192 73.7788ZM149.507 78.8785C149.707 79.4629 149.897 80.1047 150.105 80.8056L150.127 80.879C150.141 80.0882 150.151 79.2999 150.158 78.5133L150 79.4609L149.507 78.8785ZM150.17 73.3928C150.169 73.1492 150.169 72.9056 150.169 72.6619C150.169 72.9037 150.169 73.1512 150.17 73.3928Z" fill="#D6E4FD"/>
<path fill-rule="evenodd" clip-rule="evenodd" d="M149.507 78.8785L145.776 74.4689C147.974 75.4481 148.804 76.8232 149.507 78.8785ZM150.158 78.5133L150.5 76.4609V67.9609L150.167 65.9606C150.157 66.9338 150.153 67.7414 150.17 68.1981C150.164 69.6907 150.166 71.1804 150.169 72.6619C150.172 74.6099 150.175 76.5595 150.158 78.5133Z" fill="#FF0000"/>
<path d="M46.3614 98.3281C48.6901 102.592 55.3928 105.912 59.9142 103.235C61.3908 102.361 62.5597 100.783 63.6049 99.4357C63.3655 102.073 59.3844 105.39 59.6569 109.573C58.868 109.56 58.0671 109.522 57.2884 109.679C53.3357 110.48 52.6001 114.69 53.7151 118.014C55.2526 122.598 59.3732 126.895 64.37 127.358C65.5452 127.466 66.5565 127.251 67.6651 126.887C68.459 127.727 73.0678 131.862 73.13 131.981C75.9509 137.335 77.8308 144.509 79.0465 150.432C75.3933 153.395 72.4798 152.043 69.143 149.607C61.2858 156.285 58.6531 146.821 56.2149 147.739C55.6693 148.748 56.612 150.455 55.4734 151.089C52.9191 151.246 49.0522 149.712 46.7564 148.43C50.6663 147.571 48.5346 145.111 47.0626 143.055C45.3652 140.682 44.8844 138.691 45.4194 135.849C45.8495 136.922 46.2147 137.891 46.8603 138.862C49.5262 142.849 55.1452 144.335 59.2416 141.619C61.6182 140.043 61.8362 137.476 60.2098 135.221C58.3449 132.629 56.3865 136.612 54.2523 136.029C51.3552 135.238 51.9139 133.037 52.6277 130.831C52.7426 130.476 52.5543 130.232 52.3565 129.976C49.743 128.822 45.9463 131.338 43.5599 128.142C41.1439 124.908 42.0127 120.609 45.8492 118.996C46.8798 118.562 48.8041 117.769 47.3807 116.232C45.2356 114.613 44.3005 115.424 43.9587 112.514C43.4772 108.415 51.2683 107.779 49.708 104.127C48.7571 101.901 46.374 101.644 46.3608 98.5336L46.3614 98.3281Z" fill="#D6E4FD"/>
<path d="M46.364 98.3292C45.121 93.4897 47.4246 90.2348 49.7931 86.1592C51.5597 83.1193 53.7347 79.0373 57.326 78.1862C61.7779 77.1286 68.3007 80.7247 69.3951 85.2085C70.6504 90.3511 65.224 95.0956 63.6075 99.4368C62.5624 100.784 61.3935 102.362 59.9168 103.237C55.3955 105.914 48.6927 102.593 46.364 98.3292Z" fill="#091547"/>
<path d="M47.346 97.711C45.1564 93.0537 51.3058 85.1345 53.7802 81.3647C57.2616 76.0606 64.7909 79.2186 67.7201 83.4543C69.9753 86.7647 67.8522 90.2033 66.0362 93.145C64.6245 95.432 63.2599 98.1962 61.6149 100.292C60.9995 101.088 60.2592 101.781 59.4228 102.342C55.7093 104.795 48.8299 101.534 47.346 97.711Z" fill="#C1D6FC"/>
<path d="M67.7155 83.4531C69.9707 86.7634 67.8476 90.2021 66.0316 93.1438C64.6199 95.4308 63.2553 98.195 61.6102 100.29C60.9948 101.087 60.2546 101.78 59.4182 102.34C55.7047 104.794 48.8253 101.533 47.3414 97.7098C47.585 97.2988 47.2209 96.9791 47.1562 96.382C47.7855 96.7761 48.1273 97.7425 48.6684 98.4115C49.978 100.018 53.034 101.797 55.1184 101.941C58.9612 102.206 61.514 98.198 63.1509 95.3523C64.7273 92.6119 66.3832 90.1738 67.3906 87.1782C67.7379 86.1452 67.6601 84.5134 67.7155 83.4531Z" fill="#84A8EF"/>
<path d="M59.1325 81.8281C61.6317 81.9732 64.2102 83.1271 65.4907 84.8096C65.6094 86.9252 64.5751 88.0808 63.1623 89.834C61.8075 91.5154 60.8671 93.4046 58.1324 93.8281C56.5374 93.6058 51.5894 91.7075 51.5 90.3294C51.4992 88.0785 53.9686 85.7032 55.4061 83.8155C56.2478 82.7103 57.5727 82.0338 59.1325 81.8281Z" fill="#091547"/>
<path d="M58.7713 82.4766C60.3279 82.5021 61.4354 83.0975 62.7799 83.6809C66.4584 85.2212 63.2666 88.0586 61.9166 89.9687C61.0315 91.2212 60.0243 92.8614 58.1192 93.1701C56.8215 92.7703 53.1826 91.3733 52.5407 90.475C51.7465 89.3638 54.6603 86.1969 55.426 85.1338C56.2075 84.0487 57.2851 82.9523 58.7713 82.4766Z" fill="#F8FAFE"/>
<path d="M39.7033 84.6887C39.69 83.9351 39.6846 83.1599 39.6989 82.4314C39.8233 76.0632 45.2987 73.3183 50.874 72.5773C51.7861 72.456 53.6113 72.0611 54.4338 71.6172C58.1996 69.5843 61.0248 65.8329 65.4131 64.9328C68.4054 64.143 71.5568 66.0782 74.4696 65.9396C80.6231 65.6467 88.1242 61.9446 93.0153 67.7499C93.7733 68.6497 94.3206 69.6219 95.1763 70.5022C98.5701 70.5022 101.645 70.376 104.036 73.3724C105.569 75.2936 105.524 77.5307 105.281 79.8261C108.286 81.0454 110.184 81.5715 112.114 84.3056C111.189 84.7544 111.792 84.4618 111.147 84.4422C108.376 81.4449 107.574 81.9483 104.448 80.4451C104.598 77.7841 104.7 75.5668 102.798 73.4402C101.729 72.2454 99.339 71.2154 97.8416 71.3079C94.278 71.5278 94.3466 71.1277 92.2538 68.3293C90.8585 66.4635 87.5268 65.2462 85.2002 65.2326C81.6112 65.1763 78.1845 66.7159 74.572 66.7873C71.516 66.8477 68.4937 65.1722 65.5105 65.7912C61.357 66.6528 58.6837 70.274 55.1533 72.2478C54.21 72.7755 52.268 73.0788 51.1809 73.2404C46.1609 73.9872 40.4428 76.6233 40.5434 82.5523C40.566 83.8809 40.7438 85.1319 39.6109 86.1587C36.6658 88.6692 32.8913 89.6186 32.5463 94.2668C32.1976 97.6603 36.2623 100.647 33.0284 103.527C30.9697 105.361 28.3272 107.327 28.1896 110.288C28.0762 112.73 30.4192 114.517 32.1613 115.771C33.4696 117.161 33.5114 117.865 32.7684 119.597C32.5082 119.074 32.5798 119.233 31.995 118.88C32.7542 117.024 31.8918 116.756 30.5296 115.661C26.5447 113.166 26.3642 109.151 29.2794 105.767C30.4522 104.406 32.068 103.399 33.1194 102.078C33.9175 100.969 33.3039 100.098 32.8774 98.9524C32.4204 97.7251 31.9457 96.6184 31.8063 95.3001C31.6629 93.9736 31.9077 92.634 32.5108 91.4438C34.3533 87.7518 37.6561 87.3803 39.7033 84.6887Z" fill="#091547"/>
<path d="M96.5 80.416C97.2817 80.1358 97.5502 79.927 98.2965 80.2195L98.5 80.6232C98.4293 81.4463 98.3429 81.4691 97.9745 82.0781C97.037 81.2046 96.9663 81.6577 96.5 80.416Z" fill="#070A20"/>
<path d="M127.049 129.751C128.863 125.795 126.379 123.644 127.389 121.617C130.559 122.856 132.896 124.239 135.648 126.3C136.489 126.93 137.554 127.913 138.327 128.459C140.115 130.529 145.904 136.151 145.26 139.112C143.96 142.987 143.296 147.589 141.795 151.958C141.627 151.294 141.206 149.778 141.132 149.158C141.008 148.77 140.918 148.374 140.863 147.973C140.743 147.089 140.733 147.171 139.948 147.047C139.876 148.977 140.265 151.105 140.766 152.967C142.08 154.879 144.265 156.5 145.92 158.171C152.799 165.11 158.639 170.22 160.338 180.227C160.236 180.467 160.31 180.338 160.081 180.592C159.653 180.497 157.76 179.493 157.005 179.185L156.862 179.298C154.336 178.841 152.17 179.142 149.856 180.242C143.581 183.223 137.067 186.881 131.362 190.808C128.154 193.035 125.071 195.435 122.126 198C120.147 199.746 118.431 201.551 116.302 203.131C114.782 204.26 113.922 204.364 112.578 205.105C107.545 206.846 101.968 205.182 97.2459 203.314C96.6882 205.667 95.953 209.96 95.7137 212.407C94.9225 211.318 93.979 210.195 93.0814 209.183C87.9082 203.351 82.7405 196.786 77.1318 191.396C70.894 190.711 65.6188 188.989 59.8273 186.611C58.0777 185.893 56.3011 184.942 54.6208 184.282L54.4533 184.218C55.9945 180.599 56.7304 177.113 57.0203 173.169C57.4546 167.259 57.0158 156.374 53.125 151.853C55.3234 152.277 57.9371 153.142 60.1361 153.731C68.5859 155.994 76.3683 159.138 84.2547 162.918C84.0491 162.128 82.2952 160.988 81.573 160.519C82.7115 160.117 83.3076 160.382 84.4677 160.678C84.1301 160.415 83.5595 160.057 83.189 159.807C85.231 160.09 87.2065 160.543 89.2304 160.885C97.7375 162.324 112.097 160.922 115.426 151.28L115.622 151.447C115.928 151.074 116.185 150.186 116.368 149.683C115.901 147.443 115.573 147.151 114.166 145.465C113.739 144.992 113.589 144.964 112.996 144.677C114.029 143.662 120.148 143.626 121.625 143.912C120.739 142.177 119.867 141.264 118.337 140.083C119.204 138.662 120.02 137.213 121.168 136.018C123.604 133.483 125.447 133.055 127.049 129.751Z" fill="#72C3E0"/>
<path d="M157.009 179.183C156.964 178.139 156.321 176.201 155.938 175.221C154.907 172.532 153.448 170.029 151.619 167.805C145.376 160.22 137.336 154.75 130.542 147.725C130.127 147.297 129.347 146.642 129.273 146.05L129.512 145.883C131.408 146.038 136.28 149.739 138.502 150.875L138.749 151L139.091 151.222C139.557 152.085 139.962 152.403 140.771 152.966C142.085 154.878 144.27 156.499 145.925 158.17C152.803 165.108 158.643 170.218 160.343 180.226C160.24 180.465 160.315 180.337 160.086 180.59C159.657 180.495 157.765 179.492 157.009 179.183Z" fill="#72C3E0"/>
<path d="M140.859 139.754C141.098 138.175 141.845 136.808 141.939 134.852C142.765 136.066 144.096 138.515 145.263 139.11C143.963 142.985 143.299 147.587 141.798 151.956C141.629 151.292 141.209 149.776 141.135 149.155C141.17 148.905 141.169 148.991 141.164 148.755C141.123 146.656 141.729 144.109 141.454 142.03C141.684 141.266 141.853 139.951 140.859 139.754Z" fill="#449BBA"/>
<path d="M140.858 139.75C141.852 139.947 141.682 141.263 141.453 142.026C141.728 144.105 141.121 146.653 141.163 148.751C141.168 148.988 141.169 148.902 141.134 149.152C141.01 148.765 140.92 148.369 140.865 147.968C140.745 147.084 140.735 147.165 139.95 147.041C139.878 148.971 140.266 151.1 140.768 152.962C139.959 152.398 139.554 152.08 139.088 151.217L138.746 150.996C138.251 146.93 138.778 146.44 140.077 142.591C140.302 141.641 140.589 140.69 140.858 139.75Z" fill="#449BBA"/>
<path d="M140.077 142.594C140.343 143.15 140.403 143.278 140.555 143.868L140.431 145.492C140.021 146.678 139.901 146.729 139.022 147.607C138.904 149.109 138.929 149.716 139.088 151.22L138.746 150.998C138.251 146.932 138.778 146.443 140.077 142.594Z" fill="#449BBA"/>
<path d="M81.5781 160.517C82.7166 160.115 83.3127 160.38 84.4728 160.675C86.0213 161.671 88.461 163.114 89.3681 164.684L89.383 165.056C88.203 165.826 85.2262 163.816 84.3497 163.001L84.2598 162.915C84.0542 162.126 82.3003 160.986 81.5781 160.517Z" fill="#449BBA"/>
<path d="M128.367 216.98C129.748 215.457 131.065 213.848 132.502 212.399C136.859 208.012 142.283 205.338 147.948 203.035C150.752 201.896 154.1 200.509 156.725 198.966C156.927 198.849 158.486 197.368 158.805 197.086C162.099 207.883 166.753 218.047 171.013 228.469C172.224 231.435 174.892 236.72 175.617 239.609C173.256 240.704 167.74 242.141 165.207 242.723C156.857 244.69 148.358 245.962 139.797 246.527C136.307 246.781 132.692 246.747 129.323 246.998C126.019 236.673 123.283 235.298 125.043 223.535C126.138 221.055 126.98 219.305 128.367 216.98Z" fill="#72C3E0"/>
<path d="M112.585 205.106C113.929 204.365 114.789 204.261 116.308 203.133C118.437 201.552 120.154 199.748 122.133 198.002C125.077 195.436 128.16 193.036 131.369 190.81C137.073 186.882 143.588 183.225 149.862 180.243C152.176 179.144 154.343 178.842 156.869 179.299L157.011 179.186C157.767 179.495 159.659 180.498 160.088 180.593C160.317 180.34 160.242 180.468 160.345 180.228C161.118 185.18 161.063 189.635 162.026 194.859C159.603 195.463 160.684 195.739 159.042 196.794L158.809 197.087C158.49 197.369 156.932 198.85 156.73 198.967C154.104 200.51 150.757 201.897 147.953 203.036C142.287 205.34 136.863 208.014 132.507 212.401C131.069 213.85 129.752 215.459 128.371 216.982C126.984 219.306 126.143 221.057 125.048 223.536C123.287 235.299 126.023 236.674 129.328 247C124.324 247.367 116.731 246.899 111.638 246.632C111.76 245.883 111.825 244.916 111.87 244.146C112.256 237.498 112.846 230.862 113.169 224.213C110.305 228.967 107.302 233.637 104.164 238.215C105.202 234.784 106.564 231.106 107.658 227.643C109.107 223.05 110.313 218.383 111.27 213.663C111.921 210.516 112.383 208.32 112.585 205.106Z" fill="#449BBA"/>
<path d="M156.867 179.293L157.01 179.18C157.765 179.489 159.658 180.492 160.086 180.587C160.315 180.334 160.241 180.462 160.343 180.222C161.116 185.174 161.061 189.629 162.024 194.853C159.601 195.457 160.682 195.733 159.04 196.787C158.056 190.456 158.719 185.71 156.867 179.293Z" fill="#449BBA"/>
<path d="M54.4587 184.211L54.6262 184.276C56.3065 184.936 58.0831 185.886 59.8327 186.605C65.6242 188.982 70.8994 190.704 77.1372 191.389C82.746 196.779 87.9136 203.345 93.0868 209.176C93.9844 210.189 94.9279 211.311 95.7191 212.4C95.9585 209.954 96.6936 205.66 97.2513 203.307C101.974 205.175 107.551 206.84 112.583 205.098C112.382 208.311 111.92 210.508 111.269 213.655C110.311 218.375 109.106 223.042 107.656 227.635C106.563 231.098 105.201 234.776 104.163 238.207C107.301 233.629 110.304 228.959 113.167 224.205C112.844 230.854 112.255 237.49 111.869 244.138C111.824 244.908 111.759 245.875 111.637 246.624C109.555 246.651 97.4396 245.452 95.5033 244.776C94.7575 244.608 94.4883 244.565 93.7274 244.527C92.5939 239.181 90.9985 234.042 89.1903 228.906C87.6632 224.782 86.3895 219.747 83.7298 216.196C80.4023 211.752 78.3936 207.162 75.9159 202.216C75.7327 201.983 75.1833 200.838 75.0155 200.506L74.9268 200.207C77.205 199.193 77.6917 199.405 79.692 197.374C78.4436 197.789 76.7208 198.747 75.3501 199.322C74.4757 198.852 73.9143 198.697 72.9474 198.501C70.2792 197.959 67.5937 197.396 65.0543 196.4C65.1407 196.181 65.1074 196.312 65.1141 195.999C63.1992 194.77 58.2961 193.196 56.024 192.155C54.0953 191.27 51.6843 190.077 49.6797 189.571C51.6536 188.934 53.5489 185.96 54.4587 184.211Z" fill="#449BBA"/>
<path d="M75.9141 202.218C76.2499 201.941 76.2574 201.981 76.7021 201.938C77.8231 203.04 80.4226 208.385 81.3672 210.185C82.7786 212.874 85.4692 215.883 86.6117 218.224C89.8182 224.794 92.2332 232.834 94.2645 239.878C94.5667 240.926 95.3891 243.863 95.5015 244.777C94.7556 244.61 94.4864 244.566 93.7255 244.528C92.592 239.182 90.9967 234.043 89.1885 228.908C87.6614 224.783 86.3876 219.749 83.728 216.198C80.4005 211.754 78.3918 207.163 75.9141 202.218Z" fill="#72C3E0"/>
<path d="M75.0156 200.511C75.4623 200.34 75.4301 200.352 75.896 200.475C76.3379 200.914 76.4632 201.362 76.7041 201.94C76.2594 201.984 76.2518 201.943 75.916 202.221C75.7329 201.987 75.1834 200.842 75.0156 200.511Z" fill="#9CBCF8"/>
<path d="M28.2787 120.51L28.3394 120.734C29.3112 120.403 30.5646 119.658 31.2636 119.976L31.2445 120.175C30.7714 120.317 30.3011 120.468 29.8337 120.627L29.7624 120.807L29.8053 120.898L31.4048 120.393C28.6158 127.927 37.0723 126.437 35.3475 130.884C34.1042 134.09 31.048 134.468 32.5637 139.728L31.0495 140.311C28.8971 139.501 28.0526 139.118 25.789 138.734C28.0479 140.153 31.0024 141.412 33.4263 142.658C38.1568 145.088 42.855 147.581 47.5195 150.135C49.0586 150.986 51.6037 152.146 52.8129 153.175L51.9758 153.306C51.665 153.743 51.9395 154.614 52.0811 155.145C52.5845 157.032 52.8534 158.889 53.0166 160.834C53.3403 164.418 53.0906 168.029 52.2768 171.534C37.7883 167.554 21.4614 159.54 10.8047 148.793V130.591V129.368V128.244C14.385 126.281 19.3267 124.208 23.0473 122.629C24.7794 121.894 26.5234 121.188 28.2787 120.51Z" fill="#CC9983"/>
<path d="M28.2787 120.51L28.3394 120.734C29.3112 120.403 30.5646 119.658 31.2636 119.976L31.2445 120.175C30.7714 120.317 30.3011 120.468 29.8337 120.627L29.7624 120.807L29.8053 120.898C29.3807 121.104 28.9546 121.307 28.5273 121.507C23.6035 123.339 15.2055 126.902 10.8047 129.368V128.244C14.385 126.281 19.3267 124.208 23.0473 122.629C24.7794 121.894 26.5234 121.188 28.2787 120.51Z" fill="#091547"/>
<path d="M28.5268 121.503C29.6059 121.741 30.1777 120.914 30.9126 120.93L30.8046 121.164C30.0147 121.34 27.7164 122.507 26.9337 122.921C21.9766 125.544 15.4381 127.51 10.8042 130.587L7.64062 130.929C11.4068 128.067 23.603 123.335 28.5268 121.503Z" fill="#D5976F"/>
<path d="M10.8083 148.703C21.465 159.45 37.7919 167.549 52.2804 171.53C53.0942 168.024 53.344 164.413 53.0202 160.829C52.8571 158.884 52.5882 157.027 52.0847 155.141C51.9431 154.609 51.6686 153.738 51.9794 153.301L52.8165 153.17C54.4123 154.457 55.4993 161.933 55.77 164.158C56.4125 169.437 56.0499 177.827 53.8025 182.718C51.8495 182.006 47.3651 179.464 45.3661 178.309C33.774 171.606 14.5745 159.248 5.23438 149.456L10.8083 148.703Z" fill="#B8796E"/>
<path d="M103.648 86.7759C104.696 86.2241 105.457 85.7916 106.747 86.1061C107.967 86.4034 108.881 87.7843 109.458 88.8761C110.125 90.1373 110.301 91.8255 110.837 93.1047C110.882 93.212 111.471 93.5136 111.621 93.5889C112.118 97.3299 119.365 97.4593 119.731 102.232C119.955 105.153 118.998 105.781 118.243 108.313C118.701 109.121 118.794 109.363 119.525 109.924C121.59 111.621 123.741 112.418 124.608 115.073C125.245 118.41 123.665 119.644 121.451 121.689C123.613 123.877 125.778 126.913 122.682 129.687C120.937 131.25 118.66 130.946 116.499 130.724C116.377 132.293 116.127 133.754 115.432 135.095C113.107 139.584 109.024 136.759 107.729 137.198C107.081 138.18 108.687 139.381 105.581 141.954C104.657 140 104.427 138.712 103.968 136.618C107.093 135.34 109.664 134.076 112.42 132.11C114.903 130.339 115.582 128.231 115.915 125.266C116.562 119.49 117.231 110.868 114.099 105.834C112.976 103.824 110.867 101.938 110.029 99.8018C108.119 94.9324 106.863 91.019 103.648 86.7759Z" fill="#D6E4FD"/>
<path d="M124.185 120.578C125.349 120.907 126.255 121.2 127.39 121.614C126.38 123.641 128.864 125.792 127.05 129.748C125.449 133.052 123.605 133.48 121.169 136.015C120.022 137.21 119.206 138.659 118.339 140.08C119.868 141.261 120.74 142.174 121.627 143.909C120.149 143.623 114.03 143.659 112.998 144.675C110.897 144.208 109.179 144.108 107.042 144.012C106.654 143.994 106.556 143.878 106.32 143.635C106.375 142.999 107.851 141.237 108.204 140.44C108.582 139.587 108.644 139.31 108.865 138.409C114.273 139.886 116.64 136.76 117.439 131.812C120.632 131.986 123.904 131.638 125.072 127.935C125.614 126.217 124.967 124.508 124.103 123.004C123.735 122.567 123.333 122.136 122.948 121.711L124.185 120.578Z" fill="#449BBA"/>
<path d="M124.191 120.578C125.354 120.907 126.26 121.2 127.395 121.614C126.386 123.641 128.869 125.792 127.055 129.748C126.913 128.435 128.167 125.588 127.156 124.16C126.431 123.137 125.238 123.148 124.109 123.004C123.74 122.567 123.338 122.136 122.953 121.711L124.191 120.578Z" fill="#449BBA"/>
<path d="M112.571 147.945C112.878 147.595 112.689 147.704 113.171 147.633C114.231 148.16 115.342 150.102 115.432 151.275C112.102 160.917 97.7431 162.319 89.2361 160.881C87.2122 160.539 85.2367 160.085 83.1947 159.802C82.1503 159.192 77.1774 157.377 76.7969 156.914C77.6422 156.307 78.5466 155.689 79.325 155.008C80.0066 155.982 81.4948 156.48 82.6674 156.792C90.9081 158.883 100.906 159.451 108.657 155.498C111.363 154.118 114.353 151.15 112.571 147.945Z" fill="#72C3E0"/>
<path d="M112.569 147.951C111.61 147.223 110.564 146.518 109.341 146.333C108.527 146.211 107.785 146.449 107.406 145.624C108.319 144.629 113.048 146.089 114.169 145.467C115.576 147.153 115.905 147.445 116.371 149.685C116.189 150.188 115.932 151.075 115.626 151.449L115.43 151.282C115.34 150.108 114.229 148.166 113.169 147.639C112.687 147.71 112.876 147.602 112.569 147.951Z" fill="#449BBA"/>
<path d="M65.0497 196.407C60.4309 195.114 55.3999 192.909 51.0275 190.944C50.5356 190.725 49.253 190.176 48.9141 189.916L49.6751 189.578C51.6798 190.084 54.0907 191.277 56.0195 192.162C58.2915 193.203 63.1946 194.777 65.1095 196.006C65.1029 196.32 65.1362 196.189 65.0497 196.407Z" fill="#72C3E0"/>
<path d="M75.4375 157.7C75.8869 157.434 76.3388 157.172 76.793 156.914C77.1736 157.377 82.1464 159.192 83.1909 159.802C83.5613 160.052 84.1319 160.411 84.4695 160.673C83.3094 160.377 82.7133 160.112 81.5749 160.515C79.448 159.385 77.7385 158.506 75.4375 157.7Z" fill="#449BBA"/>
<path d="M85.6501 79.2344C89.1698 81.3023 92.1468 82.1163 96.1659 81.2747C96.7291 81.5884 97.7959 82.235 98.2297 82.7077C102.281 86.0051 105.23 89.7628 106.976 94.7436C108.048 97.8004 109.075 101.1 111.243 103.541C115.746 108.609 115.549 115.012 115.255 121.327C115.005 126.695 114.665 130.202 109.44 132.775C103.567 136.211 100.927 135.975 94.7457 136.95L94.9107 137.295C96.9266 137.906 100.695 137.379 102.721 136.886C103.172 139.178 104.885 143.923 105.98 145.975C107.204 147.629 107.576 148.417 109.323 149.562C108.892 148.685 108.626 148.122 108.082 147.31C112.954 147.638 113.229 150.701 109.726 153.468C105.051 157.16 97.0645 157.825 91.2882 157.192C87.847 157.082 84.159 156.112 80.8862 155.063C80.8363 152.001 80.0503 148.946 79.2868 145.991C77.9736 141.016 77.1336 138.101 75.2289 133.283C76.1929 133.714 81.1679 136.186 81.9916 135.217C81.0156 134.521 78.5064 133.541 77.2829 132.87C73.7633 130.942 71.7223 129.003 68.8379 126.338C69.4569 125.85 69.5908 125.662 70.081 125.033C69.9506 124.862 69.7091 124.459 69.4409 124.58C67.1952 125.601 66.3216 126.697 63.6886 126.15C60.3034 125.395 57.9371 123.241 56.0612 120.434C52.3258 114.846 54.8124 108.16 62.2683 111.322C63.2954 111.758 64.2655 112.605 65.4012 112.889C64.6895 111.713 65.9601 110.394 66.5536 108.983C67.3156 109.883 68.0526 110.498 69.1659 110.927C70.5254 111.458 72.0434 111.407 73.3647 110.788C76.6922 109.208 77.1307 105.489 75.6988 102.41C77.9751 101.412 79.0436 100.942 80.1739 98.6436C81.4135 95.9563 80.3806 93.6841 79.0902 91.3259C80.6902 90.8267 82.1652 89.9919 83.4171 88.8773C85.4954 86.9897 86.0026 85.1712 86.1161 82.488C85.9961 81.5248 85.8631 80.1426 85.6501 79.2344Z" fill="#CC9983"/>
<path d="M70.0791 125.039C70.9896 126.535 70.9768 126.988 72.2672 128.359C73.8415 130.033 74.8653 130.274 76.8826 131.213C77.6953 131.591 79.0103 132.504 79.8152 132.838C82.333 133.884 82.9913 134.117 85.2286 135.779C86.7628 142.606 89.3535 149.251 90.7227 156.151C90.7863 156.472 91.0859 156.942 91.2863 157.198C87.845 157.088 84.157 156.118 80.8842 155.069C80.8344 152.006 80.0483 148.951 79.2848 145.997C77.9716 141.021 77.1316 138.106 75.227 133.288C76.191 133.719 81.1659 136.191 81.9897 135.223C81.0136 134.527 78.5045 133.546 77.2809 132.876C73.7613 130.947 71.7204 129.009 68.8359 126.344C69.4549 125.856 69.5889 125.667 70.0791 125.039Z" fill="#B8796E"/>
<path d="M105.977 145.845C105.358 145.705 103.178 144.343 102.376 143.956C100.519 143.06 98.606 142.193 96.7667 141.257C94.4724 140.077 92.2281 138.765 90.0419 137.323C89.875 137.134 90.2532 137.134 90.0419 137.323L89.4062 137.139C89.6766 136.668 89.9861 136.504 90.3949 136.203C92.3199 136.578 94.5799 136.633 96.5773 136.831L96.7153 137.175C98.4022 137.786 101.555 137.259 103.251 136.767C103.628 139.056 105.061 143.795 105.977 145.845Z" fill="#B8796E"/>
<path d="M86.1131 82.4923C86.554 82.4737 86.9597 82.3851 87.2946 82.6248C87.4653 82.9829 87.5016 83.044 87.597 83.4246C88.1999 88.4828 84.4692 90.3573 81.0803 92.6119C82.1107 94.7784 82.3219 96.476 81.5609 98.8425C81.2198 99.9025 80.6677 100.693 80.3274 101.623C79.3735 102.292 77.4572 103.302 76.87 103.819L76.936 103.988C78.1963 107.315 77.144 111.25 73.5482 112.541C72.0672 113.073 70.0064 112.908 68.5014 112.524C68.2866 112.464 67.8336 111.915 67.659 111.717C66.9851 111.82 66.0374 112.507 65.3982 112.893C64.6866 111.717 65.9571 110.398 66.5507 108.987C67.3127 109.888 68.0496 110.502 69.1629 110.932C70.5225 111.462 72.0404 111.412 73.3617 110.792C76.6892 109.213 77.1278 105.493 75.6959 102.414C77.9721 101.416 79.0407 100.946 80.171 98.6479C81.4105 95.9606 80.3777 93.6884 79.0872 91.3302C80.6872 90.831 82.1622 89.9962 83.4141 88.8816C85.4924 86.994 85.9997 85.1755 86.1131 82.4923Z" fill="#B8796E"/>
<path d="M85.6484 79.2344C89.1682 81.3023 92.1451 82.1163 96.1642 81.2747C96.7275 81.5884 97.7942 82.235 98.2281 82.7077C96.1874 83.7191 93.9324 83.4288 91.7224 83.2187C90.2977 83.0833 89.2337 82.5697 87.92 82.0471C87.5797 82.3272 87.6169 82.9692 87.5983 83.4203C87.5029 83.0397 87.4666 82.9786 87.2959 82.6205C86.961 82.3808 86.5553 82.4694 86.1144 82.488C85.9945 81.5248 85.8615 80.1426 85.6484 79.2344Z" fill="#B8796E"/>
<path d="M88.5235 102.455C92.3566 102.33 94.7537 108.095 91.5982 110.262C87.8968 110.521 85.4764 104.418 88.5235 102.455Z" fill="#070A20"/>
<path d="M103.394 96.5854C106.586 96.3301 107.555 99.3588 108.056 101.916C107.693 103.045 107.597 103.315 106.682 104.05C103.69 104.618 100.469 99.0866 103.394 96.5854Z" fill="#070A20"/>
<path d="M62.1342 116.48C60.7278 116.109 58.8354 116.252 58.2781 115.82L58.2188 115.596C60.0199 113.765 65.3918 115.85 65.7751 118.683C63.2693 118.833 63.5075 119.927 63.5645 122.067C62.7972 121.565 61.6924 120.968 61.3837 120.109L61.4061 119.838C61.05 118.319 61.3775 117.735 62.1342 116.48Z" fill="#070A20"/>
<path d="M63.0684 116.984C63.9256 117.657 64.7657 118.522 65.7742 118.685C63.2685 118.836 63.5066 119.93 63.5636 122.07C62.7963 121.568 61.6915 120.97 61.3828 120.111L61.4053 119.84C62.2364 119.366 62.5832 118.009 63.0684 116.984Z" fill="#B8796E"/>
<path d="M98.3517 98.1406C99.402 98.5215 100.077 102.523 101.678 104.046C103.412 106.018 105.58 106.216 107.854 107.083C110.112 107.945 108.081 110.744 107.254 111.839L106.967 112.002L106.761 111.911C106.816 111.369 107.707 109.055 107.945 108.337C107.224 108.04 106.21 107.726 105.451 107.506C101.298 106.305 98.3303 102.527 98.3517 98.1406Z" fill="#070A20"/>
<path d="M108.174 117.188L108.554 117.382L108.563 117.667C106.683 121.497 100.118 121.415 96.5697 120.715C96.1842 120.287 96.1855 120.219 96.1995 119.792C96.9921 119.301 98.3137 120 99.2571 120.044C103.269 120.231 105.2 119.477 108.174 117.188Z" fill="#070A20"/>
<path d="M87.6346 95.5158C88.1928 95.5113 88.5019 95.5904 88.8514 96.0256C88.3791 96.9088 86.3416 97.1133 85.34 97.9869C84.1809 98.998 83.9985 99.3582 83.2339 100.641C83.1832 100.743 82.9801 100.976 82.8989 101.076L82.65 101.01C82.2572 99.786 83.4055 98.4971 84.1493 97.6161C85.0744 96.5202 86.3081 95.9595 87.6346 95.5158Z" fill="#070A20"/>
<path d="M101.87 90.4514C102.964 90.4403 103.789 90.3586 104.433 91.3678L104.283 91.5859C103.6 91.7422 102.472 91.5296 101.567 91.5508L101.374 91.5566C100.583 91.872 99.9026 92.2851 99.1194 92.0005L99.0156 91.7459C99.6057 90.6655 100.78 90.5734 101.87 90.4514Z" fill="#070A20"/>
<path d="M39.9922 176.539C40.502 176.764 41.2879 177.309 41.8108 177.603C45.63 179.739 49.3895 181.988 53.3305 183.9C52.7045 185.222 52.1979 185.926 51.2654 187.021C47.9628 191.013 45.3513 187.755 43.5122 184.563C42.0054 181.949 40.8964 179.413 39.9922 176.539Z" fill="#449BBA"/>
<path d="M139.651 74.9541C143.955 74.106 147.198 74.6225 148.624 79.2766C150.296 85.7166 150.104 91.1078 150.004 97.6867C149.97 99.9957 150.022 102.436 149.842 104.722C149.7 106.52 149.119 108.345 148.917 110.172C148.249 112.919 147.822 115.694 147.11 118.451C145.896 123.145 144.912 128.005 143.364 132.6C141.645 130.385 139.71 128.346 137.588 126.512C133.495 122.833 129.89 121.47 125.007 119.497C126.05 117.279 126.026 115.918 125.098 113.699C124.534 112.711 124.003 112.179 123.199 111.427C125.547 104.329 128.6 97.4841 132.313 90.9947C132.756 90.4296 133.154 90.0006 133.425 89.338L133.261 89.2409L132.647 89.5509C130.496 89.6307 127.359 91.8302 125.087 92.6238C122.099 93.6673 116.392 96.7203 113.405 94.6459C112.451 93.9837 112.908 93.4501 112.738 92.7229C113.06 89.9935 113.833 88.9433 112.867 85.9589C112.711 85.6006 112.717 85.6041 112.664 85.2153C113.144 84.7204 115.759 83.6431 116.571 83.274C121.322 81.1168 126.114 79.2054 131.052 77.5226C133.73 76.6103 136.877 75.4755 139.651 74.9541Z" fill="#CC9983"/>
<path d="M148.629 79.2734C150.301 85.7134 150.109 91.1046 150.01 97.6836C149.975 99.9925 150.027 102.433 149.847 104.719C149.706 106.517 149.124 108.342 148.922 110.169C148.254 112.916 147.828 115.69 147.115 118.447C145.902 123.141 144.917 128.002 143.37 132.597C141.651 130.382 139.716 128.342 137.594 126.509C138.031 125.998 138.436 125.476 138.741 124.871C144.229 114.039 148.66 102.409 148.705 90.1039C148.717 86.5063 148.218 83.3417 147.837 79.8126C147.816 79.6128 148.436 79.3744 148.629 79.2734Z" fill="#B8796E"/>
<path d="M112.867 85.9579C112.711 85.5997 112.717 85.6031 112.664 85.2143C113.144 84.7194 115.759 83.6421 116.571 83.2731C121.322 81.1158 126.114 79.2044 131.052 77.5217C133.73 76.6093 136.877 75.4745 139.651 74.9531L139.945 75.1411C139.062 75.3847 137.919 75.3254 137.493 75.9882L137.724 76.3023C138.198 76.216 138.11 76.139 138.434 76.2824C135.243 77.355 131.832 78.0717 128.672 79.214C126.931 79.8433 124.893 80.7862 123.17 81.5171L112.867 85.9579Z" fill="#D5976F"/>
<path fill-rule="evenodd" clip-rule="evenodd" d="M200.54 33.0389C198.664 33.0154 196.491 32.9883 195.002 33.1134C195.08 33.1164 195.195 33.1187 195.332 33.1215C195.978 33.1347 197.129 33.1581 197.352 33.3049L197.266 33.3119C196.961 33.3369 196.668 33.3607 196.358 33.3744C198.91 33.5836 201.261 33.5648 203.715 33.5451C204.482 33.539 205.26 33.5328 206.057 33.5334C206.297 33.5337 206.587 33.5308 206.905 33.5278C208.086 33.5163 209.65 33.5012 210.481 33.6237C217.76 33.6942 225.038 33.7047 232.317 33.6555L291.487 33.6717C292.254 33.6671 293.021 33.6584 293.788 33.6496C296.975 33.6132 300.158 33.5769 303.331 33.8382C306.151 34.0706 309.471 35.3153 309.825 38.4976C310.104 41.0115 310.066 43.606 310.028 46.1698C310.016 46.9844 310.003 47.7959 310.002 48.6007L310.024 171.877C310.026 175.945 310.045 180.018 310.063 184.092L310.063 184.106C310.089 189.836 310.115 195.569 310.095 201.291C310.068 203.034 309.815 204.988 308.448 206.214C307.763 206.83 306.35 207.603 305.428 207.55C300.9 207.293 296.39 207.296 291.858 207.299L210.237 207.48L196.554 207.489C196.052 207.489 195.424 207.499 194.746 207.51C193.076 207.536 191.098 207.567 189.933 207.481C189.089 207.353 186.979 207.377 185.579 207.392C185.26 207.396 184.978 207.399 184.757 207.4C181.212 207.434 177.667 207.433 174.123 207.395C173.919 206.483 173.565 205.425 173.217 204.383C172.97 203.646 172.726 202.916 172.541 202.254C172.027 200.408 171.754 198.953 171.426 197.083C172.917 196.957 174.083 196.975 175.566 197.138L175.481 196.601C174.879 196.583 174.286 196.607 173.694 196.631C173.078 196.655 172.464 196.68 171.842 196.657C171.469 196.642 171.334 196.358 171.164 196.002C171.115 195.899 171.063 195.79 171.001 195.679L170.665 195.63C170.662 195.655 170.66 195.682 170.657 195.709C170.652 195.768 170.647 195.829 170.642 195.893C170.605 196.326 170.562 196.851 170.361 197.138C169.52 197.335 168.156 197.288 166.858 197.243C165.551 197.198 164.312 197.155 163.744 197.367C162.808 193.807 162.482 190.27 162.158 186.751C161.815 183.024 161.474 179.318 160.411 175.624C159.956 174.044 159.1 172.437 158.319 170.972L158.254 170.85C156.478 167.962 153.486 164.257 151.035 161.865C150.886 157.014 150.901 152.055 150.916 147.116C150.925 144.206 150.934 141.303 150.909 138.433C150.831 129.35 150.874 120.229 150.918 111.108C150.968 100.452 151.019 89.7956 150.876 79.1944C151.031 74.3898 150.955 69.421 150.878 64.4529C150.811 60.0805 150.744 55.7083 150.834 51.4487C150.861 50.1942 150.857 48.9181 150.852 47.6367C150.844 45.3678 150.836 43.0826 151.001 40.8733C150.695 40.7281 150.607 40.5308 150.482 40.2498C150.459 40.1974 150.434 40.1421 150.407 40.0837C150.232 43.4077 150.134 46.7351 150.112 50.0636C150.107 50.4611 150.104 50.913 150.1 51.3968C150.086 53.4043 150.067 55.9701 149.916 57.5481C149.778 58.3223 149.645 59.6473 149.486 61.2216C149.414 61.927 149.338 62.6824 149.254 63.4609H149.5V76.9609L147 73.9609H146.5L146.481 73.942C145.947 73.9586 145.328 73.7002 144.873 73.4689L144.719 73.9052C142.762 73.7145 140.401 73.7666 138.475 74.2664C130.704 76.283 122.989 79.4713 115.63 82.6763C115.057 82.9255 112.433 84.084 112.116 84.309C111.644 84.5379 111.57 84.5738 111.525 84.5515C111.516 84.5474 111.509 84.5412 111.5 84.5339C111.464 84.5035 111.403 84.4532 111.148 84.4455C112.973 87.2438 112.553 89.1705 111.995 91.7336C111.869 92.3133 111.735 92.9256 111.619 93.5878C111.851 95.3288 113.544 96.2876 115.325 97.2963C117.371 98.455 119.534 99.6795 119.729 102.231C119.882 104.218 119.487 105.144 118.982 106.33C118.745 106.888 118.483 107.503 118.242 108.312C118.284 108.388 118.324 108.458 118.362 108.525C118.722 109.168 118.861 109.414 119.523 109.923L120 109.961C120.392 110.18 120.084 110.15 120.5 110.461C121.264 111.032 122.448 112.005 123 111.961C123.197 110.821 124.305 107.897 124.776 106.762C124.889 106.49 125.139 106.208 125 105.961L122.5 110.961C121.334 110.128 119.1 108.361 119.5 107.961C119.9 107.561 120.667 104.128 121 102.461L126.5 100.961L125.233 104.895V105.289L125 105.461L125.233 105.539C125.353 105.258 125.299 105.439 125.5 104.961C127.078 101.203 130.678 92.0147 132.318 90.9923C132.394 90.8963 132.468 90.8041 132.54 90.7141C132.893 90.2746 133.205 89.8856 133.43 89.3356L133.266 89.2385L132.652 89.5485C131.306 89.5985 129.572 90.4794 127.907 91.326C126.912 91.8315 125.942 92.3247 125.092 92.6214C124.542 92.8135 123.9 93.0735 123.2 93.3572C120.096 94.615 115.848 96.3362 113.41 94.6435C112.751 94.1861 112.766 93.79 112.782 93.3491C112.789 93.1517 112.796 92.9454 112.744 92.7205C112.83 91.9868 112.949 91.3744 113.059 90.8131C113.355 89.2867 113.579 88.1386 112.873 85.9565C112.723 85.6135 112.722 85.6021 112.676 85.2605L112.669 85.2129C113.062 84.8086 114.879 84.0153 115.974 83.5373C116.219 83.4303 116.428 83.3391 116.577 83.2717C121.327 81.1144 126.119 79.203 131.058 77.5203C131.357 77.4183 131.663 77.3131 131.973 77.2068C134.435 76.3616 137.193 75.4148 139.656 74.9517C143.96 74.1036 147.203 74.6202 148.629 79.2742C150.207 85.3524 150.125 90.4963 150.027 96.5862C150.021 96.9487 150.015 97.3147 150.01 97.6844C150 98.3155 149.997 98.9566 149.994 99.6015C149.986 101.316 149.978 103.059 149.847 104.72C149.772 105.679 149.571 106.645 149.369 107.616C149.193 108.465 149.016 109.317 148.922 110.17L149.126 110.377C148.747 112.928 144.642 130.927 143.559 132.609L143.328 132.739C142.739 132.475 141.916 131.449 141.362 130.759C141.254 130.626 141.157 130.504 141.074 130.404C139.789 128.855 138.832 127.763 137.102 126.713C137.079 126.96 137.362 127.237 137.662 127.532C137.962 127.826 138.281 128.138 138.332 128.456C138.61 128.778 138.985 129.186 139.418 129.657C141.766 132.211 145.808 136.61 145.265 139.11C144.647 140.952 144.173 142.959 143.684 145.026C143.144 147.308 142.587 149.664 141.8 151.956C141.765 151.819 141.72 151.647 141.67 151.454C141.473 150.707 141.196 149.648 141.137 149.155C141.013 148.768 140.923 148.372 140.868 147.971C140.759 147.164 140.741 147.161 140.142 147.073C140.084 147.064 140.022 147.055 139.953 147.044C139.881 148.974 140.27 151.103 140.771 152.965C141.653 154.247 142.926 155.399 144.169 156.523C144.778 157.074 145.381 157.618 145.925 158.168C146.478 158.726 147.026 159.274 147.564 159.812C153.717 165.961 158.781 171.022 160.343 180.224C160.693 182.464 160.873 184.601 161.055 186.754C161.275 189.362 161.497 191.993 162.024 194.855C160.561 195.22 160.376 195.465 160.097 195.834C159.914 196.076 159.691 196.372 159.04 196.79L158.807 197.083C161.325 205.334 164.636 213.214 167.959 221.123C168.985 223.564 170.011 226.008 171.016 228.466C171.406 229.42 171.946 230.615 172.524 231.892C173.743 234.585 175.128 237.647 175.62 239.607C175.714 239.573 175.807 239.54 175.9 239.507L176.01 239.468C176.757 239.205 177.471 238.954 178.161 238.535L179.014 238.218C178.392 237.116 177.414 234.57 176.591 232.427C176.181 231.359 175.809 230.391 175.539 229.751C172.664 222.947 170.173 216.058 167.666 209.124L167.392 208.365L262.659 208.218L292.505 208.209C292.881 208.209 293.256 208.209 293.631 208.208L294.461 208.208C297.103 208.205 299.739 208.202 302.418 208.266C302.545 208.27 302.672 208.275 302.799 208.279C305.462 208.374 308.275 208.473 309.868 205.878C311.028 203.987 310.935 201.392 310.851 199.054C310.834 198.584 310.818 198.124 310.812 197.683C310.791 195.438 310.786 193.194 310.8 190.949L310.764 65.9498L310.788 50.0874C310.796 49.291 310.806 48.4874 310.815 47.69L310.816 47.671C310.845 45.2526 310.874 42.8323 310.853 40.4233C310.833 38.0551 310.423 35.9141 308.349 34.4837C307.282 33.7481 306.504 33.4333 305.264 33.1784C303.829 32.9872 301.852 32.9957 300.184 33.0029C299.853 33.0043 299.535 33.0057 299.235 33.0054L289.277 33.0459L202.322 33.0554C201.789 33.0545 201.182 33.0469 200.54 33.0389ZM150 110.961L144.5 132.961L144 133.461C144.667 134.461 146 136.661 146 137.461C146 138.261 145.667 139.461 145.5 139.961L143 150.961L142.5 153.461L150 160.961V110.961Z" fill="#091547"/>
<path fill-rule="evenodd" clip-rule="evenodd" d="M125 105.961L125.297 105.398L125.233 104.895V105.055L125 105.461C124.776 105.772 124.953 105.38 124.776 105.824C124.817 105.907 124.462 107.393 124.5 107.461L125 105.961Z" fill="#091547"/>
<path d="M159.037 196.794C160.68 195.739 159.599 195.463 162.021 194.859C163.272 200.046 164.561 203.547 166.372 208.607C168.458 214.463 170.671 220.272 173.009 226.031C174.576 229.921 176.349 234.916 178.159 238.539C177.35 239.031 176.508 239.291 175.617 239.611C174.893 236.721 172.225 231.436 171.013 228.47C166.753 218.048 162.1 207.884 158.805 197.087L159.037 196.794Z" fill="#72C3E0"/>
<path d="M112.739 92.7189C112.909 93.4461 112.452 93.9797 113.406 94.6419C116.393 96.7163 122.1 93.6633 125.088 92.6198C127.36 91.8262 130.497 89.6267 132.648 89.5469C130.014 92.2076 127.654 96.0985 126.559 99.6841C125.064 100.203 121.951 101.203 120.634 101.842C119.271 97.2175 116.034 97.219 112.835 94.3911C112.476 94.074 112.521 93.1241 112.739 92.7189Z" fill="#B8796E"/>
<path d="M170.663 195.633L170.999 195.683C171.273 196.175 171.359 196.641 171.839 196.66C173.06 196.705 174.25 196.567 175.479 196.604L175.563 197.141C174.081 196.978 172.915 196.96 171.424 197.087C171.752 198.956 172.025 200.411 172.538 202.257C172.986 203.855 173.772 205.839 174.12 207.398C177.665 207.436 181.21 207.438 184.754 207.403C185.951 207.398 188.894 207.328 189.931 207.484C188.287 207.682 184.064 207.587 182.216 207.588L167.141 207.599C166.103 204.259 164.822 200.783 163.742 197.37C164.874 196.948 168.671 197.537 170.359 197.141C170.603 196.793 170.615 196.094 170.663 195.633Z" fill="#D6E4FD"/>
<path d="M150.405 40.0859C150.58 40.4577 150.636 40.7033 150.999 40.8755C150.741 44.3325 150.906 47.975 150.832 51.4509C150.638 60.5506 151.166 70.1634 150.874 79.1966C150.419 77.6823 150.772 71.5245 150.696 69.6433C150.373 61.7068 150.838 53.6067 150.481 45.6775C150.092 51.1342 150.538 56.5309 150.389 61.9994C150.343 63.697 150.568 66.5146 150.171 68.0438C150.1 66.2021 150.387 58.655 149.914 57.5503C150.101 55.5911 150.085 52.1133 150.11 50.0659C150.132 46.7373 150.23 43.41 150.405 40.0859Z" fill="#314284"/>
<path d="M175.452 153.99L175.576 153.488C175.729 153.436 187.301 153.373 187.709 153.451L187.829 153.844L187.82 154.293C187.847 158.452 187.982 163.912 187.819 168.003L187.855 168.639C187.808 172.187 187.801 175.735 187.831 179.284C187.668 182.798 187.838 186.411 187.778 189.938C187.763 190.768 187.768 191.724 187.831 192.547C187.831 193.645 187.774 195.469 187.855 196.507L187.781 197.206C184.969 197.221 178.123 197.423 175.561 197.137L175.476 196.601C174.247 196.563 173.057 196.702 171.837 196.656C171.356 196.637 171.27 196.171 170.996 195.679L170.66 195.629C170.544 191.336 170.49 187.041 170.496 182.746L170.541 182.264C170.339 178.006 170.502 172.997 170.461 168.641V168.247C170.633 164.031 170.476 158.659 170.478 154.349C171.326 154.352 174.83 154.407 175.455 154.291L175.452 153.99Z" fill="#9CBCF8"/>
<path d="M170.478 154.346C171.326 154.349 174.83 154.405 175.455 154.289C175.453 158.357 175.262 164.405 175.503 168.298L175.443 168.592C173.82 168.599 172.071 168.575 170.461 168.638V168.245C170.633 164.028 170.476 158.656 170.478 154.346Z" fill="#F8FAFE"/>
<path d="M170.461 168.252C171.701 168.258 174.375 168.202 175.503 168.305L175.443 168.598C173.82 168.606 172.071 168.582 170.461 168.645V168.252Z" fill="#C1D6FC"/>
<path d="M170.461 168.64C172.072 168.577 173.821 168.601 175.443 168.594C175.478 171.659 175.49 174.727 175.481 177.792C175.481 179.085 175.416 181.235 175.512 182.419L175.463 182.633C173.899 182.831 172.051 182.645 170.496 182.746L170.541 182.263C170.339 178.006 170.502 172.997 170.461 168.64Z" fill="#F8FAFE"/>
<path d="M170.545 182.266C171.561 182.284 174.721 182.275 175.517 182.421L175.467 182.635C173.903 182.834 172.055 182.647 170.5 182.748L170.545 182.266Z" fill="#D6E4FD"/>
<path d="M170.5 182.746C172.055 182.645 173.904 182.832 175.467 182.633L175.481 196.601C174.252 196.563 173.061 196.702 171.841 196.657C171.361 196.637 171.275 196.171 171.001 195.679L170.665 195.629C170.549 191.336 170.494 187.041 170.5 182.746Z" fill="#F8FAFE"/>
<path d="M158.495 144.551C162.007 144.694 166.823 144.512 170.46 144.5C170.473 146.373 170.618 152.608 170.375 154.069L170.479 154.346C170.478 158.656 170.634 164.028 170.463 168.245V168.638C170.503 172.995 170.341 178.004 170.542 182.261L170.497 182.743C170.491 187.038 170.546 191.333 170.662 195.627C170.613 196.088 170.601 196.787 170.357 197.135C168.67 197.531 164.872 196.942 163.741 197.364C161.813 190.035 162.474 182.804 160.407 175.621C159.94 173.997 159.048 172.344 158.25 170.847C158.514 168.829 158.427 163.008 158.42 160.905C158.394 155.454 158.419 150.002 158.495 144.551Z" fill="#9CBCF8"/>
<path d="M193.111 163.039L205.74 162.922C205.726 164.65 205.671 166.583 205.714 168.292C205.389 169.825 205.454 180.388 205.625 182.36L205.729 182.749L211.323 182.756L211.329 191.497C211.324 192.843 211.246 195.41 211.383 196.632L211.312 197.147C208.973 196.756 207.927 196.742 205.619 197.171C202.323 197.366 198.922 197.187 195.613 197.227C194.829 197.238 194.026 197.226 193.247 197.132L193.191 180.73C193.212 176.943 193.414 171.986 193.134 168.27C193.101 166.527 193.093 164.782 193.111 163.039Z" fill="#9CBCF8"/>
<path d="M205.724 182.742L211.317 182.75L211.323 191.49C211.319 192.837 211.241 195.404 211.378 196.626L211.307 197.141C208.967 196.749 207.922 196.736 205.614 197.165C205.48 194.878 205.618 191.724 205.597 189.386C205.581 187.692 205.555 184.338 205.724 182.742Z" fill="#F8FAFE"/>
<path d="M205.724 182.742C205.92 186.029 205.84 193.229 205.719 196.581C207.535 196.576 209.586 196.531 211.378 196.626L211.307 197.141C208.967 196.749 207.922 196.736 205.614 197.165C205.48 194.878 205.618 191.724 205.597 189.386C205.581 187.692 205.555 184.338 205.724 182.742Z" fill="#D6E4FD"/>
<path d="M223.847 171.307C224.143 172.091 223.952 180.848 223.941 182.275C225.8 182.305 227.92 182.388 229.75 182.29C229.978 183.544 229.961 195.958 229.723 197.14C227.409 196.874 226.076 196.746 223.797 197.155C222.617 197.377 212.486 197.306 211.307 197.143L211.377 196.628C211.24 195.406 211.319 192.839 211.323 191.493L211.317 182.752L211.298 182.276C211.391 178.703 211.335 174.888 211.335 171.297L223.847 171.307Z" fill="#9CBCF8"/>
<path d="M223.848 171.312C224.145 172.096 223.954 180.853 223.943 182.28C225.802 182.31 227.922 182.393 229.752 182.295C229.979 183.55 229.963 195.963 229.725 197.145C227.411 196.879 226.078 196.751 223.798 197.161L223.81 196.564C223.91 195.202 223.836 193.009 223.841 191.587C223.848 188.772 223.881 185.839 223.797 183.033C223.905 182.224 223.816 180.267 223.824 179.39C223.847 176.719 223.75 173.979 223.848 171.312Z" fill="#F8FAFE"/>
<path d="M223.848 171.312C224.145 172.096 223.954 180.853 223.943 182.28C225.802 182.31 227.922 182.393 229.752 182.295C229.979 183.55 229.963 195.963 229.725 197.145C227.411 196.879 226.078 196.751 223.798 197.161L223.81 196.564C225.505 196.578 228.084 196.532 229.678 196.749L229.708 182.662C228.532 182.742 224.362 182.498 223.797 183.033C223.905 182.224 223.816 180.267 223.824 179.39C223.847 176.719 223.75 173.979 223.848 171.312Z" fill="#D6E4FD"/>
<path d="M229.779 177.343C233.821 177.442 238.125 177.344 242.188 177.312L242.223 180.337C242.2 181.163 242.161 181.916 242.227 182.742C242.202 184.272 242.15 185.869 242.176 187.395C242.057 189.113 241.974 195.502 242.128 197.139C239.495 197.44 232.336 197.386 229.727 197.145C229.965 195.963 229.981 183.549 229.754 182.294C229.835 180.92 229.775 178.774 229.779 177.343Z" fill="#9CBCF8"/>
<path d="M247.084 188.184L259.368 188.164C259.374 190.93 259.322 193.896 259.392 196.644L259.479 197.147C258.715 197.277 255.633 197.253 254.752 197.238C252.26 197.198 249.49 197.302 247.022 197.167L247.011 196.585C246.998 193.785 247.022 190.984 247.084 188.184Z" fill="#9CBCF8"/>
<path d="M187.855 168.638C189.477 168.546 191.413 168.599 193.059 168.626C193.091 173.222 193.091 177.818 193.062 182.416C191.321 182.36 189.679 182.369 187.939 182.387C187.925 181.539 187.943 180.069 187.83 179.283C187.8 175.733 187.808 172.186 187.855 168.638Z" fill="#F8FAFE"/>
<path d="M150.406 40.0846C150.564 36.7981 152.502 33.7901 155.994 33.4598C164.859 32.6214 173.864 33.2468 182.766 33.0419C185.06 32.9892 187.65 32.9871 189.928 33.1425C189.075 33.7201 188.804 33.4523 187.728 33.7168L168.135 33.7453C164.289 33.751 160.371 33.6213 156.545 34.0446C152.765 34.4629 151.185 37.3254 151.001 40.8742C150.638 40.702 150.582 40.4564 150.406 40.0846Z" fill="#1D2B66"/>
<path d="M187.829 153.844C188.772 154.098 191.437 153.984 192.507 153.984L202.799 153.972L247.15 153.981L260.437 154C261.898 154.003 265.378 153.875 266.577 154.05L266.648 154.177C265.786 154.415 261.595 154.327 260.548 154.327L248.216 154.333L210.896 154.332C203.454 154.336 195.202 154.528 187.82 154.293L187.829 153.844Z" fill="#C1D6FC"/>
<path d="M205.708 168.29L245.856 168.265L258.719 168.262C260.879 168.262 264.008 168.175 266.066 168.363L266.034 168.437L266.354 168.452C264.389 168.686 261.185 168.597 259.13 168.598L246.812 168.583L205.751 168.615C205.608 171.715 205.765 174.855 205.747 177.955C205.742 178.891 205.811 181.53 205.619 182.357C205.447 180.385 205.382 169.822 205.708 168.29Z" fill="#C1D6FC"/>
<path d="M187.826 168C188.48 168.52 191.986 168.23 193.134 168.264C193.414 171.98 193.212 176.936 193.191 180.724L193.247 197.126C192.523 196.963 192.487 197.141 191.52 196.793C192.013 196.603 192.551 196.68 193.112 196.688C193.04 192.088 193.108 187.381 193.072 182.759C191.403 182.67 189.611 182.733 187.932 182.76C187.783 185.844 188.143 189.518 187.838 192.543C187.775 191.721 187.77 190.764 187.786 189.934C187.846 186.408 187.676 182.795 187.838 179.28C187.951 180.067 187.933 181.537 187.947 182.385C189.687 182.367 191.329 182.358 193.07 182.414C193.099 177.816 193.099 173.22 193.067 168.624C191.421 168.597 189.485 168.544 187.862 168.636L187.826 168Z" fill="#D6E4FD"/>
<path d="M242.22 180.336C242.289 181.092 242.327 181.588 242.319 182.355C244.897 182.309 265.412 182.133 266.254 182.523C264.059 182.796 260.103 182.716 257.763 182.724L242.224 182.74C242.158 181.915 242.197 181.161 242.22 180.336Z" fill="#D6E4FD"/>
<path d="M189.926 33.1375L195 33.1094C195.443 33.1262 197.079 33.1228 197.35 33.3009C197.012 33.3283 196.695 33.3554 196.356 33.3703C199.706 33.6449 202.708 33.5267 206.054 33.5294C207.187 33.5304 209.424 33.4642 210.479 33.6196C208.102 33.8263 204.79 33.7364 202.335 33.7314L187.727 33.7118C188.802 33.4473 189.073 33.7151 189.926 33.1375Z" fill="#314284"/>
<path d="M242.171 187.391C242.323 190.214 242.222 193.807 242.215 196.683C243.78 196.574 245.434 196.592 247.01 196.582L247.02 197.163C245.273 196.773 243.858 196.765 242.123 197.134C241.969 195.497 242.052 189.108 242.171 187.391Z" fill="#D6E4FD"/>
<path d="M211.295 182.273L211.315 182.749L205.721 182.742L205.617 182.353L211.295 182.273Z" fill="#D6E4FD"/>
<path d="M170.375 154.074C171.631 153.897 174.117 153.977 175.453 153.993L175.456 154.294C174.831 154.41 171.327 154.355 170.479 154.352L170.375 154.074Z" fill="#C1D6FC"/>
<path d="M187.863 196.506C188.494 196.473 188.786 196.425 189.396 196.55L189.561 196.753C188.929 196.96 188.31 196.808 187.789 197.205L187.863 196.506Z" fill="#D6E4FD"/>
<path d="M259.391 196.64C259.966 196.611 260.401 196.534 260.936 196.736C260.668 197.057 259.93 197.089 259.478 197.143L259.391 196.64Z" fill="#D6E4FD"/>
<path d="M160.739 65.5792C165.874 65.3738 172.404 65.6839 177.695 65.6575L225.279 65.6177L273.535 65.5715C282.479 65.5519 291.477 65.3378 300.415 65.5926C301.11 65.6125 301.807 65.7107 302.441 66.0109C303.25 66.3951 303.951 67.2426 304.234 68.0896C304.677 69.4041 304.413 85.0538 304.418 87.6066L304.437 99.999C304.439 101.264 304.424 102.547 304.442 103.811C304.478 106.501 304.689 109.736 301.462 110.669C298.796 111.143 292.707 110.93 289.74 110.923L267.124 110.888L186.933 110.802C178.711 110.744 170.443 110.953 162.206 110.888C155.244 110.834 156.791 104.716 156.803 99.4149L156.817 86.1645L156.823 75.9306C156.805 73.6093 156.382 69.4143 157.553 67.3573C158.195 66.2312 159.513 65.8208 160.739 65.5792Z" fill="#D6E4FD"/>
<path d="M197.297 68.8672L197.61 68.9476C198.413 70.0716 198.285 70.7897 198.104 72.1778C198.104 73.4256 198.409 73.8 197.297 74.5384C198.617 74.7121 200.649 75.1782 201.967 75.517C202.442 75.8947 202.436 75.7644 202.549 76.2308C202.283 76.6794 202.282 76.6528 201.871 76.9857C202.065 77.231 202.246 77.3408 202.188 77.5451C201.834 78.8262 199.126 80.1817 198.547 81.0242C198.603 81.2266 198.656 81.4293 198.709 81.6324C200.097 87.0693 200.195 91.5834 197.419 96.6558C192.262 106.071 180.022 109.572 170.757 103.862C166.392 101.177 163.299 96.8375 162.184 91.8339C161.093 87.0473 161.972 82.0227 164.623 77.8906C167.323 73.6769 171.582 70.703 176.467 69.6186C181.767 68.4734 187.35 69.6612 191.878 72.5873C193.344 71.4669 195.682 69.584 197.297 68.8672Z" fill="#091547"/>
<path d="M197.298 68.8672L197.611 68.9476C198.414 70.0716 198.286 70.7897 198.106 72.1778C198.106 73.4256 198.41 73.8 197.298 74.5384C198.618 74.7121 200.65 75.1782 201.968 75.517L201.793 76.0854C200.189 77.3772 197.64 79.6256 195.989 80.6181C194.427 80.6086 193.341 80.6109 191.861 80.0431C190.48 79.3546 191.042 77.9703 190.96 76.4627C190.969 75.7713 191.1 74.8138 191.176 74.104C191.805 73.466 196.393 69.8438 196.935 69.9318C197.179 69.5764 197.205 69.287 197.298 68.8672Z" fill="#9CBCF8"/>
<path d="M197.296 68.8672L197.609 68.9476C198.412 70.0716 198.284 70.7897 198.103 72.1778C198.103 73.4256 198.407 73.8 197.296 74.5384C198.615 74.7121 200.648 75.1782 201.966 75.517L201.791 76.0854C201.365 75.9251 197.303 75.4199 196.508 75.2878C196.574 73.8435 196.678 72.4012 196.818 70.9624L196.933 69.9318C197.177 69.5764 197.202 69.287 197.296 68.8672Z" fill="#070A20"/>
<path d="M197.298 68.8672L197.611 68.9476C198.414 70.0716 198.286 70.7897 198.105 72.1778C198.105 73.4256 198.41 73.8 197.298 74.5384C197.304 73.6807 197.336 72.9862 197.397 72.1319L197.153 72.0989C196.789 71.7405 196.9 71.6245 196.82 70.9624L196.935 69.9318C197.179 69.5764 197.204 69.287 197.298 68.8672Z" fill="#84A8EF"/>
<path d="M197.298 68.8672L197.611 68.9476L197.593 69.6041C197.495 70.4889 197.442 71.2433 197.397 72.1319L197.153 72.0989C196.789 71.7405 196.9 71.6245 196.82 70.9624L196.935 69.9318C197.179 69.5764 197.204 69.287 197.298 68.8672Z" fill="#070A20"/>
<path d="M197.612 68.9531C198.415 70.0771 198.287 70.7952 198.106 72.1833C197.421 71.4816 197.666 70.5955 197.594 69.6096L197.612 68.9531Z" fill="#9CBCF8"/>
<path d="M187.653 81.2188C187.697 81.8376 187.679 82.6374 187.988 83.1397C186.96 84.0402 181.295 89.0137 180.227 88.2525C180.272 86.8231 186.317 82.2287 187.653 81.2188Z" fill="#5A86D7"/>
<path d="M201.874 76.9922C202.068 77.2374 202.249 77.3473 202.192 77.5515C201.838 78.8326 199.129 80.1882 198.551 81.0307C198.451 80.768 198.139 80.3195 197.977 80.0621C199.021 79.2091 200.791 77.6969 201.874 76.9922Z" fill="#84A8EF"/>
<path d="M187.656 81.2165C188.465 80.6377 189.279 79.9572 190.059 79.3281C189.979 79.959 189.696 80.8242 190.259 81.2121C189.514 81.867 188.757 82.5087 187.991 83.1374C187.682 82.6351 187.7 81.8353 187.656 81.2165Z" fill="#84A8EF"/>
<path d="M190.064 79.3348C191.296 78.3881 190.671 78.4184 190.938 76.6369L190.963 76.4688C191.045 77.9764 190.483 79.3607 191.864 80.0492C191.307 80.4858 190.868 80.8426 190.264 81.2188C189.701 80.8309 189.984 79.9657 190.064 79.3348Z" fill="#84A8EF"/>
<path d="M198.28 81.9159C199.763 86.3423 199.487 91.1697 197.509 95.3983C195.385 99.9091 191.542 103.381 186.839 105.039C182.17 106.728 177.016 106.455 172.551 104.282C167.938 102.039 164.715 98.4229 163.068 93.5457C161.569 89.0543 161.913 84.1513 164.026 79.9136C167.063 73.8472 172.52 70.1521 179.279 69.5456C183.785 69.1415 187.602 70.7965 191.521 72.7675L190.603 73.6916L190.276 76.1367C190.251 76.8653 190.216 77.6007 190.227 78.329C189.791 78.6803 189.131 79.25 188.683 79.5353C187.837 80.2244 186.842 81.0792 185.968 81.6974C185.216 82.3292 184.273 83.1658 183.502 83.7361C182.366 84.7351 179.943 86.4963 179.363 87.9488C179.205 88.3464 180.257 89.2125 180.569 89.4942C182.024 88.707 184.011 87.1864 185.383 86.1789C186.204 85.5169 187.034 84.8693 187.878 84.2361C188.993 83.2934 189.94 82.5123 191.12 81.6369L192.168 80.7628C192.777 80.9242 193.472 81.0463 194.094 81.1709C194.526 81.2952 194.502 81.2434 194.862 81.4745C196.257 81.3631 196.608 81.3012 197.648 80.3419C197.818 80.7387 198.187 81.5349 198.28 81.9159Z" fill="#FC614F"/>
<path d="M191.533 82.3951C191.818 84.0648 192.363 85.2263 192.481 87.1953C192.657 90.1926 191.417 93.309 189.421 95.5182C187.285 97.9158 184.261 99.3332 181.052 99.4402C174.728 99.6933 168.949 94.5294 168.844 88.1346C168.823 84.9907 170.06 81.9689 172.279 79.7419C174.528 77.4492 177.61 76.1645 180.822 76.1798C183.738 76.1851 186.638 77.4847 188.686 79.5365C187.841 80.2256 186.845 81.0804 185.971 81.6986C185.219 82.3304 184.276 83.167 183.505 83.7373C182.369 84.7363 179.947 86.4975 179.367 87.95C179.209 88.3476 180.26 89.2137 180.572 89.4954C182.027 88.7082 184.014 87.1876 185.387 86.1801C186.208 85.5181 187.038 84.8705 187.881 84.2373C188.996 83.2946 189.944 82.5135 191.123 81.6381L191.458 82.4314L191.533 82.3951Z" fill="#FC614F"/>
<path d="M188.453 85.1425C188.522 85.3019 188.568 85.4702 188.608 85.6392C189.681 90.1872 187.252 94.6426 182.612 95.7124C180.35 96.2497 177.966 95.8342 176.019 94.5632C174.182 93.3582 172.923 91.4501 172.539 89.2879C171.252 81.8457 179.609 76.8759 185.967 81.698C185.216 82.3298 184.273 83.1663 183.501 83.7367C182.365 84.7356 179.943 86.4968 179.363 87.9494C179.205 88.3469 180.256 89.213 180.568 89.4947C182.023 88.7076 184.01 87.1869 185.383 86.1794C186.204 85.5175 187.034 84.8698 187.878 84.2367L188.453 85.1425Z" fill="#F8FAFE"/>
<path d="M185.387 86.1785L185.607 86.5436C185.631 88.7316 185.036 91.1512 182.926 92.071C176.671 94.7955 172.572 86.2743 178.994 83.3462C180.431 82.691 182.094 83.1096 183.506 83.7357C182.37 84.7347 179.947 86.4959 179.367 87.9484C179.209 88.346 180.261 89.2121 180.573 89.4938C182.028 88.7066 184.015 87.186 185.387 86.1785Z" fill="#FC614F"/>
<path d="M195.091 82.5192L195.178 82.8349C196.367 87.1547 196.264 91.229 193.971 95.2018C191.889 98.7381 188.483 101.299 184.508 102.317C180.475 103.394 176.177 102.766 172.622 100.58C165.354 96.2039 163.321 87.0414 167.781 79.8786C169.893 76.5112 173.262 74.1268 177.14 73.2551C182.304 72.0846 186.004 73.4672 190.28 76.1378C190.255 76.8663 190.22 77.6017 190.231 78.33C189.795 78.6813 189.136 79.251 188.687 79.5364C186.639 77.4845 183.739 76.1849 180.823 76.1796C177.611 76.1643 174.529 77.449 172.28 79.7417C170.061 81.9687 168.824 84.9905 168.845 88.1344C168.95 94.5292 174.729 99.6931 181.053 99.44C184.262 99.333 187.286 97.9156 189.422 95.518C191.418 93.3088 192.658 90.1924 192.481 87.1951C192.364 85.2261 191.819 84.0647 191.534 82.3949L191.459 82.4312L191.124 81.6379L192.173 80.7638C192.781 80.9252 193.476 81.0473 194.098 81.1719C194.53 81.2962 194.506 81.2444 194.866 81.4755L194.937 82.4197L195.091 82.5192Z" fill="#F8FAFE"/>
<path d="M192.166 80.7656C192.774 80.927 193.469 81.0491 194.091 81.1737L192.816 81.9675C192.273 82.0223 191.908 81.9963 191.527 82.3967L191.452 82.433L191.117 81.6397L192.166 80.7656Z" fill="#C1D6FC"/>
<path d="M194.095 81.1719C194.527 81.2962 194.503 81.2443 194.863 81.4754L194.934 82.4197C194.173 82.1476 193.613 82.0901 192.82 81.9656L194.095 81.1719Z" fill="#D6E4FD"/>
<path d="M194.867 81.4763C196.262 81.365 196.613 81.3031 197.653 80.3438C197.823 80.7406 198.192 81.5367 198.285 81.9177C196.853 81.943 196.673 82.6851 195.092 82.52L194.938 82.4206L194.867 81.4763Z" fill="#FC614F"/>
<path d="M223.551 87.6171L284.276 87.6401C286.862 87.6594 297.064 87.3581 298.766 87.9323C299.753 88.7709 299.608 92.0625 298.906 92.8177C298.232 93.5452 294.132 93.2736 293.104 93.2745L282.495 93.2835L232.405 93.2823L216.239 93.267C213.212 93.2698 210.204 93.3067 207.164 93.2395C205.561 93.2698 205.343 92.2804 205.266 91.0852C205.034 87.4383 205.776 87.5272 208.996 87.6799C209.636 87.7104 211.014 87.6843 211.768 87.6828C215.695 87.6835 219.624 87.6617 223.551 87.6171Z" fill="#9CBCF8"/>
<path d="M206.268 76.1372C210.139 76.0524 214.058 76.0986 217.935 76.0977C239.312 76.0928 260.692 76.1009 282.069 76.0923C282.78 76.1706 284.27 75.9682 284.714 76.6382C285.29 77.5094 285.266 78.5879 285.166 79.5864C285.047 80.7682 285.11 81.1396 284.119 81.8267C266.643 81.9951 249.166 82.0061 231.689 81.8597L214.927 81.8411C212.215 81.8399 209.498 81.8499 206.787 81.8124C204.858 81.7857 205.254 78.7544 205.432 77.4942C205.543 76.7087 205.624 76.6119 206.268 76.1372Z" fill="#9CBCF8"/>
<path d="M237.992 98.9164L263.082 98.9387C267.228 98.9344 271.374 98.9043 275.521 98.9584C276.922 98.8442 277.146 100.217 277.184 101.312C277.241 103.064 277.184 104.562 275.009 104.582C271.954 104.61 268.918 104.596 265.874 104.599L244.543 104.606L217.915 104.593C215.809 104.584 207.409 104.715 205.972 104.238C205.026 103.321 205.024 100.121 205.72 99.2717C206.657 98.6911 214.328 98.9751 216.143 98.9796C223.426 99.0158 230.71 98.9947 237.992 98.9164Z" fill="#9CBCF8"/>
<path d="M278.151 143.632C280.716 143.467 299.362 143.351 300.567 143.794C301.295 144.062 302.019 144.616 302.343 145.336C302.649 146.013 302.729 146.856 302.766 147.593C302.878 149.756 302.807 162.572 302.382 163.656C301.954 164.75 301.145 165.197 300.109 165.628C299.091 165.752 297.834 165.747 296.79 165.714C290.626 165.517 284.256 165.958 278.133 165.423C275.201 165.167 275.697 160.71 275.754 158.644C275.873 154.401 275.469 149.872 275.998 145.657C276.1 144.833 277.503 143.968 278.151 143.632Z" fill="#67D3D1"/>
<path d="M287.873 155.12C289.794 153.215 292.424 150.267 294.551 148.592C294.808 148.389 295.576 148.426 295.91 148.591C296.789 149.018 297.022 149.981 297.298 150.84C297.415 151.216 297.647 151.933 297.379 152.274C295.687 154.424 293.523 156.284 291.642 158.279C290.647 159.336 289.551 160.474 288.217 161.014C286.037 160.373 284.05 157.953 282.688 156.153C282.47 155.864 282.577 155.525 282.614 155.187C282.516 152.879 284.027 151.909 285.937 153.426C286.605 153.955 287.239 154.552 287.873 155.12Z" fill="#F8FAFE"/>
<path d="M297.298 150.836C297.415 151.213 297.647 151.93 297.379 152.27C295.687 154.42 293.523 156.28 291.642 158.275C290.647 159.332 289.551 160.47 288.217 161.011C286.037 160.369 284.05 157.949 282.688 156.149C282.47 155.86 282.577 155.521 282.614 155.184C283.505 156.155 286.474 159.653 287.759 159.712C288.128 159.729 289.092 159.26 289.383 158.975C291.52 156.89 295.63 153.12 297.298 150.836Z" fill="#47AECD"/>
<path d="M278.499 173.465C281.654 173.233 299.189 173.13 300.935 173.718C301.622 173.95 302.086 174.486 302.38 175.134C302.566 175.539 302.684 175.973 302.728 176.417C302.916 178.549 302.97 192.244 302.377 193.591C301.959 194.54 300.995 195.087 300.072 195.435C297.472 195.628 279.418 195.753 277.679 195.114C276.968 194.852 276.316 194.117 276.018 193.43C275.543 192.332 275.596 176.387 276.152 175.176C276.589 174.221 277.57 173.79 278.499 173.465Z" fill="#67D3D1"/>
<path d="M287.884 184.961C289.309 183.535 290.68 182.078 292.105 180.632C293.039 179.684 294.693 177.724 296.219 178.563C296.972 178.978 297.153 179.872 297.283 180.648C297.692 181.136 297.578 180.867 297.671 181.472C297.337 182.501 289.304 191.308 287.492 190.647C286.453 190.266 283.301 187.14 282.635 186.017C282.42 185.716 282.652 185.364 282.765 185.145C282.622 184.238 282.677 182.384 283.979 182.408C285.641 182.44 286.813 183.863 287.884 184.961Z" fill="#F8FAFE"/>
<path d="M297.283 180.648C297.692 181.137 297.578 180.867 297.671 181.472C297.337 182.501 289.304 191.308 287.492 190.647C286.453 190.266 283.301 187.14 282.635 186.018C282.42 185.716 282.652 185.364 282.765 185.145C284.133 186.509 285.333 188.039 286.835 189.241C287.596 189.85 288.971 189.324 289.52 188.722C291.719 186.31 295.582 183.331 297.283 180.648Z" fill="#47AECD"/>
<path d="M268.664 117.677C268.696 117.471 268.7 117.058 268.851 116.961C270.267 116.055 273.342 117.385 274.521 118.144L274.651 118.239C278.336 121.888 279.464 124.452 282.614 128.214L284.402 126.486C285.157 129.166 284.568 131.149 283.843 133.806C281.431 133.121 279.425 132.176 277.307 130.817C278.123 130.554 278.961 130.198 279.762 129.879C277.114 126.465 274.88 121.994 271.451 119.425C270.888 119.003 269.461 118.446 268.748 118.144L268.664 117.677Z" fill="#FC614F"/>
<path d="M206.46 135.227L271.93 135.285C277.972 135.258 284.016 135.272 290.058 135.331C293.855 135.332 298.011 135.127 301.753 135.543C300.843 136.039 260.086 135.802 254.366 135.852C246.773 135.73 239.378 135.888 231.797 135.87L187.032 135.763C183.396 135.769 160.334 136.091 158.945 135.582C163.242 135.215 167.718 135.308 172.048 135.297L195.567 135.264C198.992 135.252 203.118 135.4 206.46 135.227Z" fill="#D6E4FD"/>
<path d="M165.317 45.3682C165.516 45.3572 166.188 45.3219 166.314 45.383C167.575 45.9904 169.591 49.5315 170.413 50.7612C171.123 49.5185 173.462 45.4776 174.58 45.3402C176.534 45.1002 175.76 55.1328 175.544 56.3977C174.934 56.6288 174.315 56.5227 173.646 56.4856C173.523 55.1857 173.56 53.569 173.557 52.2403C173.542 51.1344 173.574 50.1755 173.627 49.0693C170.559 53.9222 170.196 54.7204 167.049 48.9661C167.143 50.8623 167.073 54.6185 166.96 56.4792L165.016 56.4923C164.901 54.9066 164.634 46.3111 165.317 45.3682Z" fill="#1D2B66"/>
<path d="M209.844 44.7594C210.597 44.7267 210.855 44.6704 211.561 44.8726C212.074 45.5563 211.843 55.004 211.716 56.2799C210.971 56.8547 210.576 56.6866 209.808 56.1407C209.369 55.8285 208.481 56.6634 207.95 56.6825C207.447 56.7006 206.998 56.641 206.516 56.5884C202.178 54.5528 204.436 46.2672 209.684 49.3923C209.674 48.241 209.571 45.7751 209.844 44.7594Z" fill="#1D2B66"/>
<path d="M207.695 50.3203C209.706 50.3881 210.065 51.991 209.658 53.6998C209.465 54.5122 209.147 54.6638 208.466 55.0603C205.798 54.8953 205.922 51.8548 207.695 50.3203Z" fill="#F8FAFE"/>
<path d="M264.861 121.484C266.725 121.594 267.925 122.616 268.26 124.457C268.814 127.496 268.466 130.574 265.024 131.294C262.916 130.968 261.766 129.954 261.461 127.79C261.061 124.942 261.663 121.957 264.861 121.484Z" fill="#FC614F"/>
<path d="M264.506 122.766C267.798 122.829 267.671 128.728 265.261 129.945C262.88 129.677 262.727 127.393 262.963 125.364C263.109 124.116 263.506 123.507 264.506 122.766Z" fill="#F8FAFE"/>
<path d="M254.82 44.9396C255.02 44.9229 255.222 44.9106 255.423 44.9027C257.684 44.8215 259.913 45.8907 259.838 48.3867C259.766 50.8013 256.143 53.2242 254.451 54.6841C255.982 54.696 257.693 54.5685 259.205 54.7376C259.76 54.7995 259.678 54.8376 259.928 55.204C260.004 55.7162 260.028 55.6863 259.791 56.141C258.928 56.8528 256.659 56.5431 255.409 56.5193C254.291 56.5361 252.346 56.8429 251.625 55.9693C251.343 53.179 258.954 50.3411 257.346 47.5757C256.183 45.5764 253.847 47.7878 252.554 47.6603C252.063 47.4182 252.102 47.4268 251.81 46.956C251.947 45.7064 253.778 45.1662 254.82 44.9396Z" fill="#1D2B66"/>
<path d="M261.944 44.7677C262.781 44.6837 263.125 44.5644 263.783 45.0105C264.399 46.1102 264.056 48.2042 264.048 49.7013C265.588 48.4585 267.831 47.8784 268.791 50.0462C269.341 51.2871 269.372 55.1637 268.892 56.4133C268.31 56.6168 267.748 56.6284 267.236 56.2959C266.816 55.5008 266.975 54.3227 266.993 53.3616C266.996 52.6729 267.066 51.4023 266.605 50.9683C263.363 47.9178 264.021 55.4744 264.017 56.4847C263.375 56.5232 262.741 56.6106 262.165 56.3664C261.74 55.4991 261.912 46.3745 261.944 44.7677Z" fill="#1D2B66"/>
<path d="M180.306 48.7247C182.48 48.5471 183.426 48.9646 184.485 50.855C184.504 51.6108 184.488 52.4185 184.485 53.1791C183.469 53.2336 180.027 52.9811 179.548 53.4466C179.88 55.7533 182.276 54.9308 183.801 54.5653C184.134 55.0979 184.131 55.0659 184.217 55.6824C184.016 56.1554 184.093 56.0918 183.575 56.3021C179.559 57.9306 176.095 54.7425 177.808 50.6634C178.23 49.6601 179.232 49.0408 180.306 48.7247Z" fill="#1D2B66"/>
<path d="M180.72 50.1641C181.684 50.2052 182.455 50.6217 182.619 51.6332L182.393 51.8968L181.786 51.9271C181.48 51.9441 181.174 51.9566 180.869 51.9646C180.32 51.9766 180.058 51.9923 179.648 51.603L179.65 51.2412C180.052 50.6333 180.12 50.6094 180.72 50.1641Z" fill="#F8FAFE"/>
<path d="M219.734 48.7037C223.186 48.5681 224.01 49.2286 223.978 52.7837C223.966 53.9431 224.105 55.1041 223.846 56.2623C223.458 56.6381 223.681 56.481 223.076 56.6431C222.543 56.5456 222.425 56.3338 222.05 55.9323L221.914 55.7841C220.43 56.7553 220.019 56.8856 218.249 56.3054C215.348 53.4191 219.069 52.1257 221.361 51.7299C221.706 51.6702 221.899 51.4639 222.03 51.1568C221.166 49.6056 219.188 50.8351 218.035 50.4279C217.671 50.0042 217.781 50.2444 217.711 49.674C218.214 49.0482 218.986 48.8798 219.734 48.7037Z" fill="#1D2B66"/>
<path d="M221.172 53.2101C221.686 53.1975 221.692 53.1678 221.975 53.4879C221.924 54.5105 221.004 54.9576 220.163 55.2491C219.708 55.01 219.737 55.0191 219.396 54.6271C219.167 53.5482 220.344 53.421 221.172 53.2101Z" fill="#F8FAFE"/>
<path d="M194.709 48.7122C198.236 48.4538 199.025 50.2355 198.884 53.4256C198.842 54.4103 198.882 55.2164 198.611 56.1926C198.2 56.6543 198.442 56.5196 197.9 56.6731C197.197 56.4954 197.257 56.1786 196.65 55.8841C194.902 56.4973 194.858 57.099 192.92 56.2138C192.493 55.6962 192.163 55.1087 192.135 54.4238C192.031 51.8539 196.028 52.3234 196.91 51.3326C196.029 49.4151 193.62 51.1135 192.484 50.0929L192.507 49.8226C193.232 48.9007 193.59 48.9004 194.709 48.7122Z" fill="#1D2B66"/>
<path d="M196.068 53.2376C196.448 53.193 196.31 53.1988 196.699 53.2974C197.119 54.312 195.837 55.0293 195.019 55.2607C194.557 54.9625 194.572 54.9518 194.245 54.543C194.064 53.469 195.247 53.402 196.068 53.2376Z" fill="#F8FAFE"/>
<path d="M238.155 48.7254C238.78 48.7049 239.292 48.6861 239.91 48.819C240.613 48.9698 241.225 49.3999 241.603 50.0103C242.412 51.3003 242.156 54.318 241.954 55.8519C241.889 56.3433 241.683 56.4247 241.354 56.6427C240.795 56.6076 240.667 56.4654 240.226 56.0319L240.015 55.8226C238.756 56.7649 237.71 56.8665 236.255 56.2216C232.899 52.413 239.378 52.2168 240.157 51.3358L240.048 50.9211C238.861 49.8791 236.061 51.0344 235.642 49.9039C236.155 49.0635 237.267 48.8609 238.155 48.7254Z" fill="#1D2B66"/>
<path d="M239.431 53.2286C239.925 53.2259 239.741 53.1299 240.047 53.4151C239.979 54.5383 239.289 54.9336 238.334 55.3211C237.866 55.0046 237.807 55.0079 237.492 54.523C237.376 53.4153 238.572 53.3791 239.431 53.2286Z" fill="#F8FAFE"/>
<path d="M170.662 124.486C175.141 124.362 175.718 130.026 171.667 131.25C170.038 131.221 168.845 130.814 168.253 129.138C167.92 128.163 167.992 127.095 168.455 126.174C168.994 125.124 169.595 124.803 170.662 124.486Z" fill="#5A86D7"/>
<path d="M170.783 125.641C173.343 125.698 173.4 128.733 171.64 130.134C170.899 129.993 170.376 129.957 169.917 129.291C169.561 128.782 169.426 128.15 169.539 127.54C169.718 126.585 170.016 126.165 170.783 125.641Z" fill="#F8FAFE"/>
<path d="M159.498 121.895C159.973 121.837 160.231 121.751 160.654 121.965C161.258 122.7 161.009 124.655 161.024 125.678L165.043 125.672C164.989 124.757 164.748 122.657 165.165 121.941C165.634 121.839 166.017 121.802 166.353 122.161C166.609 123.798 166.529 129.289 166.447 131.046C165.989 131.077 165.773 131.127 165.337 130.972C164.747 130.163 165.028 128.189 165.04 127.033L161.057 127.023C161.035 128.001 161.226 130.419 160.554 131.04C160.084 131.127 160.112 131.147 159.667 130.987C159.293 130.186 159.486 123.227 159.498 121.895Z" fill="#5A86D7"/>
<path d="M187.412 45.9844C188.146 46.0124 188.249 46.01 188.707 46.4372C188.981 47.1032 188.871 48.0095 188.85 48.7643C189.812 48.7706 190.546 48.5824 191.049 49.536C190.911 50.7429 189.788 50.5089 188.875 50.4792C188.835 51.4717 188.771 52.5773 188.78 53.5648C188.8 55.7694 190.264 54.5639 191.078 55.3017C191.242 55.8057 191.174 55.9229 191.055 56.4334C190.865 56.4858 190.676 56.5322 190.483 56.5729C185.648 57.559 187.12 53.5972 186.573 50.6484C186.271 50.4367 186.087 50.4503 185.718 50.405L185.572 50.3879C185.096 49.8509 185.169 49.3117 185.737 48.8819C188.018 48.6555 185.626 46.9324 187.412 45.9844Z" fill="#1D2B66"/>
<path d="M214.499 121.744C215.778 121.732 219.005 121.483 220.022 121.882C220.169 122.367 220.162 122.128 220.044 122.625C219.256 123.287 217.019 122.974 215.865 122.939L215.81 125.194C216.992 125.119 217.452 125.115 218.628 125.225C221.042 126.652 221.198 129.123 218.932 130.806C218.682 130.9 218.426 130.982 218.167 131.048C217.131 131.321 214.252 131.377 214.008 130.033L214.238 129.743C215.685 129.289 217.421 130.369 218.779 129.112C219.208 128.242 218.794 127.219 218.194 126.536C217.364 125.537 215.187 127.434 214.594 126.244C214.076 125.203 214.409 122.897 214.499 121.744Z" fill="#1D2B66"/>
<path d="M194.119 121.624C196.192 121.401 198.533 121.439 198.796 124.051C199.004 126.109 195.943 128.081 194.643 129.532L194.491 129.705C195.654 129.722 197.963 129.535 198.959 129.856L199.073 130.222C198.802 131.603 196.38 131.107 195.16 131.092C194.122 131.123 193.353 131.293 192.546 130.674C191.475 128.274 201.71 124.074 195.22 122.836C194.795 122.755 193.721 123.774 192.846 123.612C192.397 123.247 192.543 123.467 192.352 122.955C192.638 122.239 193.45 121.934 194.119 121.624Z" fill="#1D2B66"/>
<path d="M256.305 121.663C257.132 121.632 259.015 121.423 259.595 121.927C259.618 122.417 259.63 122.384 259.419 122.825C258.699 123.087 256.394 122.981 255.482 122.969L255.326 125.185C257.245 124.973 259.547 125.051 260.085 127.416C260.255 128.184 260.104 128.987 259.667 129.641C258.985 130.67 258.272 130.974 257.147 131.207C256.192 131.254 254.264 131.164 253.664 130.329C253.977 128.411 255.737 130.391 257.243 129.824C257.78 129.629 258.211 129.217 258.431 128.69C258.613 128.247 258.622 127.735 258.411 127.304C257.536 125.514 255.487 126.717 254.182 126.284C253.717 125.59 254.063 122.721 254.127 121.725L256.305 121.663Z" fill="#FC614F"/>
<path d="M201.011 121.431C203.721 121.363 201.55 123.723 202.351 125.216L202.515 125.264C206.943 122.28 206.81 127.927 206.462 130.76C206.44 130.954 206.209 130.993 206.041 131.07C205.411 131.017 205.664 131.139 205.23 130.749C204.948 130.059 205.04 128.902 205.043 128.107C205.055 127.593 205.141 126.608 204.766 126.294C201.838 123.851 202.3 129.609 202.314 130.562C201.945 131.136 201.389 131.273 200.86 130.79C200.748 129.619 200.566 122.048 201.011 121.431Z" fill="#1D2B66"/>
<path d="M246.503 121.477C246.973 121.514 247.081 121.472 247.453 121.753C247.928 122.862 247.795 124.078 247.792 125.312C252.907 122.007 252.634 129.699 251.391 131.228L251.039 131.224C250.371 130.106 250.506 129.145 250.504 127.839C250.519 126.939 250.597 125.831 249.442 125.718C246.91 125.468 248.314 130.234 247.163 131.249L246.836 131.186C246.537 130.945 246.308 130.764 246.302 130.356C246.281 129.116 245.995 122.088 246.503 121.477Z" fill="#FC614F"/>
<path d="M230.409 118.144C229.488 118.288 222.863 118.22 221.651 118.187C217.357 118.068 212.702 118.336 208.477 118.204C208.884 118.05 210.115 118.139 210.62 118.153L210.662 118.024C210.299 117.82 207.119 117.764 206.629 117.823C204.008 118.143 183.38 117.381 182.269 118.018C182.455 118.181 204.256 118.136 206.138 118.156C202.816 118.333 198.292 118.211 194.869 118.211C187.388 118.248 179.907 118.204 172.426 118.08C170.989 118.063 163.978 118.174 163.086 117.879L163.187 117.767C165.835 117.595 169.62 117.671 172.319 117.663L189.741 117.649L216.386 117.661C221.329 117.661 226.629 117.509 231.517 117.662C231.082 117.794 230.748 117.849 230.409 118.144Z" fill="#D6E4FD"/>
<path d="M230.001 48.6809C230.534 48.8476 230.575 48.9264 230.763 49.3973C230.415 50.565 228.94 50.5352 227.892 51.6127C227.859 52.99 228.3 55.4484 227.396 56.3932C226.886 56.6463 226.37 56.5282 225.792 56.4749C225.774 54.9752 225.498 49.7336 226.15 48.8157C227.169 48.5203 227.554 48.6726 227.808 49.6064C228.626 49.143 229.056 48.838 230.001 48.6809Z" fill="#1D2B66"/>
<path d="M231.515 117.656L268.662 117.67L268.746 118.138C266.39 118.238 263.749 118.174 261.382 118.16C251.066 118.104 240.718 118.256 230.406 118.138C230.745 117.842 231.08 117.788 231.515 117.656Z" fill="#C1D6FC"/>
<path d="M178.555 128.315C178.585 127.046 178.559 126.251 179.544 125.276C180.117 124.7 180.906 124.393 181.718 124.433C183.91 124.548 184.37 126.483 184.243 128.295C183.308 128.319 180.695 128.274 179.969 128.369C179.948 128.37 178.752 128.315 178.555 128.315Z" fill="#5A86D7"/>
<path d="M181.017 125.641C181.978 125.651 182.7 125.965 182.831 127.004L182.646 127.209L182.127 127.231C181.41 127.239 180.383 127.506 180.094 126.772C180.296 126.213 180.561 126.056 181.017 125.641Z" fill="#F8FAFE"/>
<path d="M211.08 121.76C211.623 121.737 211.812 121.663 212.144 121.951C212.29 123.462 212.296 129.27 212.154 130.781L211.904 130.977C211.284 131.045 211.4 131.122 210.905 130.9C210.624 130.415 210.722 129.692 210.732 129.1C210.762 127.212 210.753 125.323 210.702 123.434C210.038 123.724 208.78 124.417 208.195 123.819C208.376 122.732 210.196 122.122 211.08 121.76Z" fill="#1D2B66"/>
<path d="M243.124 121.758C243.7 121.791 243.725 121.692 244.094 121.985C244.231 123.608 244.243 129.188 244.099 130.78L243.837 130.984C243.184 131.008 243.324 131.1 242.854 130.81C242.585 130.253 242.681 129.434 242.696 128.783C242.701 126.975 242.684 125.167 242.648 123.36C242.05 123.638 240.875 124.366 240.328 123.789C240.625 122.681 242.163 122.176 243.124 121.758Z" fill="#FC614F"/>
<path d="M232.042 124.25C232.769 124.618 234.643 126.001 235.373 126.516C234.81 126.901 232.421 128.681 232.003 128.723C232.029 128.223 232.101 127.953 232.208 127.472C231.839 127.219 230.852 127.24 230.311 127.2C229.481 127.194 225.958 127.263 225.441 126.957C225.318 126.48 225.313 126.516 225.483 126.053C226.707 125.305 230.581 126.303 232.137 125.668C232.309 125.202 232.145 124.758 232.042 124.25Z" fill="#4565B0"/>
<path d="M214.009 48.7002C214.295 48.6901 215.568 48.6177 215.625 48.975C215.88 50.5958 216.053 55.0866 215.613 56.517C214.909 56.5339 214.62 56.5751 213.948 56.4153C213.552 55.6199 213.525 49.4604 214.009 48.7002Z" fill="#1D2B66"/>
<path d="M231.872 48.8468C232.535 48.8178 233.097 48.7314 233.715 48.9435C234.168 49.927 233.942 55.1394 233.884 56.4938C233.21 56.5245 232.776 56.5942 232.129 56.3931C231.646 55.778 231.815 49.928 231.872 48.8468Z" fill="#1D2B66"/>
<path d="M263.957 194.047C265.527 194.011 267.154 193.996 268.719 193.938L268.74 197.21C267.262 197.214 265.336 197.273 263.898 197.131L263.998 196.645C263.904 195.721 263.935 194.974 263.957 194.047Z" fill="#9CBCF8"/>
<path d="M175.672 124.613C176.158 124.579 176.681 124.465 177.071 124.695C177.359 126.143 176.991 129.701 177.171 131.379C177.309 132.676 176.478 133.586 175.203 133.969C174.328 133.827 174.073 133.732 173.906 132.886C174.185 132.438 174.4 132.694 175.268 132.434C175.851 131.717 175.666 126.012 175.672 124.613Z" fill="#5A86D7"/>
<path d="M274.523 118.139C275.183 117.592 276.315 117.65 277.178 117.681C285.281 117.979 294.049 117.259 302.093 117.763L302.289 117.898C301.242 118.634 278.154 117.676 274.653 118.234L274.523 118.139Z" fill="#C1D6FC"/>
<path d="M178.555 128.32C178.752 128.32 179.948 128.376 179.969 128.375C180.921 131.038 183.109 129.238 184.046 130.02C183.585 131.638 181.387 131.485 180.219 130.789C179.044 130.089 178.892 129.602 178.555 128.32Z" fill="#5A86D7"/>
<path d="M221.906 44.1406L222.791 44.1682C223.252 44.451 223.118 44.2571 223.254 44.7363C222.96 45.7578 221.939 46.5853 221.166 47.3395C220.598 47.4445 220.491 47.4172 220.092 47.1753L220.039 46.7848C220.432 45.7369 221.161 44.961 221.906 44.1406Z" fill="#1D2B66"/>
<path d="M215.896 44.4453C216.539 44.558 216.771 44.5164 217.128 45.0833C217.086 46.0393 215.7 47.1044 214.948 47.8181C214.447 47.7779 214.433 47.8263 214.06 47.5117C213.85 46.6485 215.302 45.0128 215.896 44.4453Z" fill="#1D2B66"/>
<path d="M244.009 49.0159C244.945 48.9575 245.543 48.7568 246.09 49.608C246.156 50.3312 246.084 50.4829 245.915 51.21C244.012 51.2973 243.36 51.0256 244.009 49.0159Z" fill="#1D2B66"/>
<path d="M244.344 54.2992C246.078 54.2497 246.682 54.9859 245.701 56.5003L245.559 56.51C244.491 56.5781 243.681 56.4277 243.672 55.1341C243.981 54.4973 243.8 54.66 244.344 54.2992Z" fill="#1D2B66"/>
<path d="M232.085 45.3989C233.022 45.3321 233.696 45.1621 234.121 46.1324C234.072 46.8163 234.077 46.8468 233.765 47.4426C232.135 47.5614 230.996 47.0827 232.085 45.3989Z" fill="#1D2B66"/>
<path d="M185.91 129.545C186.3 129.236 186.865 129.305 187.171 129.697C187.475 130.089 187.403 130.653 187.008 130.956C186.618 131.255 186.06 131.182 185.759 130.795C185.458 130.406 185.524 129.849 185.91 129.545Z" fill="#4565B0"/>
<path d="M176.28 121.735C176.748 121.67 177.184 121.984 177.273 122.448C177.36 122.912 177.068 123.363 176.61 123.474C176.292 123.551 175.957 123.446 175.739 123.201C175.522 122.957 175.457 122.613 175.57 122.306C175.683 121.999 175.956 121.78 176.28 121.735Z" fill="#4565B0"/>
<path d="M185.919 125.015C186.181 124.82 186.532 124.789 186.826 124.934C187.12 125.079 187.308 125.376 187.314 125.703C187.32 126.03 187.144 126.334 186.856 126.489C186.451 126.709 185.946 126.578 185.699 126.189C185.452 125.801 185.549 125.288 185.919 125.015Z" fill="#4565B0"/>
<path d="M263.897 197.133C263.353 197.059 262.877 197.044 262.469 196.729C262.912 196.512 263.483 196.613 263.996 196.646L263.897 197.133Z" fill="#D6E4FD"/>
<ellipse cx="60.8969" cy="87.323" rx="0.771638" ry="1.24627" transform="rotate(40.716 60.8969 87.323)" fill="#091547"/>
<ellipse cx="56.8969" cy="86.323" rx="0.771638" ry="1.24627" transform="rotate(40.716 56.8969 86.323)" fill="#091547"/>
</svg>
