<svg width="17" height="19" viewBox="0 0 17 19" fill="none" xmlns="http://www.w3.org/2000/svg">
<path d="M5.65833 10.5917L11.35 13.9083M11.3417 4.75833L5.65833 8.075M16 3.5C16 4.88071 14.8807 6 13.5 6C12.1193 6 11 4.88071 11 3.5C11 2.11929 12.1193 1 13.5 1C14.8807 1 16 2.11929 16 3.5ZM6 9.33333C6 10.714 4.88071 11.8333 3.5 11.8333C2.11929 11.8333 1 10.714 1 9.33333C1 7.95262 2.11929 6.83333 3.5 6.83333C4.88071 6.83333 6 7.95262 6 9.33333ZM16 15.1667C16 16.5474 14.8807 17.6667 13.5 17.6667C12.1193 17.6667 11 16.5474 11 15.1667C11 13.786 12.1193 12.6667 13.5 12.6667C14.8807 12.6667 16 13.786 16 15.1667Z" stroke="#322D70" stroke-width="2" stroke-linecap="round" stroke-linejoin="round"/>
</svg>
