<svg width="19" height="19" viewBox="0 0 19 19" fill="none" xmlns="http://www.w3.org/2000/svg">
<path d="M8.66177 17.3235V13.4934C7.69165 13.3529 6.8373 12.9736 6.09872 12.3553C5.36014 11.7371 4.85897 10.9601 4.59521 10.0245C3.30563 9.87115 2.21741 9.32378 1.33056 8.38235C0.44352 7.44092 0 6.32327 0 5.02941V4.25572C0 3.70006 0.197824 3.22441 0.593471 2.82876C0.989118 2.43312 1.46477 2.23529 2.02043 2.23529H4.27724V2.02043C4.27724 1.46477 4.47506 0.989117 4.87071 0.59347C5.26635 0.197823 5.74201 0 6.29766 0H12.7023C13.258 0 13.7336 0.197823 14.1293 0.59347C14.5249 0.989117 14.7228 1.46477 14.7228 2.02043V2.23529H16.9796C17.5352 2.23529 18.0109 2.43312 18.4065 2.82876C18.8022 3.22441 19 3.70006 19 4.25572V5.02941C19 6.32327 18.5565 7.44092 17.6694 8.38235C16.7826 9.32378 15.6944 9.87115 14.4048 10.0245C14.141 10.9601 13.6399 11.7371 12.9013 12.3553C12.1627 12.9736 11.3084 13.3529 10.3382 13.4934V17.3235H13.4763C13.7138 17.3235 13.9128 17.4039 14.0734 17.5647C14.2342 17.7254 14.3145 17.9245 14.3145 18.162C14.3145 18.3997 14.2342 18.5988 14.0734 18.7591C13.9128 18.9197 13.7138 19 13.4763 19H5.52369C5.28619 19 5.08716 18.9196 4.92659 18.7589C4.76583 18.5981 4.68546 18.399 4.68546 18.1615C4.68546 17.9238 4.76583 17.7248 4.92659 17.5644C5.08716 17.4038 5.28619 17.3235 5.52369 17.3235H8.66177ZM4.27724 8.22337V3.91176H2.02043C1.92002 3.91176 1.8376 3.94399 1.77315 4.00844C1.7087 4.07289 1.67647 4.15532 1.67647 4.25572V5.02941C1.67647 5.80171 1.92077 6.4845 2.40937 7.07778C2.89797 7.67088 3.52059 8.05274 4.27724 8.22337ZM9.50251 11.8859C10.4823 11.8859 11.3143 11.5432 11.9985 10.8577C12.6827 10.1722 13.0248 9.3399 13.0248 8.36084V2.02043C13.0248 1.92002 12.9926 1.8376 12.9281 1.77315C12.8637 1.7087 12.7813 1.67647 12.6811 1.67647H6.3189C6.21868 1.67647 6.13635 1.7087 6.0719 1.77315C6.00745 1.8376 5.97522 1.92002 5.97522 2.02043V8.36084C5.97522 9.3399 6.31815 10.1722 7.00401 10.8577C7.68988 11.5432 8.52271 11.8859 9.50251 11.8859ZM14.7228 8.22337C15.4794 8.05274 16.102 7.67088 16.5906 7.07778C17.0792 6.4845 17.3235 5.80171 17.3235 5.02941V4.25572C17.3235 4.15532 17.2913 4.07289 17.2269 4.00844C17.1624 3.94399 17.08 3.91176 16.9796 3.91176H14.7228V8.22337Z" fill="#322D70"/>
</svg>
